<svg xmlns="http://www.w3.org/2000/svg" width="24" height="24" fill="none"><path d="M7.088 4.764l-1 .781C4.572 6.729 3.813 7.321 3.407 8.156S3 9.956 3 11.885v2.092c0 3.786 0 5.679 1.172 6.856C5.115 21.779 6.52 21.964 9 22v-3.994c0-.932 0-1.398.152-1.765a2 2 0 0 1 1.082-1.082c.368-.152.833-.152 1.765-.152s1.398 0 1.765.152a2 2 0 0 1 1.082 1.082c.152.367.152.833.152 1.765V22c2.48-.036 3.885-.221 4.828-1.168C21 19.656 21 17.763 21 13.977v-2.092c0-1.929 0-2.894-.407-3.729s-1.165-1.427-2.682-2.611l-1-.781C14.552 2.921 13.372 2 12 2s-2.552.921-4.912 2.764z" stroke="#000" stroke-width="1.5" stroke-linejoin="round"/></svg>