<svg xmlns="http://www.w3.org/2000/svg" width="1000" height="1000" fill="none"><style><![CDATA[.K{fill:#263238}.L{fill:#407bff}.M{fill:#000}.N{fill:#fff}.O{opacity:.2}.P{fill-rule:evenodd}.Q{fill:#b55b52}.R{fill:#ebebeb}.S{fill:#e0e0e0}.T{fill:#f5f5f5}]]></style><path d="M0 0h1000v1000H0z" class="N"/><g class="R"><path d="M1000 782.4H0v-.5h1000v.5zm-828.8 19h-66.3v-.5h66.3v.5zm188.5-5.4h-69v-.5h69v.5zM263 811.1H152.2v-.5H263v.5zm634.7 1.8h-86.4v-.5h86.4v.5zm-111-12.5h-45.8v-.5h45.8v.5zm-208.1 8.1H391.3v-.5h187.3v.5z"/><path d="M474 692.7H87.8c-6.3 0-11.4-5.1-11.4-11.4V138.4c0-6.3 5.1-11.4 11.4-11.4H474c6.3 0 11.4 5.1 11.4 11.4v542.9c0 6.3-5.1 11.4-11.4 11.4zM87.8 127.5a10.93 10.93 0 0 0-10.9 10.9v542.9a10.93 10.93 0 0 0 10.9 10.9H474a10.93 10.93 0 0 0 10.9-10.9V138.4a10.93 10.93 0 0 0-10.9-10.9H87.8zm818.8 565.2H520.4c-6.3 0-11.4-5.1-11.4-11.4V138.4c0-6.3 5.1-11.4 11.4-11.4h386.2c6.3 0 11.4 5.1 11.4 11.4v542.9c0 6.3-5.1 11.4-11.4 11.4zM520.4 127.5a10.93 10.93 0 0 0-10.9 10.9v542.9a10.93 10.93 0 0 0 10.9 10.9h386.2a10.93 10.93 0 0 0 10.9-10.9V138.4a10.93 10.93 0 0 0-10.9-10.9H520.4z" class="P"/></g><g class="S"><path d="M297.2 775.7h108.3v6.2H297.2v-6.2z"/><path d="M341.6 640.3l-29.9 135.4H391l-29.9-135.4c-2.3-10.4-17.2-10.4-19.5 0z"/></g><path d="M367 667.2h-31.3l-7.6 34.3h46.5l-7.6-34.3zm8.9 40.3h-49.1l-3.9 17.4h56.9l-3.9-17.4z" class="T"/><path d="M145 781.9h16.1l47.4-264.8h-16.1L145 781.9zm421.3 0h16.1l47.4-264.8h-16.1l-47.4 264.8z" class="S"/><path d="M677.1 626.2H145V530h532.1v96.2z" class="R"/><path d="M202.7 622h-55.1l30.6-87.8h55.1L202.7 622zm110.3 0h-55.1l30.6-87.8h55.1L313 622zm110.4 0h-55.2l30.6-87.8h55.1L423.4 622zm110.3 0h-55.2l30.6-87.8h55.2L533.7 622zm110.3 0h-55.2l30.6-87.8h55.2L644 622z" fill="#fafafa"/><g class="S"><path d="M255.8 781.9h-16.1l-47.3-264.8h16.1l47.3 264.8zm421.3 0H661l-47.3-264.8h16.1l47.3 264.8zm74.9-8.1h142v8.1H752v-8.1z"/><path d="M809.3 600.4L771 773.8h104l-38.3-173.4c-3.2-14.7-24.2-14.7-27.4 0z"/></g><path d="M843.6 631.4h-41.2l-9.9 45h61l-9.9-45zm11.6 53h-64.4l-5.1 22.7h74.6l-5.1-22.7z" class="T"/><path d="M926 500.9v58.6c0 3.9-3.8 6.7-7.6 5.5L72.5 296.9c-2.4-.7-4-3-4-5.5v-58.6c0-3.9 3.8-6.7 7.5-5.5l845.9 268.1c2.5.7 4.1 3 4.1 5.5z" class="R"/><path d="M859.4 541.9l46.6 14.7-25.8-70-46.6-14.8 25.8 70.1zm-93.1-29.6l46.6 14.8-25.9-70-46.5-14.8 25.8 70zm-93.2-29.5l46.6 14.8-25.8-70-46.6-14.8 25.8 70zM580 453.3l46.6 14.8-25.9-70.1-46.5-14.7 25.8 70zm-93.1-29.5l46.5 14.8-25.8-70.1-46.6-14.7 25.9 70zm-93.2-29.5l46.6 14.7-25.8-70-46.6-14.8 25.8 70.1zm-93.1-29.5l46.5 14.7-25.8-70-46.6-14.8 25.9 70.1zm-93.2-29.6L254 350l-25.8-70-46.6-14.8 25.8 70zm-93.1-29.5l46.6 14.8-25.9-70.1-46.5-14.7 25.8 70z" fill="#fafafa"/><path d="M887.8 849.6c0 12.5-173.6 22.6-387.8 22.6s-387.8-10.1-387.8-22.6 173.6-22.7 387.8-22.7 387.8 10.2 387.8 22.7z" class="T"/><path d="M652.9 832.2h-23V137.3c0-3.7 23-3.7 23 0v694.9z" class="K"/><path d="M652.9 398.3l-23 4.6V371h23v27.3z" class="M"/><path d="M795.5 390.3l-323.6-24.1c-13.2-1-23.2-12.5-22.2-25.7l13.5-181.7c1-13.2 12.6-23.1 25.7-22.2l323.6 24.1c13.2 1 23.2 12.6 22.2 25.7l-13.5 181.7c-1 13.2-12.6 23.2-25.7 22.2z" class="N"/><g class="L"><path d="M797.3 393.4c-.667 0-1.367-.033-2.1-.1l-323.6-24.1a26.59 26.59 0 0 1-18.4-9.3c-4.7-5.5-7-12.4-6.5-19.6l13.5-181.7c.6-7.2 3.9-13.7 9.4-18.5 5.4-4.7 12.4-7 19.6-6.5l323.6 24.1c7.1.6 13.7 3.9 18.4 9.3 4.7 5.5 7 12.5 6.5 19.6l-13.5 181.8c-.6 7.1-3.9 13.7-9.4 18.4-4.9 4.3-11.1 6.6-17.5 6.6zM487.1 139.6c-5 0-9.8 1.8-13.6 5.1-4.3 3.7-6.9 8.7-7.3 14.3l-13.5 181.7c-.9 11.6 7.8 21.7 19.4 22.5l323.6 24.1c5.6.4 11-1.4 15.2-5 4.3-3.7 6.9-8.8 7.3-14.4l13.5-181.7c.9-11.5-7.8-21.6-19.4-22.5l-323.6-24.1h-1.6zm87.8 93.6l-40.7-3 1.4-18.4 44.2-45.3 19.5 1.5-3.7 49.3 10.1.8-1.3 17.3-10.1-.8-1.1 15.1-19.4-1.5 1.1-15zm1.3-17.3l1.8-25.3-23.3 23.7 21.5 1.6zm37.1-5.5c1.133-15.267 4.667-25.733 10.6-31.4s14.533-8.1 25.8-7.3c5.4.4 9.8 1.4 13.2 3 3.333 1.6 6.033 3.533 8.1 5.8 2 2.333 3.567 4.733 4.7 7.2 1.067 2.4 1.867 5.2 2.4 8.4 1.067 6.133 1.333 12.433.8 18.9-1.067 14.6-4.3 25.1-9.7 31.5-5.467 6.4-14.233 9.133-26.3 8.2-6.733-.467-12.1-1.933-16.1-4.4s-7.2-5.9-9.6-10.3c-1.667-3.067-2.867-7.2-3.6-12.4-.667-5.267-.767-11-.3-17.2zm22.1 1.7c-.733 10.267-.333 17.333 1.2 21.2s4 5.933 7.4 6.2c2.267.133 4.3-.533 6.1-2 1.733-1.467 3.133-3.867 4.2-7.2 1.067-3.4 1.867-8.733 2.4-16 .8-10.667.433-17.9-1.1-21.7s-4.133-5.833-7.8-6.1-6.467 1.4-8.4 5c-1.933 3.667-3.267 10.533-4 20.6z" class="P"/><path d="M711 201l-20.8-5.3c2.267-6.6 6-11.5 11.2-14.7 5.267-3.267 12.467-4.533 21.6-3.8 10.467.733 17.9 3.233 22.3 7.5s6.367 9.367 5.9 15.3c-.267 3.467-1.433 6.533-3.5 9.2-2.133 2.667-5.2 4.9-9.2 6.7 3.067 1 5.4 2.1 7 3.3 2.533 1.8 4.433 4.1 5.7 6.9s1.767 6.067 1.5 9.8c-.333 4.667-1.9 9.067-4.7 13.2-2.733 4.067-6.5 7.1-11.3 9.1s-10.933 2.7-18.4 2.1c-7.267-.533-12.967-1.8-17.1-3.8-4.067-2.067-7.333-4.833-9.8-8.3-2.467-3.533-4.267-7.867-5.4-13l22.5-1.3c.6 4.6 1.733 7.833 3.4 9.7 1.733 1.867 4.033 2.9 6.9 3.1 3 .2 5.567-.7 7.7-2.7 2.133-2.067 3.333-4.933 3.6-8.6.333-3.733-.4-6.667-2.2-8.8-1.733-2.2-4.267-3.433-7.6-3.7-1.733-.133-4.167.133-7.3.8l2.3-15.9c1.267.267 2.233.433 2.9.5 2.933.2 5.433-.533 7.5-2.2 2.133-1.733 3.3-3.867 3.5-6.4.133-2.467-.467-4.5-1.8-6.1-1.333-1.533-3.3-2.4-5.9-2.6s-4.767.433-6.5 1.9c-1.8 1.467-3.133 4.167-4 8.1zm-166.9 63.7l31.1 2.3-.6 8-19.4-1.4-.5 5.9 18 1.4-.5 7.6-18.1-1.3-.5 7.4 20 1.5-.6 8.5-31.6-2.4 2.7-37.5z"/><path d="M579.3 305l2.8-37.4 19.3 1.4c3.6.267 6.333.767 8.2 1.5 1.8.8 3.233 2.067 4.3 3.8s1.5 3.8 1.3 6.2c-.133 2.067-.7 3.833-1.7 5.3-1 1.4-2.333 2.533-4 3.4-1 .467-2.4.833-4.2 1.1 1.4.6 2.4 1.133 3 1.6.4.333.967 1.067 1.7 2.2.733 1 1.2 1.8 1.4 2.4l4.8 11.3-13.1-1-5.3-11.9c-.667-1.533-1.3-2.567-1.9-3.1-.8-.6-1.733-.933-2.8-1l-1-.1-1.1 15.2-11.7-.9zm13.3-21.4l4.9.3c.467.067 1.5-.033 3.1-.3.733-.067 1.367-.4 1.9-1s.833-1.3.9-2.1c.133-1.2-.167-2.167-.9-2.9-.733-.667-2.167-1.1-4.3-1.3l-5.1-.3-.5 7.6zm27.5 24.5l2.8-37.5 19.3 1.4c3.533.267 6.233.767 8.1 1.5 1.867.8 3.3 2.067 4.3 3.8 1.067 1.733 1.5 3.8 1.3 6.2-.133 2.067-.7 3.833-1.7 5.3s-2.3 2.6-3.9 3.4c-1.067.533-2.467.933-4.2 1.2 1.333.533 2.3 1.067 2.9 1.6.4.333.967 1.033 1.7 2.1s1.2 1.867 1.4 2.4l4.8 11.3-13-1-5.4-11.9c-.667-1.533-1.3-2.533-1.9-3-.733-.667-1.633-1.033-2.7-1.1l-1.1-.1-1.1 15.2-11.6-.8zm13.3-21.4l4.9.4c.533 0 1.567-.1 3.1-.3a3.33 3.33 0 0 0 2-1.1c.533-.533.833-1.233.9-2.1.067-1.2-.267-2.133-1-2.8-.733-.733-2.133-1.167-4.2-1.3l-5.1-.4-.6 7.6zm26.3 5.5c.467-6.133 2.533-10.767 6.2-13.9 3.667-3.2 8.533-4.567 14.6-4.1 6.267.467 10.933 2.5 14 6.1 3.133 3.6 4.5 8.433 4.1 14.5-.333 4.333-1.367 7.867-3.1 10.6a16.27 16.27 0 0 1-6.8 6.1c-2.933 1.333-6.467 1.833-10.6 1.5-4.267-.333-7.733-1.267-10.4-2.8s-4.733-3.833-6.2-6.9c-1.533-3-2.133-6.7-1.8-11.1zm11.6.9c-.267 3.8.233 6.567 1.5 8.3 1.267 1.8 3.1 2.767 5.5 2.9 2.533.2 4.533-.467 6-2s2.367-4.367 2.7-8.5c.267-3.533-.267-6.167-1.6-7.9-1.267-1.733-3.133-2.7-5.6-2.9-2.333-.2-4.267.5-5.8 2.1-1.533 1.533-2.433 4.2-2.7 8zm32.2 21.2l2.8-37.5 19.3 1.4c3.6.267 6.333.8 8.2 1.6 1.8.733 3.233 1.967 4.3 3.7 1 1.733 1.433 3.8 1.3 6.2-.2 2.067-.8 3.833-1.8 5.3s-2.3 2.6-3.9 3.4c-1 .533-2.4.933-4.2 1.2 1.4.533 2.367 1.067 2.9 1.6.467.333 1.067 1.033 1.8 2.1s1.2 1.867 1.4 2.4l4.8 11.3-13.1-1-5.3-11.9c-.667-1.533-1.3-2.533-1.9-3a4.72 4.72 0 0 0-2.8-1.1l-1-.1-1.1 15.2-11.7-.8zm13.3-21.4l4.8.4c.533 0 1.6-.1 3.2-.3a3.52 3.52 0 0 0 1.9-1c.533-.6.833-1.333.9-2.2.067-1.2-.233-2.133-.9-2.8-.733-.733-2.167-1.167-4.3-1.3l-5.1-.4-.5 7.6z" class="P"/></g><g class="K"><path d="M505.5 343.8l2.5-34.2 23.1 1.7-.3 4-18.5-1.3-.8 10.5 16 1.2-.3 4.1-16-1.2-1.2 15.5-4.5-.3z"/><path d="M534.3 329.2c.4-5.667 2.267-10 5.6-13 3.267-3 7.3-4.333 12.1-4 3.2.267 6 1.233 8.4 2.9 2.4 1.733 4.167 4 5.3 6.8s1.6 5.9 1.4 9.3c-.267 3.467-1.2 6.533-2.8 9.2-1.6 2.6-3.767 4.5-6.5 5.7a15.88 15.88 0 0 1-8.4 1.5c-3.2-.2-6.033-1.167-8.5-2.9-2.4-1.8-4.167-4.067-5.3-6.8a20.35 20.35 0 0 1-1.3-8.7zm4.7.4c-.333 4.133.533 7.467 2.6 10 2 2.533 4.7 3.933 8.1 4.2 3.4.2 6.267-.8 8.6-3 2.4-2.267 3.767-5.6 4.1-10 .2-2.733-.1-5.2-.9-7.4-.8-2.133-2.033-3.833-3.7-5.1-1.733-1.267-3.733-2-6-2.2-3.2-.2-6.033.7-8.5 2.7-2.467 2.067-3.9 5.667-4.3 10.8zm32.7 19.1l2.5-34.2 15.2 1.1c3.067.267 5.367.767 6.9 1.5s2.7 1.9 3.5 3.5c.867 1.667 1.233 3.433 1.1 5.3-.2 2.4-1.133 4.367-2.8 5.9-1.733 1.6-4.233 2.5-7.5 2.7 1.133.667 2 1.3 2.6 1.9 1.2 1.267 2.333 2.867 3.4 4.8l5.2 9.8-5.7-.5-4-7.4c-1.133-2.2-2.1-3.867-2.9-5-.733-1.133-1.433-1.933-2.1-2.4-.667-.533-1.333-.9-2-1.1-.533-.133-1.367-.267-2.5-.4l-5.3-.3-1.1 15.1-4.5-.3zm6-18.7l9.7.7c2.067.133 3.7.033 4.9-.3s2.133-.933 2.8-1.8c.667-.933 1.033-1.933 1.1-3 .133-1.667-.333-3.067-1.4-4.2-1.133-1.133-2.967-1.767-5.5-1.9l-10.8-.8-.8 11.3zm28.2 21.3l2.6-34.2 12.8.9c2.6.2 4.667.7 6.2 1.5a8.07 8.07 0 0 1 3.5 3.5c.8 1.467 1.133 3 1 4.6-.133 1.467-.633 2.8-1.5 4-.867 1.267-2.133 2.233-3.8 2.9 2 .733 3.5 1.9 4.5 3.5 1 1.533 1.433 3.3 1.3 5.3-.133 1.6-.567 3.067-1.3 4.4-.8 1.267-1.733 2.267-2.8 3-1.067.667-2.367 1.133-3.9 1.4s-3.367.3-5.5.1l-13.1-.9zm4.8-3.7l8.5.7h3.1c1.067-.067 1.967-.3 2.7-.7s1.367-1 1.9-1.8c.467-.8.767-1.733.9-2.8.067-1.267-.2-2.4-.8-3.4a5.35 5.35 0 0 0-2.5-2.2c-1.133-.467-2.8-.767-5-.9l-7.9-.6-.9 11.7zm1.2-15.8l7.4.5c2 .133 3.433.1 4.3-.1 1.2-.2 2.1-.7 2.7-1.5.667-.733 1.033-1.7 1.1-2.9.067-1.133-.133-2.133-.6-3-.467-.933-1.2-1.6-2.2-2s-2.7-.7-5.1-.9l-6.9-.5-.7 10.4z" class="P"/><path d="M638.8 353.7l2.5-34.2 4.5.3-2.5 34.2-4.5-.3z"/><path d="M651.3 354.6l2.5-34.2 11.8.9c2.667.2 4.667.5 6 .9 1.933.6 3.567 1.567 4.9 2.9 1.667 1.667 2.867 3.7 3.6 6.1.733 2.467.967 5.2.7 8.2-.2 2.6-.667 4.9-1.4 6.9-.733 1.933-1.633 3.533-2.7 4.8s-2.167 2.233-3.3 2.9c-1.2.667-2.633 1.133-4.3 1.4-1.6.267-3.433.3-5.5.1l-12.3-.9zm4.8-3.7l7.3.6c2.267.133 4.067.067 5.4-.2 1.333-.333 2.4-.867 3.2-1.6 1.133-1 2.067-2.367 2.8-4.1.733-1.8 1.2-4 1.4-6.6.267-3.533-.1-6.3-1.1-8.3-1.067-2-2.4-3.4-4-4.2-1.2-.533-3.133-.933-5.8-1.2l-7.2-.5-2 26.1zm29.7 6.3l2.5-34.2 11.8.9c2.667.2 4.7.5 6.1.9 1.867.6 3.467 1.533 4.8 2.8 1.667 1.667 2.867 3.733 3.6 6.2.733 2.4.967 5.133.7 8.2-.2 2.6-.667 4.867-1.4 6.8-.733 2-1.633 3.633-2.7 4.9-1.067 1.2-2.167 2.133-3.3 2.8-1.2.667-2.6 1.133-4.2 1.4-1.667.267-3.533.333-5.6.2l-12.3-.9zm4.8-3.7l7.3.6c2.267.133 4.067.033 5.4-.3s2.4-.833 3.2-1.5c1.133-1 2.067-2.4 2.8-4.2.733-1.733 1.2-3.9 1.4-6.5.267-3.6-.1-6.4-1.1-8.4-1.067-2-2.4-3.367-4-4.1-1.2-.6-3.133-1-5.8-1.2l-7.2-.5-2 26.1z" class="P"/><path d="M720.4 359.8l2.5-34.2 24.7 1.8-.3 4-20.2-1.5-.7 10.5 18.9 1.4-.3 4-18.9-1.4-.9 11.7 21 1.5-.3 4.1-25.5-1.9zm31.7 2.3l2.5-34.2 4.7.4 16 28.2 2-26.9 4.3.3-2.6 34.2-4.6-.3-16-28.2-2 26.8-4.3-.3zm-412.3-15.2l.7 3.9.8 4.2 1.7 8.3c1.2 5.6 2.6 11 4.2 16.4a149.35 149.35 0 0 0 2.6 7.7c.9 2.6 1.9 5.1 3 7.4 2.2 4.8 4.6 9.1 7.3 12.5l-5.4-3.6c1.3.7 2.5 1.2 4.5 1.1s4.7-.9 7.5-2.2c2.8-1.4 5.7-3.2 8.6-5.4 1.4-1 2.9-2.1 4.3-3.3.733-.6 1.433-1.2 2.1-1.8l2-1.7 1.1-.9c3.2-2.5 7.9-2 10.4 1.2 1.8 2.3 2.1 5.3 1 7.8-.6 1.2-1 2.2-1.6 3.2l-1.6 3c-1.2 2-2.4 3.9-3.7 5.8-2.7 3.8-5.9 7.3-9.8 10.6-1.9 1.7-4.1 3.2-6.4 4.6-2.4 1.4-5 2.6-8 3.5-2.9.9-6.1 1.5-9.5 1.5-3.3 0-6.7-.5-9.9-1.4-1.8-.6-3.4-1.6-4.7-2.8l-.7-.8c-5.6-5.7-9.7-11.8-13-17.9-3.4-6.2-6.1-12.5-8.3-18.8-2.3-6.3-4-12.6-5.5-19-.8-3.2-1.5-6.4-2-9.6l-.8-4.8-.6-5.2c-.9-8.2 5-15.6 13.2-16.5 8-.9 15.1 4.6 16.4 12.3l.1.7z"/></g><path d="M383.3 389.3c-4.2 1.3-9.1 6.2-7.6 11.9 1.6 5.7 18.7 10.1 19.2-.3-4.9-9.8-11.6-11.6-11.6-11.6z" class="N"/><path d="M381.1 394.8l1.8-2.7 18.7-5.1s2.7 11.9-10.8 16.4c-.9.4-2 .2-2.9-.2l-5.4-2.8c-2-1.1-2.7-3.6-1.4-5.6z" class="Q"/><path d="M240.2 326.6c23.8-4.3 56.2-5.2 79.7-1.1 11.9 2 20.3 12.8 19.2 24.9l-3.9 39.7c1.1 27.1-1.2 72.4-1.2 81.9l-99.4 1.4c-4.4-12.4-3-68.1-10.7-124.3-1.5-10.7 5.6-20.6 16.3-22.5z" class="K"/><path d="M291.2 472.1l-2-.2c5.6-44.5.1-119.1 0-119.8l2-.2c0 .8 5.7 75.5 0 120.2z" class="M O"/><path d="M300.2 327.7c-3.9-1-.4-5.1-.4-5.1s17.8 0 30.1 2.5c1.9 1.4-.2 3.3-.2 3.3s-17.9 2.5-29.5-.7z" class="L"/><path d="M294.6 322s5.9 11.9-2 22.6c6.2.1 12 4 12 4s2.8-10.1-5.1-25.5c-.9-1.5-4.9-1.1-4.9-1.1z" class="M O"/><path d="M300.9 327.8c1.5 7.2-11.9 20.8-11.9 20.8s-23.7-12.4-25.2-19.5l37.1-1.3z" class="L"/><path d="M238.7 361.8c2.6 5.1-.5 26.1-10 36.5-.6-9.2-1.4-18.7-2.4-28.5l12.4-8z" class="M O"/><path d="M266.3 290.7l26.9 12.9c-2.8 7.6-4.2 15.6 3.8 19.3 4.5 2.2 6.5 8.1 3.8 12.6-2.3 3.8-6.2 7.1-12.2 7.7-9.3 1-18.5-5-23.9-10.6-2.2-2.4 0-5.1.3-8.3 1-11.5 2.8-23.4 1.3-33.6z" class="Q"/><path d="M278.7 293.3l14.5 10.3c-.8 2.2-1.5 4.4-1.9 6.6-5.9 1.9-15.4-3.3-15.6-8.5 0-2.6 2.4-7.2 3-8.4z" class="M O"/><path d="M297.5 247.3c5.2 4.2 11 22.8 3.5 30.4-11.1-12.9-12.4-32.4-3.5-30.4z" class="K"/><path d="M258.9 268.9c2 16 2.4 25.4 11 33 13 11.5 32.3 2.7 35.1-13.6 2.5-14.7-1.3-38.3-17.4-43.5-15.8-5.1-30.8 8.2-28.7 24.1z" class="Q"/><path d="M259.4 282.7c7.5.5 10.2-17.8 5.5-28.1 3.2 1.4 12.6 0 15.2-4.3 15.1 4.3 20.7 4.4 22.6-1.8 2-6.2-21.8-11.7-35.5-8.8-13.7 3-9.7 12.9-9.7 12.9s-23.2 7.5 1.9 30.1z" class="K"/><path d="M253.9 283.9c2.3 3.6 5.7 5.8 8.8 6.6 4.7 1.1 6.3-3.6 4.4-8.3-1.7-4.2-6.2-9.9-10.6-8.9-4.3 1-5.3 6.4-2.6 10.6z" class="Q"/><path d="M280.2 271.6c.1 1.3.8 2.3 1.7 2.2.8 0 1.5-1.2 1.4-2.5s-.9-2.3-1.7-2.2c-.9.1-1.5 1.2-1.4 2.5zm17.7-1.5c.1 1.3.8 2.4 1.7 2.3.8-.1 1.5-1.2 1.4-2.5s-.9-2.3-1.7-2.2c-.9 0-1.5 1.1-1.4 2.4z" class="K"/><path d="M295 271.5s3.5 7.3 7 10.7c-2.2 2.3-6.2 1.6-6.2 1.6l-.8-12.3z" fill="#a02724"/><path d="M286.9 261.3c.133.067.2.167.2.3.1.4-.2.8-.6.9-4.1 1-6.7-1.4-6.8-1.5-.4-.3-.4-.8-.1-1.1s.8-.3 1.1 0c.1.1 2.2 1.9 5.5 1.1.3 0 .5.1.7.3zm3.3 3.7c-.133-.067-.233-.133-.3-.2-.2-.4-.1-.9.2-1.1 3.7-2.2 6.9-.7 7.1-.6.3.2.5.6.3 1s-.6.6-1 .4c-.1-.1-2.6-1.2-5.6.5-.2.2-.5.2-.7 0zm14.9-7.2c-.2 0-.5 0-.7-.2-2.6-2.1-5.2-1.3-5.3-1.3-.4.1-.9-.1-1-.5s.1-.8.5-1c.2 0 3.6-1.1 6.8 1.6.3.3.4.8.1 1.1-.067.133-.2.233-.4.3zM392.3 457c-.9-1.6-2.9-2.2-4.5-1.3l-24.5 13.2-11.5-21.4c-.9-1.6-2.9-2.2-4.5-1.4-1.7.9-2.3 3-1.4 4.6l11.6 21.4-84.3 45.5c-1.7.9-2.3 2.9-1.4 4.5.9 1.7 2.9 2.3 4.5 1.4l114.7-62c1.6-.8 2.2-2.9 1.3-4.5z" class="K"/><path d="M390.5 569.5c-39.9-30-163.1-42.1-120.6-96.9l64.1-.6s90 46.2 94.9 94.5l13.9 129.4-24.8 8.8s-36.2-97-27.5-135.2z" class="L"/><path d="M272.1 500.1c-1.467 3.2-2.833 6.567-4.1 10.1 10 11.3 29.7 20 50.9 28.1-6.5-11.6-21-24.4-46.8-38.2z" class="M O"/><g class="K"><path d="M418.3 713.5l25.6-6.6c1.6-.4 3.3-.5 4.9.2 9 4.1 14.7 2.9 23.5 2.3 10.6-.6 8.3 10.8.8 12.7-12.3 3.2-11.4 2.5-21.9 5.2-2.4.7-7.3 1.9-7.3 1.9l-4.2-2.5-2 4-13.5 3.3c-1.5.4-3-.5-3.2-2.1l-2.7-18.4z"/><path d="M418.9 716c.4-.1 29.3-8.2 29.3-8.2l-4.5-22.2-32.1 8.7 7.3 21.7z"/></g><path d="M239.5 636.7c1.3-72.8-14.1-147-4.9-163.3l74.2-1s-22.2 121.5-28 170c-6.1 50.5-36 181.7-36 181.7l-24 .4s2.9-135.4 18.7-187.8z" class="L"/><g class="K"><path d="M219.9 828.4l22.1-.4c1.6 0 3.3.4 4.7 1.4 7.9 6.1 8.9 6.3 17.6 7.8 10.5 1.9 5.8 12.4-1.9 12.5-12.7.2-11.7-.3-22.5-.1l-11.8.1-1.7-3.5-1.9 3.5h-3.1c-1.5 0-2.8-1.3-2.7-2.8l1.2-18.5z"/><path d="M219.8 831c.4-.1 27.7 1.2 27.7 1.2l1.9-24.9-29.7.8.1 22.9z"/></g><path d="M293.6 320.6s6.9 13.3-1 24c6.2.1 13.1 2.8 13.1 2.8s5.6-13.5-6.7-25.6c-.9-1.5-5.4-1.2-5.4-1.2z" class="N"/><use href="#A" class="K"/><use href="#A" class="M O"/><path d="M292.4 486.6c-3.8 0-7.3-.5-7.5-.5l-1.7-.2v-1.7c-.1-.5-.3-10.8.3-19.1l.1-1.7 1.6-.2c7.6-.8 14.9-.3 15.2-.2l1.8.1.1 1.8c0 .4.5 11.7-.7 19.1l-.2 1.2-1.1.4c-2.2.7-5.1 1-7.9 1zm-5.3-4.3c2.9.3 7.7.5 10.7-.2.7-5.2.6-12 .5-15.2-2.3-.1-6.5-.2-10.9.2-.4 5.7-.3 12.2-.3 15.2z" class="N P"/><path d="M253.8 465.6s-.5 11.2-1.4 18.4c-1.5 1.6-4.5.4-4.5.4l1.3-18.5c2.4-.8 4.6-.3 4.6-.3zm73.3 0s-.6 11.2-1.4 18.4c-1.6 1.6-4.5.4-4.5.4l1.3-18.5c2.4-.8 4.6-.3 4.6-.3zm-23.2-101.2c1.1 14.4 10.3 17.7 11.6 17.6 1.3 0 10-3.6 8.9-18.1-3.6.1-7.1-1.5-10.5-3.9-2.9 2.8-6.1 4.3-10 4.4z" class="L"/><path d="M302 246c10.3 1.7 14.2 6.5-9 9.3-23.1 2.8-40.3.6-40.3.6s30.9-10 49.3-9.9z" class="K"/><path d="M250.8 257.2s20.2-6.9 51.9-10.6c.5-6.4-4.5-11-4.5-11s11.7-2.1 5.9-5.5c-4-2.4-13.5-2.6-24.1-9.4-4.3 3.9-16.2 10.4-24.3 11.2-2.1 3.4-7.3 12-15.8 15.3.1 3.8 8.6 4.8 8.6 4.8s-.4 2.5 2.3 5.2z" class="L"/><path opacity=".8" d="M248.5 252c17.2-11.2 33.7-16.1 49.7-16.4 0 0 5 4.6 4.5 11-31.7 3.7-51.9 10.6-51.9 10.6-2.7-2.7-2.3-5.2-2.3-5.2z" class="K"/><path d="M279 232.5c2 9.8 9 11.6 9.9 11.6.9-.1 6.9-3 5-12.8-2.7.2-5.4-.7-8-2.2-1.9 2-4.1 3.2-6.9 3.4z" class="N"/><path d="M290.7 263.2c2.3.4 6 17.5-5.9 18.4-10 .8-13.1-8.4-13.1-11.6 0-4.8 15.8-7.2 19-6.8zm5-.2c-1.4.9 1.8 19.2 10.1 17.3 7-1.7 5.9-11.6 4.7-14.8-1.7-4.8-12.7-3.7-14.8-2.5z" class="K"/><g class="N O"><path d="M286.5 263.4l6.2 11.4c-.5 2.1-1.6 4.1-3.4 5.4l-8.6-15.7c2-.5 4.1-.9 5.8-1.1zm-8.3 1.8l8.8 16.1c-.667.2-1.4.3-2.2.3a9.84 9.84 0 0 1-1.4.1l-8.4-15.3c.9-.4 2-.8 3.2-1.2zm27.6-2.9l5.5 10.1c-.1 1.7-.5 3.4-1.3 4.9l-8.4-15.3c1.4-.1 2.9 0 4.2.3zm3.1 16.3c-.467.533-1.067.933-1.8 1.2l-9.5-17.4c.667-.133 1.4-.233 2.2-.3l9.1 16.5z"/></g><g class="P"><use href="#B" class="L"/><use href="#B" class="M O"/></g><path d="M364.1 396.4l-38.7 16.2c-1.4.6-2 2.1-1.5 3.5l1.6 4.4c.5 1.4 2.1 2.2 3.6 1.6l38.7-16.3c1.4-.6 2-2.1 1.5-3.4l-1.5-4.4c-.6-1.5-2.2-2.2-3.7-1.6z" class="L"/><path d="M388.8 381.2l1.3-.4c3.5-.9 7.2.2 9.5 2.9l1.2 1.4c1.4 1.6.8 4-1.1 4.8l-13.2 5.4c-1.6.7-3.4-.1-4-1.7-2-5.2.9-10.9 6.3-12.4z" class="Q"/><path d="M249.2 353.6l-1 1.2-1.2 1.4-2.3 3-4.7 6.1c-3.067 4.133-6.033 8.4-8.9 12.8-3 4.3-5.6 8.8-8.3 13.3-2.667 4.533-5.167 9.133-7.5 13.8l-1.8 3.5-.4.8c-.067.133-.133.233-.2.3-.1.2-.2.4-.3.7-.4 1.1-.8 2.7-.9 4.7-.3 3.8.2 8.6 1.1 13.5 1.8 9.7 5.2 20.2 8.5 30.1l.2.4c1.3 3.9-.8 8.2-4.7 9.5-3.1 1.1-6.4 0-8.3-2.5-3.8-4.8-6.9-9.6-9.9-14.7-3-5.2-5.7-10.5-7.9-16.3-2.2-5.9-4.1-12-4.7-19.3-.3-3.6-.3-7.5.7-11.9.2-1 .4-2.1.8-3.3l.6-1.6.4-1.1 1.6-4.1c4.3-11 9.6-21.6 15.7-31.7 3.1-5.1 6.3-10 9.8-14.8 1.8-2.4 3.6-4.8 5.5-7.1.9-1.2 1.9-2.4 2.9-3.5l1.5-1.8 1.8-1.9c5.6-6.1 15.1-6.5 21.2-.9 5.9 5.5 6.4 14.6 1.3 20.7l-.6.7z" class="K"/><path d="M264.9 329.3c4-1.4-1.1-5.7-1.1-5.7s-21.2.6-33.8 4c-1.9 1.8.2 3.9.2 3.9s22.7 2 34.7-2.2z" class="L"/><path d="M264.5 323.2s3.2 11.8 17.5 21.5c-6.3 0-15.1 6.2-15.1 6.2s-8.3-10.5-5.4-26.8c.9-1.5 3-.9 3-.9z" class="M O"/><path d="M265 321s3.7 12.8 17 23.7c-6.3 0-15.6 3.1-15.6 3.1s-7.8-7.4-4.9-23.7c.9-1.5 3.5-3.1 3.5-3.1z" class="N"/><path d="M219.2 457.9l12.5 10.7-16.5 10.7s-10.1-11-5.1-17.3l9.1-4.1z" class="Q"/><path d="M208.4 466.9s-2.6-2-3.4-4.4c4-4.1 12-7.4 15.6-8.4 2.2 2.1 2.3 6.4 2.3 6.4s-10.6 1.8-14.5 6.4z" class="N"/><path d="M233.1 485.6l-6.4 2.8c-2.6 1.1-5.6.2-7.1-2.2l-4.4-6.9 16.5-10.7 4.3 9.4a5.75 5.75 0 0 1-2.9 7.6z" class="Q"/><path d="M283 289.2c6.9-4.3 13-1.5 13.2-1.4.3.1.4.4.3.7-.1.2-.4.3-.7.2 0 0-5.8-2.6-12.2 1.3-.3.2-.6.1-.7-.2-.2-.2-.1-.5.1-.6z" class="K"/><path d="M250.3 364.1l27-1-.1-2.2-27 1 .1 2.2z" class="N"/><use href="#C" class="L"/><use href="#C" opacity=".4" class="M"/><path d="M426.7 852h4.7l38.1-302.3h-4.7L426.7 852z" class="K"/><use href="#C" x="195.3" class="L"/><use href="#C" x="195.3" opacity=".4" class="M"/><path d="M622 852h4.7l38.1-302.3h-4.7L622 852z" class="K"/><path d="M532.2 816h190l-8.3-65.8H524l8.2 65.8z" class="L"/><path d="M532.2 816h-3.1l-8.3-65.8h3.2l8.2 65.8z" class="K"/><path d="M711.7 753.1l7.6 60.1H708l-30.1-60.1h33.8zm-52.9 0l30.1 60.1h-41.2l-30.1-60.1h41.2zm-60.4 0l30.2 60.1h-41.3l-30.1-60.1h41.2zm-60.3 0l30.1 60.1h-33.8l-7.5-60.1h11.2z" class="N"/><path d="M704 852h52.4l-38.1-302.3h-52.4L704 852z" class="L"/><path d="M682.9 684.4L738 706l-15.8-125.5h-52.4l13.1 103.9z" class="M O"/><path d="M704 852h-4.7l-38.1-302.3h4.7L704 852z" class="K"/><path d="M508.7 852h52.4L523 549.7h-52.4L508.7 852z" class="L"/><path d="M487.6 684.4l55.1 21.6-15.8-125.5h-52.4l13.1 103.9z" class="M O"/><path d="M508.7 852H504l-38.1-302.3h4.7L508.7 852z" class="K"/><path d="M466.7 670.4h285.9l-12.4-99.1h-286l12.5 99.1z" class="L"/><path d="M466.7 670.4H462l-12.5-99.1h4.7l12.5 99.1z" class="K"/><path d="M736.9 575.6l11.4 90.5h-16.9L686 575.6h50.9zm-79.7 0l45.4 90.5h-62.1l-45.4-90.5h62.1zm-90.9 0l45.4 90.5h-62.1l-45.3-90.5h62zm-90.8 0l45.3 90.5h-50.9l-11.3-90.5h16.9z" class="N"/><defs><path id="A" d="M231.9 481.1c35.5 2.1 76.2 2.7 101.6-.1.3 0 .6-.2.7-.5 1.6-3.3 2.4-8.9 2.2-13.6 0-.7-.5-1.2-.9-1.2-33.6 1.3-67 1.2-102.1 0-.4-.1-.8.3-.9.8-1.2 4.1-1.8 8.6-1.5 13.3 0 .7.4 1.2.9 1.3z"/><path id="B" d="M403.4 379.1l.2 3.6 3.2-1.4c.7-.3 1.7 2.2 1.1 2.5l-44 18.5c.4.9-.1 2-1 2.4l-81.6 34.2c.2.7-.1 1.4-.8 1.6l-5.8 2.5c-.6.2-1.3 0-1.7-.6l-3.4 1.4c.1.2.1.3.2.4 2.2 5.4-.3 11.5-5.7 13.8-4.9 2.1-10.5.1-13.1-4.4l-9.2 10.3-.5 5.3c-.3 2.5-1.4 4.8-3.2 6.5l-42.8 41.2c-3.8 3.6-10 3-12.9-1.4-3-4.6-5.5-10.2-7.3-17.3-1-3.6.6-7.4 3.8-9.3l42.3-25.6h1.2c4.4.1 8.1-3.3 8.5-7.7l8.2-9.2c3-3.3 6.7-5.9 10.8-7.7l18.4-7.7c-.2-.6.1-1.3.7-1.5l5.9-2.5c.6-.2 1.3 0 1.6.6l139.9-58.7c1-.4 2.7 3.6 1.7 4.1l-14.7 6.1zM267.7 445c0-.133-.033-.267-.1-.4l-11.1 4.7c.333.333.733.667 1.2 1 1.7 1.4 3.9 2 6.1 1.7l.3 2.2c-2.8.4-5.6-.4-7.8-2.1-.7-.6-1.3-1.3-1.9-2l-.6.3-1.2 1.4c1.9 3.9 6.6 5.8 10.7 4.1 4.2-1.8 6.2-6.7 4.4-10.9zm131.7-64.2l-37.9 15.8 1.3 3.1 36.8-15.4-.2-3.5z"/><path id="C" d="M483.8 852h-52.4l38.1-302.3h52.3l-38 302.3z"/></defs></svg>