<svg xmlns="http://www.w3.org/2000/svg" width="1000" height="1000" fill="none"><style><![CDATA[.N{fill:#27debf}.O{fill:#263238}.P{fill:#000}.Q{fill:#37474f}.R{fill-rule:evenodd}.S{opacity:.1}.T{fill:#455a64}.U{opacity:.2}.V{opacity:.3}.W{fill:#fff}.X{fill:#f28f8f}.Y{opacity:.5}.Z{fill:#ffa8a7}]]></style><path d="M0 0h1000v1000H0z" class="W"/><path d="M174.15 899.729c-180.2-87.6-180.2-229.5 0-317.1 180.1-87.6 472.3-87.5 652.4 0 180.2 87.6 180.2 229.5 0 317.1-180.1 87.6-472.3 87.6-652.4 0z" fill="#f5f5f5"/><g fill="#e6e6e6"><path d="M304.65 850.629c-1.9 0-3.6-1.4-4-3.3l-.9-4.8c-2.133-.4-4.167-.9-6.1-1.5h-.2l-8.5 3.9c-.6.3-1.3.4-2 .4-.8 0-1.7-.2-2.4-.6l-8.5-4.9c-1-.6-1.7-1.6-1.7-2.8-.1-1.1.5-2.2 1.4-2.9l5.2-3.7-1.3-2-10.8-.6c-2-.2-3.6-1.9-3.6-3.9v-6.3c0-2.1 1.6-3.8 3.6-3.9l10.8-.7c.4-.667.833-1.3 1.3-1.9l-5.2-3.7c-.9-.7-1.5-1.8-1.4-2.9 0-1.2.7-2.2 1.7-2.8l8.5-4.9c.7-.4 1.6-.7 2.4-.7.7 0 1.4.2 2 .5l8.5 3.9h.1 0a60.14 60.14 0 0 1 6.2-1.5l.9-4.8c.4-1.9 2.1-3.3 4-3.3h12.5c1.9 0 3.6 1.4 3.9 3.3l.9 4.8a60.14 60.14 0 0 1 6.2 1.5h.1l8.5-3.9c.6-.3 1.3-.5 2-.5.9 0 1.7.3 2.4.7l8.5 4.9c1.1.6 1.7 1.6 1.8 2.8 0 1.1-.5 2.2-1.5 2.9l-5.1 3.7a11.32 11.32 0 0 1 1.2 1.9l10.8.7c2.1.1 3.7 1.8 3.7 3.9v6.3c0 2-1.6 3.7-3.7 3.9l-10.8.6c-.333.667-.733 1.333-1.2 2l5.1 3.7c1 .7 1.5 1.8 1.5 2.9-.1 1.2-.7 2.2-1.8 2.8l-8.5 4.9c-.7.4-1.5.6-2.4.6-.7 0-1.4-.1-2-.4l-8.5-3.9h-.1v-.1c-1.933.667-4 1.2-6.2 1.6l-.9 4.8c-.3 1.9-2 3.3-3.9 3.3h-12.5zm6.2-38.8c-4.9 0-9.5 1.1-13 3-2.9 1.7-4.5 3.9-4.5 5.9 0 2.1 1.6 4.3 4.5 5.9 3.5 2 8.1 3.1 13 3.1s9.5-1.1 13-3.1c2.9-1.6 4.5-3.8 4.5-5.9 0-2-1.6-4.2-4.5-5.9-3.5-1.9-8.1-3-13-3zm90.8-17c-1.2 0-2.4-.5-3.2-1.4l-3.4-3.6-2.5.1c-.8 0-1.633-.033-2.5-.1l-3.6 3.8c-.7.8-1.7 1.2-2.9 1.2-.333 0-.7-.067-1.1-.2l-8.4-2c-1.1-.3-2-1-2.5-1.9-.4-.9-.3-1.9.1-2.8l1.3-2.6c-.733-.4-1.4-.833-2-1.3l-8 1.4h-.6c-1.3 0-2.6-.7-3.4-1.8l-3.1-4.4c-.467-.667-.7-1.333-.7-2 0-1.5.9-2.7 2.2-3.2l6.2-1.9c-.067-.067-.1-.167-.1-.3l-5.9-1.9c-1.4-.4-2.4-1.6-2.5-3v-.1-.1c0-.6.2-1.3.6-1.8l3.5-4.9c.7-.9 1.9-1.5 3.2-1.5.267 0 .5.033.7.1l7.9 1.3a11.69 11.69 0 0 1 1.8-1.1l.2-.2-1.2-2.4c-.2-.4-.4-.9-.4-1.4v-.4-.3c.2-1.3 1.1-2.4 2.5-2.8l8.8-2.1c.267-.067.567-.1.9-.1 1.1 0 2.3.6 3.1 1.4l3.4 3.6 2.6-.1 2.4.1 3.6-3.8c.7-.7 1.8-1.2 2.9-1.2.4 0 .767.067 1.1.2l8.4 2c1.6.4 2.8 1.7 2.8 3.2a3.53 3.53 0 0 1-.3 1.4l-1.4 2.7c.067.067.167.133.3.2.6.333 1.167.7 1.7 1.1l8-1.3a1.88 1.88 0 0 1 .6-.1c1.3 0 2.6.7 3.4 1.8l3.2 4.4c.4.6.6 1.3.7 2v.3l-.1.3c-.2 1.2-1 2.2-2.2 2.6l-6.1 1.9v.3l5.9 1.9c2.1.6 3.1 3.1 1.9 5-1 1.6-2.2 3.1-3.3 4.6-.067.067-.133.167-.2.3-.7.9-1.9 1.5-3.2 1.5-.267 0-.5-.033-.7-.1l-7.8-1.3a22.19 22.19 0 0 1-2.1 1.3l1.2 2.5c.5.9.6 2 .1 3-.4.9-1.2 1.6-2.3 1.8l-8.7 2.1a3.27 3.27 0 0 1-.8.1zm-21.2-21.3c.3.6.9 1.2 1.6 1.7.333.267.667.5 1 .7 1.2.667 2.633 1.2 4.3 1.6a22.21 22.21 0 0 0 5.2.6c3.6 0 7-.8 9.5-2.2.333-.2.667-.433 1-.7.667-.467 1.167-.933 1.5-1.4.8-1.1.9-2.1.3-3.2 0 0-.2-.2-.2-.3-.067-.067-.133-.167-.2-.3l-.2-.2-.1-.1v-.1l-.1-.1c-1.4-1.4-3.6-2.4-6.2-3.1a23.49 23.49 0 0 0-5.3-.6c-5.2 0-10.2 1.8-12 4.4-.9 1.2-.7 2.1-.5 2.7l.1.2.3.4z" class="R"/><path d="M515.95 832.329l71.8-41.5c2.1-1.2 2.1-3.2 0-4.4l-17.6-10.2c-2.1-1.2-5.6-1.2-7.7 0l-71.7 41.5c-2.2 1.2-2.2 3.2 0 4.4l8.7 5.1-90 52c-2.1 1.2-1.2 1.6-.3 2.2 1 .6 1.8 1.1 3.9-.1l90.1-52 5.1 3c2.2 1.2 5.6 1.2 7.7 0zm-27-79.6c-6.1 0-11.8-1.3-16.1-3.9-.467-.267-.933-.567-1.4-.9l-2.7-1.8 22.6-3.4 2-4.2-6.1-3.6-21.5 3.2.7-2.1c1-2.7 3.3-5.2 6.6-7.1 4.3-2.4 9.9-3.7 15.8-3.7 2.533 0 4.967.233 7.3.7l73.6-42.5c-.9-2-1.1-4-.6-6 .8-3 3.1-5.8 6.8-7.9 4.3-2.4 9.9-3.7 15.8-3.7 6.1 0 11.8 1.4 16.1 3.9a11.28 11.28 0 0 1 1.5.9l2.6 1.9-22.6 3.3-2 4.2 6.1 3.6 21.5-3.1-.7 2c-1 2.7-3.3 5.2-6.6 7.1-4.3 2.4-9.9 3.7-15.8 3.7-2.467 0-4.9-.2-7.3-.6l-73.6 42.5c.9 1.9 1.1 3.9.6 5.9-.7 3-3.1 5.8-6.8 7.9-4.3 2.4-9.9 3.7-15.8 3.7zm366.1-13.8c44.6 25.7 44.6 67.4 0 93.2-44.5 25.7-116.8 25.7-161.3 0-44.6-25.8-44.6-67.5 0-93.2 44.5-25.7 116.8-25.7 161.3 0zm-568.6-114.9l124.2 71.7 115.7-67.1-124.1-71.6-115.8 67zm-47.1 173.6l167.4-96.6-146.5-84.6-167.3 96.7 146.4 84.5z"/></g><g class="N"><path d="M410.55 690.329l-117.5-67.8v-5.1l108-62.4 117.5 67.8v5.2l-108 62.3z"/><use href="#A"/></g><use href="#A" class="P S"/><path d="M439.75 645.729c2.1 1.2 5.7 1.2 7.8 0 2.2-1.3 2.2-3.3 0-4.6-2.1-1.2-5.7-1.2-7.8 0-2.2 1.3-2.2 3.3 0 4.6z" class="Q"/><path d="M410.55 685.229v5.1l-117.5-67.8v-5.1l117.5 67.8z" class="P V"/><g class="N"><path d="M257.05 215.429l130.9 75.6c2.4 1.4 4.4 4.8 4.4 7.6v397.6c0 2.8-2 6.2-4.4 7.6l-141.6 81.7c-2.4 1.4-6.3 1.4-8.8 0l-130.9-75.6c-2.4-1.4-4.4-4.7-4.4-7.5v-397.7c0-2.8 2-6.2 4.4-7.6l141.6-81.7c2.4-1.4 6.4-1.4 8.8 0z"/><use href="#B"/></g><use href="#B" class="P V"/><use href="#C" class="N"/><use href="#C" class="P S"/><path d="M376.65 566.829l-117.5 67.9v124.7l117.5-67.9v-124.7z" class="T"/><path d="M318.85 655.929c-.3-.2-.7-.1-1.2.1l-47.8 27.5c-.5.3-.9.8-1.2 1.3l-3.2-1.8a3.04 3.04 0 0 1 1.2-1.3l46.8-26.9c.9-.6 2.5-.6 3.4 0l2 1.1z" class="O"/><path d="M268.15 686.529v53.6c0 1.1.8 1.5 1.7 1l47.8-27.5c.9-.6 1.7-1.9 1.7-3v-53.6c0-1.1-.8-1.5-1.7-1l-47.8 27.5c-1 .6-1.7 1.9-1.7 3z" class="Q"/><path d="M268.55 741.229l-1.9-1.2c-1-.5-1.7-1.9-1.7-2.9v-52.4c0-.6.2-1.2.5-1.7l3.2 1.8c-.3.6-.5 1.2-.5 1.7v53.6c0 .5.2.9.4 1.1z" class="O"/><g class="N"><path d="M271.95 736.229c-.133 0-.267-.033-.4-.1-.3-.1-.4-.5-.4-.9l-.1-47.6c0-.7.6-1.7 1.3-2.1l42.6-24.5c.4-.2.7-.2 1 0 .3.1.4.5.4.9v47.6c0 .7-.5 1.7-1.2 2.1l-42.6 24.5a1.88 1.88 0 0 1-.6.1zm43.6-74.8c-.133 0-.267.033-.4.1l-42.6 24.5c-.5.3-1 1-1 1.6l.1 47.6c0 .267.033.433.1.5.133.067.333.033.6-.1l42.6-24.5a2.04 2.04 0 0 0 .9-1.6v-47.6c0-.267-.033-.433-.1-.5h-.2zm-40.2 68.6c-.133 0-.233-.033-.3-.1-.133-.067-.2-.233-.2-.5v-40.4c0-.3.3-.8.5-1l36.5-20.9c.2-.133.367-.166.5-.1.2.134.3.3.3.5l-.1 40.5c0 .4-.2.8-.5 1l-36.4 20.9c-.133.067-.233.1-.3.1zm36.8-62.5h-.1l-36.4 21c-.1 0-.3.4-.3.5v40.4.1l36.4-20.9c.2-.1.3-.4.3-.6l.1-40.5z" class="R"/><use href="#D"/><path d="M285.75 672.829a.47.47 0 0 1-.5-.5v-11.4a.5.5 0 1 1 1 0v11.4a.47.47 0 0 1-.5.5zm8-4.6a.47.47 0 0 1-.5-.5v-11.4c0-.2.2-.4.5-.4.2 0 .5.2.5.4v11.4c0 .3-.3.5-.5.5zm7.9-4.5c-.2 0-.4-.3-.4-.5v-11.4c0-.3.2-.5.4-.5a.47.47 0 0 1 .5.5v11.4c0 .2-.2.5-.5.5z"/><use href="#D" x="31.9" y="-18.3"/></g><path d="M318.85 613.829c-.3-.2-.7-.2-1.2.1l-47.8 27.5c-.5.3-.9.8-1.2 1.3l-3.2-1.9c.3-.5.7-1 1.2-1.2l46.8-27c.9-.5 2.5-.5 3.4 0l2 1.2z" class="O"/><path d="M268.15 644.429v27c0 1.1.8 1.5 1.7 1l47.8-27.5c.9-.6 1.7-1.9 1.7-3v-27c0-1.1-.8-1.5-1.7-1l-47.8 27.5c-1 .6-1.7 1.9-1.7 3z" class="Q"/><path d="M268.55 672.529l-1.9-1.2c-1-.5-1.7-1.8-1.7-2.9v-25.9c0-.5.2-1.1.5-1.7l3.2 1.9c-.3.5-.5 1.1-.5 1.7v27c0 .5.2.9.4 1.1z" class="O"/><g class="N"><path d="M271.95 667.629c-.133 0-.267-.033-.4-.1-.3-.2-.4-.5-.4-1l-.1-21c0-.8.6-1.7 1.3-2.1l42.6-24.5c.4-.2.7-.2 1-.1.3.2.4.5.4 1v21c0 .8-.5 1.7-1.2 2.1l-42.6 24.5c-.2.133-.4.2-.6.2zm43.6-48.4c-.133 0-.267.033-.4.1l-42.6 24.6c-.5.3-1 1-1 1.6l.1 21c0 .267.033.433.1.5.133.067.333.033.6-.1l42.6-24.5a2.04 2.04 0 0 0 .9-1.6v-21c0-.267-.033-.433-.1-.5s-.133-.1-.2-.1zm-40.2 42.1c-.133 0-.233-.033-.3-.1-.133-.067-.2-.233-.2-.5v-13.8c0-.3.3-.8.5-1l36.5-21c.2-.067.367-.067.5 0 .2.067.3.233.3.5l-.1 13.9c0 .4-.2.8-.5 1l-36.4 20.9c-.133.067-.233.1-.3.1zm36.8-36l-.1.1-36.4 20.9c-.1.1-.3.5-.3.6v13.8.1l36.4-20.9c.2-.1.3-.4.3-.6l.1-13.9v-.1z" class="R"/><use href="#E"/><use href="#E" y="48"/><use href="#E" y="60.9"/><use href="#F"/><use href="#F" y="12.9"/><use href="#E" y="11.7"/><use href="#F" y="-50.5"/></g><path d="M359.45 614.529l-3.1-1.7.6-.9c.1-.1.3-.3.5-.2.4 0 .833-.067 1.3-.2.2 0 .3.1.4.3l.2 2.6c0 .067.033.1.1.1zm8.2-26.3c-.2-.1-.4-.1-.5.1l-2 3c0 .067-.033.1-.1.1-.133.067-.267.1-.4.1-.4 0-.833.067-1.3.2-.2 0-.3-.1-.4-.3l-.1-1.2-.1-1.4c0-.133-.033-.2-.1-.2h-.1-.1l-1.2.7-1 .6-.5.3c-.2 0-.3.2-.3.3-.067.067-.1.133-.1.2l-.2 3c0 .067-.033.133-.1.2 0 .1-.1.3-.2.3l-1.5 1.6-.2.2h-.4l-1.7-.6c-.067-.067-.133-.067-.2 0-.1 0-.2.1-.3.2l-.7 1.2-.7 1.2-.6 1v.3c0 .067.033.133.1.2l1.4 1.2c.133.067.2.2.2.4v.1l-.7 2.1c0 .133-.033.267-.1.4l-.2.2-2.5 1.7-.2.2c-.067.133-.1.233-.1.3v3.1c0 .133.033.2.1.2.067.067.133.067.2 0l1.2-.5 1.3-.5c.1-.1.3 0 .4.1.133.467.3.867.5 1.2a.9.9 0 0 1 .1.5c0 .067-.033.1-.1.1l-1.6 3.2c-.067.133-.067.267 0 .4l.1.1-.1-.1-3.8-2.2c-.2-.1-.2-.3-.1-.4l1.1-2.3-3.1-1.8c-.067-.067-.1-.133-.1-.2v-3.2c0-.067.033-.167.1-.3l.2-.2 2.4-1.7.2-.2.2-.4c.133-.667.333-1.367.6-2.1v-.1-.2c-.067-.067-.1-.133-.1-.2l-1.4-1.2-.2-.2c0-.133.033-.233.1-.3l.3-.5.8-1.5.9-1.4v-.1l.1-.1h.1.1.1l1.8.6h.3l.2-.2a16.09 16.09 0 0 1 1.5-1.5.76.76 0 0 0 .2-.4l.1-.1v-.1l.3-3v-.2l.1-.1c0-.067.033-.1.1-.1 0-.067.033-.1.1-.1l.8-.5 1.9-1.1h.1.1l1.3.8 1.8 1 1.5-2.1v-.1h.1c0-.067.033-.1.1-.1h.1c.067 0 .1.033.1.1l1.8 1 2.2 1.3zm0 0h-.1.1zm3.8 5.5c-.067 0-.133.033-.2.1l-2.4 1c-.1.1-.3 0-.4-.2a5.5 5.5 0 0 0-.5-1.1c-.1-.2-.1-.5-.1-.6l.5-1 3.1 1.8zm-5.9 5.3c0 2.9-2 6.4-4.5 7.9-2.4 1.3-4.3.4-4.6-2a2.55 2.55 0 0 1 .6-.3c2.5-1.5 4.5-5 4.5-7.9v-.7c2.3-.9 4 .3 4 3z" class="O R"/><path d="M359.45 590.529c-.067.067-.1.133-.1.2l-.2 3c0 .067-.033.133-.1.2l-4-2.3c0-.067.033-.1.1-.1v-.1l.3-3v-.2l4 2.3zm-2.3 5.5h-.4l-1.7-.6c-.067-.067-.133-.067-.2 0l-3.9-2.3h.1l1.8.6h.3l4 2.3zm-2.9 5.1l-4-2.3v-.2c-.067-.067-.1-.133-.1-.2l-1.4-1.2-.2-.2 4 2.3c0 .067.033.133.1.2l1.4 1.2c.133.067.2.2.2.4zm0 9.1c0 .067-.033.1-.1.1l-1.6 3.2c-.067.133-.067.267 0 .4l-3.8-2.2c-.2-.1-.2-.3-.1-.4l1.1-2.3.8.4c.067.067.133.067.2 0l1.2-.5 2.3 1.3zm5.1 4.2c0 .067.033.1.1.1l-3.1-1.7.6-.9c.1-.1.3-.3.5-.2.4 0 .833-.067 1.3-.2.2 0 .3.1.4.3l.2 2.6zm8.3-26.2c-.2-.1-.4-.1-.5.1l-2 3c0 .067-.033.1-.1.1l-1.1-.6-1.1-.6-.1-1.4c0-.133-.033-.2-.1-.2h-.1l-.8-.5 1.5-2.1v-.1h.1c0-.067.033-.1.1-.1s.133.033.2.1l1.8 1 2.2 1.3zm-14.2 15.5l-.2.2-2.5 1.7-.2.2-3.9-2.3.2-.2 2.4-1.7.2-.2 4 2.3z" class="P S"/><g class="R"><path d="M371.65 593.929v3.2c0 .1-.2.4-.3.5l-2.5 1.7c-.1.1-.3.4-.3.5-.2.733-.433 1.433-.7 2.1 0 .2 0 .5.2.6l1.4 1.2c.1.1.2.3.1.5l-2 3.4c-.1.2-.3.3-.5.2l-1.7-.6c-.2-.1-.5 0-.6.1-.467.6-.967 1.133-1.5 1.6l-.3.6-.2 3c0 .2-.2.4-.3.5l-2.7 1.6c-.2.1-.3 0-.4-.2l-.2-2.6c-.1-.2-.2-.3-.4-.3-.467.133-.9.2-1.3.2-.2-.1-.4.1-.5.2l-2 3c-.1.2-.3.2-.5.1l-1.7-1c-.2-.1-.3-.3-.2-.5l1.6-3.2c.1-.1.1-.4 0-.6-.2-.333-.367-.733-.5-1.2-.1-.1-.3-.2-.4-.1l-2.5 1c-.1.1-.3 0-.3-.2v-3.1c0-.2.2-.4.3-.5l2.5-1.7c.1-.1.3-.4.3-.6l.7-2.1c0-.1 0-.4-.2-.5l-1.4-1.2c-.1-.1-.1-.3-.1-.5l2-3.4c.1-.2.3-.3.5-.2l1.7.6c.2 0 .5 0 .6-.2l1.5-1.6c.1-.1.2-.3.3-.5l.2-3c.1-.2.2-.4.4-.5l2.7-1.6c.1-.1.3 0 .3.2l.2 2.6c.1.2.2.3.4.3.467-.133.9-.2 1.3-.2.2 0 .4-.1.5-.2l2-3c.1-.2.3-.2.5-.1l1.7 1c.2.1.3.3.2.4l-1.6 3.3c-.1.1-.1.4 0 .5l.6 1.2c0 .2.2.3.4.2l2.4-1.1c.1 0 .3.1.3.2zm-6 5.1c0-3-2.1-4.1-4.6-2.7-2.5 1.5-4.6 5-4.6 7.9s2.1 4.1 4.6 2.7c2.5-1.5 4.6-5 4.6-7.9z" class="Q"/><path d="M353.15 621.129c-.067-.067-.133-.067-.2 0l-1.3.1-.7.2-.1.1-.9 2.5c0 .067-.033.133-.1.2s-.133.1-.2.1c-.4.133-.767.333-1.1.6-.1.1-.3.1-.4 0l-.8-1.3h-.1c0-.1-.1-.1-.2 0l-.6.7-1.3 1.3c-.067.067-.1.133-.1.2-.067.067-.067.134 0 .2l.5 1.8v.2c-.067.067-.1.133-.1.2a11.28 11.28 0 0 0-.9 1.5c0 .067-.067.133-.2.2-.067.067-.133.1-.2.1l-1.6.4c-.133 0-.233.067-.3.2v.1l-.4 1.4-.1.1-.3 1.2c-.067.067-.067.133 0 .2h.2l1.4.1c.2 0 .3.1.3.2-.067.533-.067 1 0 1.4 0 .067-.033.167-.1.3 0 .067-.033.133-.1.2l-1.6 1.9c-.067.067-.1.133-.1.2-.067.133-.067.2 0 .2l.3.8.4.8v.1l.1.1c-.067 0-.133-.033-.2-.1l-3.2-1.9h-.1l-.7-1.7c-.1-.1-.1-.2 0-.2 0-.1 0-.2.1-.3l1.6-1.9c0-.067.033-.133.1-.2v-.2-.8l-.6-.3-.1-.1-1.1-.6c-.067-.067-.1-.133-.1-.2l.2-.7.6-2 .1-.1c0-.067.033-.1.1-.1l.1-.1h.1l1.6-.4c.067 0 .133-.033.2-.1l.2-.2a11.28 11.28 0 0 1 .9-1.5v-.2c.067-.066.067-.133 0-.2l-.5-1.8v-.1c.067-.067.1-.133.1-.2l.1-.1.5-.5 1.3-1.4c.067-.067.133-.1.2-.1h.1l1.8 1 .5-.3c.133 0 .233-.033.3-.1s.1-.133.1-.2l.9-2.5.1-.1.1-.1h.1c0-.067.033-.1.1-.1l1.7-.1h.2v.1h.2c0 .067.033.1.1.1.4.2 1.1.7 1.8 1l.6.4h.1c0 .067.033.1.1.1h.1c.2.133.333.233.4.3zm-8.2 20.3l.1.1c-.1-.1-.5-.3-1-.6-.6-.3-1.2-.7-1.7-1 .067 0 .133-.033.2-.1l1.7-1.5c.1-.2.3-.2.4-.1.2.2.433.333.7.4.1.1.2.2.2.3l-.6 2.5zm.1.2h-.1.1zm10.8-18.8c-.067-.067-.133-.067-.2 0l-1.7 1.6c-.2.1-.3.2-.4.1-.267-.2-.533-.333-.8-.4-.1-.1-.2-.2-.1-.3l.5-2.5c0-.067-.033-.133-.1-.2l2.8 1.7zm-5 16.3l-1.8-1a3.26 3.26 0 0 0 .5-.4c.2 0 .3-.1.4 0l.9 1.4zm-.5-4.9c-.8.8-1.5 1.3-2.2 1.5h-.1-.1-.1-.2-.2c-.7 0-1.3-.3-1.6-1a1.99 1.99 0 0 1-.2-.9l.4-.2c1.9-1.1 3.4-3.8 3.4-5.9v-.5c.4-.2.8-.266 1.2-.2h.1.1c.6.1 1 .4 1.3 1 .7 1.6-.1 4.4-1.8 6.2zm6.3-5.1l-.1-.1h-1.5c-.1-.1-.2-.2-.2-.3v-.7l1.8 1.1z" class="O"/></g><g class="P"><path d="M350.85 639.029h.1l-1.8-1c.133-.067.3-.167.5-.3.1-.1.3-.1.4 0l.8 1.3zm-5.9 2.4c0 .067.033.1.1.1l-1-.6c-.6-.3-1.2-.7-1.7-1 .067 0 .133-.033.2-.1l1.7-1.5c.1-.2.3-.2.4-.1.2.2.433.333.7.4.1.1.2.2.2.3l-.6 2.5zm-1.7-5.8s-.1.1-.1.2l-1.6 1.9c-.067.067-.1.133-.1.2l-3.4-1.9s0-.2.1-.3l1.6-1.9c0-.1 0-.1.1-.2l3.4 2z" class="S"/><path d="M343.25 633.929v1.4c.067.067.067.167 0 .3l-3.4-2v-.2-.8l1.6 1h.2l1.4.1c.2 0 .3.1.2.2zm1.1-4c-.067.067-.133.1-.2.1l-1.6.4c-.1 0-.2.1-.3.2l-3.4-2c0-.066.033-.1.1-.1l.1-.1h.1l1.6-.4c.067 0 .133-.033.2-.1l3.4 2zm1.2-2.1v.2l-3.5-2c.067-.066.067-.133 0-.2l-.5-1.8v-.1l3.5 1.9c-.067.067-.067.134 0 .2l.5 1.8zm5.4-6.4l-.1.1-.9 2.4c0 .134-.033.234-.1.3l-3.5-2h.1c.067-.066.1-.133.1-.2l.9-2.5.1-.1 3.4 2z" class="S"/></g><g class="R"><path d="M356.75 629.229l-.8 2.7c0 .2-.2.3-.3.3l-1.6.4c-.2 0-.4.2-.4.3a11.28 11.28 0 0 1-.9 1.5c-.1.1-.1.3-.1.4l.5 1.8c.1.1 0 .3-.1.4l-1.9 2c0 .1-.2.1-.2 0h-.1l-.8-1.3c-.1-.1-.3-.1-.4 0l-.5.3a2.55 2.55 0 0 1-.6.3c-.1.1-.3.2-.3.4l-.9 2.4c-.1.1-.3.3-.4.3l-1.7.1c-.067.067-.133.067-.2 0-.067 0-.1-.033-.1-.1l.6-2.5c0-.1-.1-.2-.2-.3-.267-.067-.5-.2-.7-.4-.1-.1-.3-.1-.4.1l-1.7 1.5c-.067.067-.133.1-.2.1h-.1l-.1-.1v-.1c-.067-.067-.1-.133-.1-.2-.067-.133-.133-.233-.2-.3 0-.067-.033-.133-.1-.2v-.1l-.3-.8c-.1-.1 0-.2.1-.4l1.6-1.9c.067-.067.1-.133.1-.2.067-.133.1-.233.1-.3-.067-.4-.067-.867 0-1.4 0-.1-.1-.2-.3-.2l-1.4-.1h-.2c-.067-.067-.067-.133 0-.2l.3-1.2.1-.1.4-1.4v-.1c.067-.133.167-.2.3-.2l1.6-.4c.067 0 .133-.033.2-.1.133-.067.2-.133.2-.2a11.28 11.28 0 0 1 .9-1.5c0-.067.033-.133.1-.2v-.2l-.5-1.8c-.067-.067-.067-.133 0-.2 0-.067.033-.133.1-.2l1.3-1.3.6-.7c.1-.1.2-.1.2 0h.1l.8 1.3c.1.1.3.1.4 0 .333-.267.7-.467 1.1-.6.067 0 .133-.033.2-.1s.1-.133.1-.2l.9-2.5.1-.1c.133-.133.233-.2.3-.2h.4l1.3-.1c.067-.067.133-.067.2 0 .067 0 .1.067.1.2l-.6 2.4c0 .1.1.2.2.3.267.067.5.2.7.4.1.1.3.1.4 0l1.7-1.6c.133-.067.233-.1.3-.1l.1.1.7 1.7c.1.1 0 .2-.1.4l-1.6 1.9c-.1.1-.2.3-.2.5.067.2.1.433.1.7 0 .2-.033.433-.1.7 0 .1.1.2.3.2l1.4.1h.2c.067.067.067.133 0 .2zm-6.3 5c1.7-1.9 2.5-4.6 1.8-6.2-.3-.6-.8-1-1.3-1.1h-.1-.1c-.4 0-.8.1-1.2.3-.133 0-.3.067-.5.2-.4.267-.833.6-1.3 1-1.3 1.4-2 3.3-2.1 4.8 0 .2.033.367.1.5a1.99 1.99 0 0 0 .2.9c.3.7.9 1.1 1.6 1.1h.2.1.2c0-.067.033-.1.1-.1h.1c.7-.2 1.4-.6 2.2-1.4z" class="Q"/><use href="#G" class="N"/><use href="#G" opacity=".7" class="W"/></g><g class="N"><path d="M344.85 688.429l.7-2c-1-1.2-1.4-2.1-1.4-2.1-.4.667-.767 1.367-1.1 2.1.6.8 1.3 1.5 1.8 2zm4.7-18.4a20.04 20.04 0 0 1 2.4-1.2s-.3-.4-.9-1.8c-1 .333-1.9.767-2.7 1.3.3.6.8 1.2 1.2 1.7zm3.4 35.2l1.7-1c-.733-.267-1.467-.6-2.2-1l-1.8 1a7.93 7.93 0 0 0 1.7.8l.6.2z"/><use href="#H" class="R"/></g><use href="#H" opacity=".7" class="R W"/><path d="M378.15 680.029l2-.5c.4-1.6 1-2.4 1-2.4-.8 0-1.6.1-2.4.3a15.79 15.79 0 0 0-.6 2.6zm17.8-6.6c.8.4 1.567.867 2.3 1.4 0 0 .2-.6 1-1.9-.8-.6-1.7-1-2.6-1.4-.3.6-.5 1.3-.7 1.9zm-27.1 22.6l-.2-.4a17.06 17.06 0 0 1-.3-1.8l1.9.9a2.27 2.27 0 0 0 .1.4l-1.5.9z" class="N"/><path d="M372.25 473.629l-108.8 62.8c-2.4 1.4-4.4 4.8-4.3 7.6v37.3c0 2.8 1.9 3.9 4.3 2.5l108.8-62.7c2.4-1.4 4.4-4.8 4.4-7.6v-37.4c0-2.7-2-3.9-4.4-2.5z" class="T"/><path d="M368.35 490.129c0 2.6-1.9 5.8-4.3 7.2l-92.4 53.3c-2.4 1.4-4.3.4-4.3-2.2s1.9-5.9 4.3-7.3l92.4-53.3c2.4-1.3 4.3-.4 4.3 2.3z" class="N"/><path d="M368.35 509.029c0 2.7-1.9 5.9-4.3 7.3l-92.4 53.3c-2.4 1.4-4.3.4-4.3-2.2s1.9-5.9 4.3-7.3l92.4-53.3c2.4-1.4 4.3-.4 4.3 2.2z" class="O"/><g class="N"><path d="M364.05 506.829l-39.2 22.6v9.5l39.2-22.6c2.4-1.4 4.3-4.6 4.3-7.3 0-2.6-1.9-3.6-4.3-2.2z"/><use href="#I"/></g><use href="#I" class="P Y"/><path d="M221.45 601.929c-2.3-1.3-4.1-4.6-4.1-7.4v-201.4c0-2.8 1.8-4 4.1-2.7 2.3 1.4 4.1 4.7 4.1 7.5v201.4c0 2.8-1.9 4-4.1 2.6z" class="Q"/><g class="N"><path d="M221.45 601.929c-2.3-1.3-4.1-4.6-4.1-7.4v-98.4l8.2 4.8v98.4c0 2.8-1.9 4-4.1 2.6z"/><use href="#J"/></g><use href="#J" class="P Y"/><g class="N"><path d="M196.75 587.729c-2.2-1.3-4.1-4.6-4.1-7.4v-201.4c0-2.8 1.9-4 4.1-2.7 2.3 1.3 4.1 4.7 4.1 7.4v201.4c0 2.8-1.8 4-4.1 2.7z"/><use href="#K"/></g><use href="#K" class="P Y"/><path d="M172.15 573.529c-2.3-1.3-4.1-4.7-4.1-7.4v-201.4c0-2.8 1.8-4 4.1-2.7s4.1 4.6 4.1 7.4v201.4c0 2.8-1.9 4-4.1 2.7z" class="Q"/><g class="N"><path d="M172.15 573.529c-2.3-1.3-4.1-4.7-4.1-7.4v-146.3l8.2 4.8v146.2c0 2.8-1.9 4-4.1 2.7z"/><use href="#L"/></g><use href="#L" class="P Y"/><path d="M147.45 559.329c-2.2-1.4-4.1-4.7-4.1-7.5v-201.4c0-2.8 1.9-4 4.1-2.6 2.3 1.3 4.1 4.6 4.1 7.4v201.4c0 2.8-1.8 4-4.1 2.7z" class="Q"/><g class="N"><path d="M147.45 559.329c-2.2-1.4-4.1-4.7-4.1-7.5v-36.7l8.2 4.7v36.8c0 2.8-1.8 4-4.1 2.7z"/><use href="#M"/></g><use href="#M" class="P Y"/><path d="M122.85 545.029c-2.3-1.3-4.1-4.6-4.1-7.4v-201.4c0-2.8 1.8-4 4.1-2.7s4.1 4.7 4.1 7.5v201.3c0 2.8-1.8 4-4.1 2.7z" class="Q"/><path d="M122.85 545.029c-2.3-1.3-4.1-4.6-4.1-7.4v-107.9l8.2 4.8v107.8c0 2.8-1.8 4-4.1 2.7z" class="N"/><path d="M372.25 322.229l-108.8 62.8c-2.4 1.4-4.4 4.8-4.3 7.6v125.1c0 2.8 1.9 3.9 4.3 2.5l108.8-62.8c2.4-1.4 4.4-4.8 4.4-7.6v-125c0-2.8-2-4-4.4-2.6z" class="Q"/><path d="M260.25 388.529c-.7 1.3-1.2 2.8-1.1 4.1v125.1c0 2.8 1.9 3.9 4.3 2.5l108.8-62.8c1.2-.7 2.4-2 3.2-3.4l-115.2-65.5z" class="O"/><path d="M263.45 385.029c-2.4 1.4-4.4 4.8-4.3 7.6v125.1l108.7-62.8c2.4-1.4 4.4-4.8 4.4-7.6v-125.1l-108.8 62.8z" class="T"/><g stroke="#27debf" stroke-linecap="round" stroke-miterlimit="10" stroke-width="4.5"><path d="M284.85 401.729l14.4 13.9"/><path d="M284.85 424.029l14.4-30.6m32.8-18.9l14.4 13.9"/><path d="M332.05 396.729l14.4-30.6m-62.3 92.5l63-36.3"/><path d="M323.55 435.929v17.6c0 5.3 3.5 7.6 7.8 5.1 4.4-2.5 7.9-8.8 7.9-14.2v-17.6"/><path d="M331.35 431.429v16.9"/></g><path d="M132.65 710.429c1.1.6 2 2.1 2 3.3 0 1.3-.9 1.8-2 1.2-1-.7-1.9-2.2-1.9-3.4s.9-1.7 1.9-1.1zm16.2 9.3c1 .6 1.9 2.1 1.9 3.4 0 1.2-.9 1.7-1.9 1.1-1.1-.6-2-2.1-2-3.4 0-1.2.9-1.7 2-1.1zm15.8 9.2c1.1.6 2 2.1 2 3.3 0 1.3-.9 1.8-2 1.1-1-.6-1.9-2.1-1.9-3.3s.9-1.7 1.9-1.1zm16.1 9.2c1 .7 1.9 2.1 1.9 3.4 0 1.2-.9 1.7-1.9 1.1-1.1-.6-2-2.1-2-3.3 0-1.3.9-1.8 2-1.2zm-66.9-122.7l16.4 9.5c2.6 1.5 4.6 5.1 4.6 8v9.4c0 3-2 4.2-4.6 2.7l-16.4-9.4c-2.6-1.5-4.7-5.1-4.7-8.1v-9.4c0-2.9 2.1-4.1 4.7-2.7z" class="Q"/><use href="#N" class="N"/><use href="#N" class="P U"/><use href="#O" class="N"/><use href="#P" class="T"/><use href="#Q" class="N"/><use href="#Q" class="P U"/><use href="#R" class="N"/><path d="M371.45 535.729l-76 43.9c-2.8 1.7-5.1 5.6-5.1 8.9v10.3c0 3.3 2.3 4.6 5.1 3l76-43.9c2.9-1.7 5.2-5.6 5.2-8.9v-10.3c0-3.3-2.3-4.6-5.2-3z" class="T"/><path d="M371.25 544.529v5c0 .7-.5 1.5-1.1 1.8l-1.1.6c-.6.4-1 .1-1-.5v-5.1c0-.6.4-1.4 1-1.7l1.1-.7c.6-.3 1.1-.1 1.1.6zm-5.2 3v5c0 .6-.5 1.4-1 1.8l-1.2.6c-.5.3-1 .1-1-.6v-5c0-.6.5-1.4 1-1.8l1.2-.6c.5-.3 1-.1 1 .6zm-5.2 2.9v5.1c0 .6-.4 1.4-1 1.7l-1.1.7c-.6.3-1.1.1-1.1-.6v-5c0-.7.5-1.5 1.1-1.8l1.1-.6c.6-.4 1-.1 1 .5zm-5.1 3v5c0 .7-.5 1.5-1 1.8l-1.2.7c-.6.3-1 0-1-.6v-5c0-.7.4-1.5 1-1.8l1.2-.7c.5-.3 1 0 1 .6z" class="N"/><path d="M350.55 556.429v5c0 .7-.4 1.5-1 1.8l-1.2.6c-.5.4-1 .1-1-.5v-5.1c0-.6.5-1.4 1-1.7l1.2-.7c.6-.3 1 0 1 .6zm-5.2 3v5c0 .6-.4 1.4-1 1.8l-1.1.6c-.6.4-1 .1-1-.6v-5c0-.6.4-1.4 1-1.7l1.1-.7c.6-.3 1-.1 1 .6z" class="Q"/><path d="M340.25 562.429v5c0 .6-.5 1.4-1 1.7l-1.2.7c-.6.3-1 .1-1-.6v-5c0-.7.4-1.4 1-1.8l1.2-.6c.5-.4 1-.1 1 .6zm-5.2 2.9v5c0 .7-.4 1.5-1 1.8l-1.2.7c-.5.3-1 0-1-.6v-5c0-.7.5-1.5 1-1.8l1.2-.7c.6-.3 1 0 1 .6zm-5.1 3v5c0 .7-.5 1.5-1.1 1.8l-1.1.7c-.6.3-1 0-1-.6v-5c0-.7.4-1.5 1-1.8l1.1-.7c.6-.3 1.1 0 1.1.6z" class="N"/><path d="M324.75 571.329v5c0 .7-.5 1.4-1 1.8l-1.2.6c-.5.4-1 .1-1-.6v-5c0-.6.5-1.4 1-1.7l1.2-.7c.5-.3 1-.1 1 .6z" class="Q"/><path d="M319.55 574.329v5c0 .6-.4 1.4-1 1.7l-1.1.7c-.6.3-1.1.1-1.1-.6v-5c0-.6.5-1.4 1.1-1.8l1.1-.6c.6-.4 1-.1 1 .6zm-5.1 2.9v5.1c0 .6-.5 1.4-1.1 1.7l-1.1.7c-.6.3-1 0-1-.6v-5c0-.7.4-1.5 1-1.8l1.1-.7c.6-.3 1.1 0 1.1.6z" class="N"/><path d="M309.25 580.229v5c0 .7-.5 1.5-1 1.8l-1.2.7c-.5.3-1 0-1-.6v-5c0-.7.5-1.5 1-1.8l1.2-.7c.5-.3 1 0 1 .6z" class="Q"/><path d="M304.05 583.229v5c0 .7-.4 1.5-1 1.8l-1.1.6c-.6.4-1.1.1-1.1-.6v-5c0-.6.5-1.4 1.1-1.7l1.1-.7c.6-.3 1-.1 1 .6z" class="N"/><path d="M298.95 586.229v5c0 .6-.5 1.4-1 1.8l-1.2.6c-.6.3-1 .1-1-.6v-5c0-.6.4-1.4 1-1.8l1.2-.6c.5-.3 1-.1 1 .6z" class="Q"/><path d="M282.65 596.229l-2.1-1.2c-.8-.4-1.8-.4-2.9.3-2.2 1.3-4 4.4-4 7 0 1.3.4 2.2 1.1 2.6h.1l1.9 1.1.4-.6c.333-.067.733-.2 1.2-.4 2.2-1.3 4-4.4 4-7a5.59 5.59 0 0 0-.1-1.1l.4-.7z" class="T"/><use href="#S" class="N"/><use href="#S" opacity=".8" class="W"/><path d="M265.15 606.329l-2.2-1.2c-.7-.4-1.7-.3-2.8.3-2.3 1.3-4.1 4.4-4.1 7 0 1.3.5 2.2 1.2 2.6l2 1.2.3-.6a9.12 9.12 0 0 0 1.2-.5c2.2-1.3 4-4.4 4-7 0-.4-.033-.733-.1-1l.5-.8z" class="T"/><use href="#T" class="N"/><use href="#T" opacity=".8" class="W"/><use href="#U" class="T"/><use href="#V" class="N"/><use href="#W" class="O"/><use href="#X" class="N"/><use href="#P" class="Q"/><use href="#Q" class="N"/><use href="#Q" class="P U"/><use href="#R" class="N"/><use href="#U" class="Q"/><use href="#V" class="N"/><use href="#W" class="O"/><use href="#X" class="N"/><path d="M148.05 631.729l79.6 45.9c1.4.8 2.6 2.8 2.6 4.4v22c0 1.7-1.2 2.3-2.6 1.5l-79.6-45.9c-1.4-.8-2.5-2.8-2.5-4.5v-22c0-1.6 1.1-2.3 2.5-1.4z" class="Q"/><path d="M150.35 641.329c0 1.6 1.1 3.5 2.6 4.3l69.9 40.3c1.4.9 2.6.3 2.6-1.3 0-1.5-1.2-3.4-2.6-4.2l-69.9-40.4c-1.5-.8-2.6-.2-2.6 1.3z" class="N"/><use href="#Y" class="O"/><path d="M152.95 651.229l48.3 27.9v5.5l-48.3-27.8c-1.5-.8-2.6-2.7-2.6-4.3 0-1.5 1.1-2.1 2.6-1.3z" class="N"/><use href="#Z" class="T"/><use href="#a" class="N"/><use href="#a" class="P U"/><use href="#O" y="45.6" class="N"/><use href="#Z" class="Q"/><use href="#a" class="N"/><use href="#a" class="P U"/><use href="#O" y="45.6" class="N"/><path d="M148.05 677.129l79.6 45.9c1.4.9 2.6 2.9 2.6 4.5v22c0 1.6-1.2 2.3-2.6 1.5l-79.6-45.9c-1.4-.9-2.5-2.9-2.5-4.5v-22c0-1.6 1.1-2.3 2.5-1.5z" class="Q"/><use href="#Y" y="34.3" class="N"/><use href="#V" y="102.1" class="O"/><path d="M152.95 696.729l38.6 22.2v5.6l-38.6-22.2c-1.5-.9-2.6-2.8-2.6-4.3 0-1.6 1.1-2.1 2.6-1.3z" class="N"/><path d="M354.95 300.429l-106.2 61.3c-1.5.9-3.9.9-5.4 0l-106.2-61.3c-1.5-.9-1.5-2.3 0-3.2l106.2-59.1c1.5-.9 3.9-.9 5.4 0l106.2 59.1c1.5.9 1.5 2.3 0 3.2z" class="P S"/><use href="#b" class="N"/><use href="#b" class="W Y"/><use href="#b" class="P S"/><use href="#c" class="N"/><use href="#c" opacity=".7" class="W"/><use href="#d" class="N"/><use href="#d" opacity=".6" class="W"/><path d="M248.65 329.929l68.7-39.7c1.5-.8 2.6-2.9 2.6-4.5v-3.5c0-1.6-1.1-3.7-2.6-4.5l-44-25.4c-1.5-.9-3.5-2.6-4.5-4l-21-28.3c-1-1.4-3-1.8-4.4-.9l-68.7 39.6c-1.5.9-2.6 2.9-2.6 4.6v22.4c0 1.6 1.1 3.7 2.6 4.5l68.7 39.7c1.4.8 3.8.8 5.2 0z" class="O"/><path d="M243.45 320.429l-44.1-25.4c-.7-.4-1.5-1.1-2.3-1.7l-2.1-2.3-21-28.3c-1-1.4-.7-3.1.8-4l68.7-39.6c1.4-.9 3.4-.5 4.4.9l21 28.3c1 1.4 2.7 3.3 4.1 4.1l44.4 25.3c1.5.8 1.5 2.2 0 3l-68.7 39.7c-1.4.8-3.8.8-5.2 0z" class="T"/><path d="M174.75 258.729l68.7-39.6c1.4-.9 3.4-.5 4.4.9l21 28.3c.6.7 1.4 1.5 2.2 2.3l-74 42.6c-.8-.7-1.6-1.5-2.1-2.2l-21-28.3c-1-1.4-.7-3.1.8-4z" class="Q"/><g class="N"><use href="#e"/><use href="#f"/></g><g class="O"><use href="#g"/><use href="#h"/></g><path d="M291.45 273.129c-1.7-1-4.4-1-6.2 0-1.7.9-1.7 2.5 0 3.5 1.8 1 4.5 1 6.2 0s1.7-2.6 0-3.5z" class="N"/><use href="#i" class="O"/><use href="#e" x="-33.9" y="8.9" class="N"/><g class="O"><use href="#f" x="-33.9" y="8.9"/><use href="#g" x="6.2" y="-24.9"/></g><path d="M269.85 274.829c-1.7-1-4.4-1-6.1 0s-1.7 2.6 0 3.6 4.4 1 6.1 0 1.7-2.6 0-3.6z" class="N"/><path d="M257.55 281.929c-1.7-.9-4.4-.9-6.1 0-1.7 1-1.7 2.6 0 3.6s4.4 1 6.1 0 1.7-2.6 0-3.6z" class="O"/><use href="#j" class="N"/><g class="O"><path d="M242.05 301.429c-1.7-1-4.4-1-6.1 0s-1.7 2.5 0 3.5 4.4 1 6.1 0 1.7-2.5 0-3.5z"/><use href="#i" x="-33.9" y="8.9"/></g><path d="M272.95 262.429c-1.7-1-4.4-1-6.1 0s-1.7 2.6 0 3.5c1.7 1 4.4 1 6.1 0 1.7-.9 1.7-2.5 0-3.5z" class="N"/><use href="#j" x="9.3" y="-37.2" class="O"/><use href="#g" x="-27.7" y="-16" class="N"/><use href="#g" x="-40" y="-8.9" class="O"/><use href="#h" x="-30.9" y="-3.7" class="N"/><use href="#j" x="-27.7" y="-16" class="O"/><path d="M245.95 321.029v9.5c.9 0 2-.2 2.7-.6l68.7-39.7c1.5-.8 2.6-2.9 2.6-4.5v-3.5c0-1.4-.9-3.2-2.1-4.2 1 .9.8 2-.5 2.7l-68.7 39.7c-.7.4-1.8.6-2.7.6z" class="Q"/><path d="M259.85 247.129l-.1-.1c-.7-.9-2-1.1-3-.6l-59.7 34.5c-1 .6-1.2 1.8-.6 2.7l.1.1c.7.9 2 1.1 2.9.6l59.8-34.5c1-.6 1.2-1.8.6-2.7z" class="O"/><path d="M259.85 247.129l-.1-.1c-.7-.9-2-1.1-3-.6l-44.4 25.7 2.5 3.3 44.4-25.6c1-.6 1.2-1.8.6-2.7z" class="N"/><path d="M254.85 240.529v-.1c-.7-.9-2-1.2-3-.6l-59.8 34.5c-.9.6-1.2 1.7-.5 2.6v.1c.7.9 2 1.2 3 .6l59.8-34.5c.9-.5 1.2-1.7.5-2.6z" class="O"/><path d="M254.85 240.529v-.1c-.7-.9-2-1.2-3-.6l-14.9 8.6 2.5 3.3 14.9-8.6c.9-.5 1.2-1.7.5-2.6z" class="N"/><path d="M249.95 233.929l-.1-.1c-.7-.9-2-1.2-2.9-.6l-59.8 34.5c-1 .5-1.2 1.7-.6 2.6l.1.1c.7.9 2 1.2 3 .6l59.7-34.5c1-.6 1.2-1.7.6-2.6z" class="O"/><path d="M249.95 233.929l-.1-.1c-.7-.9-2-1.2-2.9-.6l-31.2 17.9 2.5 3.3 31.1-17.9c1-.6 1.2-1.7.6-2.6z" class="N"/><path d="M244.95 227.229v-.1c-.7-.9-2-1.1-3-.6l-59.8 34.5c-.9.6-1.2 1.8-.5 2.7l.1.1c.6.9 2 1.1 2.9.6l59.8-34.5c1-.6 1.2-1.8.5-2.7z" class="O"/><g class="N"><path d="M244.95 227.229v-.1c-.7-.9-2-1.1-3-.6l-54.2 31.4 2.4 3.3 54.3-31.3c1-.6 1.2-1.8.5-2.7z"/><path d="M265.15 808.829v-4.9c0-.6.5-1.1 1-1.1l7.9-.5v-11.1c0-.2.1-.4.4-.6l8.3-4.7c.5-.3 1.3-.4 1.8-.1l8.4 3.9c.5.2 1.4.3 1.9.1 2.133-.667 4.3-1.2 6.5-1.6.6-.1 1.2-.6 1.3-1.1l1-5.6c.1-.5.7-1 1.2-1h12.2c.6 0 1.1.5 1.2 1l1.1 5.6c.1.5.6 1 1.2 1.1a48.69 48.69 0 0 1 6.5 1.6c.6.2 1.4.1 1.9-.1l8.4-3.9c.6-.3 1.4-.2 1.9.1l8.3 4.7c.267.2.367.4.3.6h.1l-.1 11.1 7.9.5c.6 0 1 .5 1 1.1v6.1 7.9 6.2c0 .1-.1.2-.1.4-.1.1-.1.2-.2.3-.1.2-.3.2-.5.3-.1 0-.1.1-.2.1h-.1l-7.8.5.1 6.4v.1l-.1 1.9v2.7.2c-.067.134-.167.233-.3.3l-8.3 4.8a1.78 1.78 0 0 1-.8.2h-.3-.2c-.2 0-.4 0-.6-.1l-8.4-3.9c-.5-.2-1.3-.3-1.9-.1-2.067.667-4.233 1.167-6.5 1.5-.6.1-1.1.7-1.2 1.2l-1.1 5.5c0 .2-.1.3-.2.4v.1c0 .1-.1.1-.1.2-.067 0-.133.033-.2.1-.2.2-.4.3-.7.3h-12.2a1.08 1.08 0 0 1-.7-.3c-.3-.2-.4-.5-.5-.8l-1-5.5c-.1-.5-.7-1.1-1.3-1.2-2.2-.333-4.367-.833-6.5-1.5-.5-.2-1.4-.1-1.9.1l-8.4 3.9c-.2.067-.467.1-.8.1-.4 0-.7 0-1-.2l-8.3-4.8c-.267-.133-.4-.3-.4-.5v-11.1l-7.9-.5c-.5 0-1-.5-1-1.1v-15.1-.2zm30.2 5.2l1.6 1c7.8 4.5 20.3 4.5 28 0 .6-.333 1.133-.666 1.6-1-.467-.4-1-.767-1.6-1.1-7.7-4.4-20.2-4.4-28 0-.533.333-1.067.7-1.6 1.1z" class="R"/></g><g class="P"><path d="M265.15 809.029v15.1c0 .6.5 1.1 1 1.1l7.9.5v11.1c0 .2.133.367.4.5l8.3 4.8c.3.2.6.2 1 .2.333 0 .6-.033.8-.1l8.4-3.9c.2-.1.5-.2.8-.2.4 0 .8 0 1.1.1 2.133.667 4.3 1.167 6.5 1.5l.6.2v.1c.3.2.6.5.7.9l1 5.5a1.28 1.28 0 0 0 .5.8c.2.2.433.3.7.3h12.2c.067 0 .133-.033.2-.1.4 0 .6-.2.8-.5v-.1c.1-.1.2-.2.2-.4l1.1-5.5c0-.3.2-.6.5-.8.2-.2.4-.3.7-.4 2.267-.333 4.433-.833 6.5-1.5.4-.1.9-.1 1.3-.1v.1c.2 0 .5 0 .6.1l8.4 3.9c.2.1.4.1.6.1.4.1.9 0 1.3-.2l8.3-4.8c.067 0 .1-.033.1-.1l.2-.2v-.2l.1-2.7v-2.1l-.1-6.3 1.5-.1 6.3-.4h.1c.6 0 1-.5 1-1.1v-14.1c0 .6-.4 1.1-1 1.1l-11 .7c-.6.1-1.3.5-1.5 1-.6 1.133-1.4 2.233-2.4 3.3-.4.4-.3 1 .2 1.3l6.5 4.7c.5.4.5.9 0 1.2l-8.3 4.7c-.5.3-1.3.4-1.9.1l-8.4-3.9c-.5-.2-1.3-.2-1.9-.1a48.69 48.69 0 0 1-6.5 1.6 1.49 1.49 0 0 0-1.2 1.2l-1.1 5.5c-.1.5-.6 1-1.2 1h-12.2c-.5 0-1.1-.5-1.2-1l-1-5.5c-.2-.6-.7-1.1-1.3-1.2-2.2-.4-4.367-.933-6.5-1.6-.5-.1-1.4-.1-1.9.1l-8.4 3.9c-.5.3-1.3.2-1.8-.1l-8.3-4.7c-.5-.3-.5-.8-.1-1.2l6.6-4.7c.5-.3.5-.9.1-1.3-.933-1.067-1.7-2.167-2.3-3.3-.3-.5-.9-.9-1.5-1l-11.1-.7c-.5 0-1-.5-1-1.1v-1.2.2zm8.9-17.8v11.1l3.2-.2c.6-.1 1.2-.5 1.5-1 .6-1.133 1.367-2.233 2.3-3.3.4-.4.4-1-.1-1.3l-6.6-4.7c-.2-.2-.3-.4-.3-.6z" class="V"/><path opacity=".4" d="M295.35 814.029l.7-.5c.067 0 .1-.033.1-.1.267-.133.533-.3.8-.5 7.8-4.4 20.3-4.4 28 0 .267.2.533.367.8.5l.8.6c6.1-4.5 5.6-11-1.6-15.1-7.7-4.5-20.2-4.5-28 0-7.1 4.1-7.7 10.6-1.6 15.1z"/><path d="M340.85 797.829c1 1.067 1.8 2.167 2.4 3.3.2.5.9.9 1.5 1l3.1.2.1-11.1c-.067.2-.2.4-.4.6l-6.5 4.7c-.5.3-.6.9-.2 1.3z" class="V"/></g><g class="N"><path d="M339.25 785.929l8.3 4.7c.5.3.5.8 0 1.2l-6.5 4.7c-.5.3-.6.9-.2 1.3 1 1.067 1.8 2.167 2.4 3.3.2.5.9.9 1.5 1l11 .7c.6 0 1 .5 1 1.1v6.1c0 .6-.4 1.1-1 1.1l-11 .7c-.6.1-1.3.5-1.5 1-.6 1.133-1.4 2.233-2.4 3.3-.4.4-.3 1 .2 1.3l6.5 4.7c.5.4.5.9 0 1.2l-8.3 4.7c-.5.3-1.3.4-1.9.1l-8.4-3.9c-.5-.2-1.3-.2-1.9-.1a48.69 48.69 0 0 1-6.5 1.6 1.49 1.49 0 0 0-1.2 1.2l-1.1 5.5c-.1.5-.6 1-1.2 1h-12.2c-.5 0-1.1-.5-1.2-1l-1-5.5c-.1-.6-.7-1.1-1.3-1.2-2.2-.4-4.367-.933-6.5-1.6-.5-.1-1.4-.1-1.9.1l-8.4 3.9c-.5.3-1.3.2-1.8-.1l-8.3-4.7c-.5-.3-.5-.8-.1-1.2l6.6-4.7c.5-.3.5-.9.1-1.3-.933-1.067-1.7-2.167-2.3-3.3-.3-.5-.9-.9-1.5-1l-11.1-.7c-.5 0-1-.5-1-1.1v-6.1c0-.6.5-1.1 1-1.1l11.1-.7c.6-.1 1.2-.5 1.5-1 .6-1.133 1.367-2.233 2.3-3.3.4-.4.4-1-.1-1.3l-6.6-4.7c-.4-.4-.4-.9.1-1.2l8.3-4.7c.5-.3 1.3-.4 1.8-.1l8.4 3.9c.5.2 1.4.3 1.9.1 2.133-.667 4.3-1.2 6.5-1.6.6-.1 1.2-.6 1.3-1.1l1-5.6c.1-.5.7-1 1.2-1h12.2c.6 0 1.1.5 1.2 1l1.1 5.6c.1.5.6 1 1.2 1.1a48.69 48.69 0 0 1 6.5 1.6c.6.2 1.4.1 1.9-.1l8.4-3.9c.6-.3 1.4-.2 1.9.1zm-42.3 13c-7.7 4.4-7.7 11.7 0 16.1 7.8 4.5 20.3 4.5 28 0 7.8-4.4 7.8-11.7 0-16.1-7.7-4.5-20.2-4.5-28 0z" class="R"/><use href="#k"/></g><use href="#k" class="P U"/><use href="#l" class="N"/><use href="#l" class="P U"/><use href="#m" class="N"/><g class="P"><use href="#m" class="U"/><path d="M302.45 826.429a3.92 3.92 0 0 1 .2.5l1 5.5.2.4v14c-.067-.066-.133-.2-.2-.4l-1-5.5-.2-.4v-14.1zm-19 1.9c.4 0 .8 0 1.1-.2l8.4-3.9a1.88 1.88 0 0 1 .6-.1v14l-.6.2-8.4 3.9c-.2.067-.467.1-.8.1h-.3v-14zm-17.3-17.2l11.1.7c.133 0 .267.033.4.1v7.9l-3.3 2.3c-.2.2-.3.4-.3.6v3l-7.9-.5c-.5 0-1-.5-1-1.1v-15.1-.2 1.2c0 .6.5 1.1 1 1.1z" class="S"/></g><g class="R"><use href="#n" class="N"/><use href="#n" class="P V"/></g><g class="P"><path d="M376.55 749.129l-1.8.9v-6.4c0 .133.033.267.1.4l2 4c.2.5.1.9-.3 1.1z" class="V"/><path d="M367.15 759.229c-.133.933-.133 1.833 0 2.7.1.4-.2.8-.5.9l-7.4 2.4c-.3.1-.4.2-.4.5v2.4c0-.067-.033-.133-.1-.2.1-4.2.1-11.2.1-11.9v-.5c0 .3.2.5.6.6l6.9 2.2c.5.2.9.6.8.9zm4.6 10.5v12.3c-.067 0-.167.033-.3.1l-8.1 1.3h-.4v-12.4c.2.067.367.1.5.1l8.1-1.4h.2z" class="S"/><path d="M374.65 783.529l-1.6-1c-.4-.2-.9-.4-1.3-.5v-12.3a2.84 2.84 0 0 1 1.3.4c1 .733 2.1 1.367 3.3 1.9.5.3.7.7.6 1l-2.2 4.4c-.067.067-.1.133-.1.2v5.9z" class="V"/><path d="M389.25 775.529v12.3a1.26 1.26 0 0 0-.5.3l-3.9 4.2c-.1.1-.4.2-.7.2v-12.3c.3 0 .6-.1.7-.3l4-4.1c.067-.133.2-.233.4-.3z" class="S"/><path d="M395.95 775.429v12.4c-.2-.066-.367-.1-.5-.1a36.59 36.59 0 0 1-5.4 0c-.2 0-.5.1-.8.1v-12.3c.3-.1.6-.2.8-.1h5.4c.133-.067.3-.067.5 0z" class="V"/><path d="M401.15 780.129v12.4c-.2-.1-.5-.2-.7-.5l-3.6-3.7c-.2-.2-.6-.4-.9-.5v-12.4c.3.1.7.3.9.6l3.6 3.7c.2.2.5.4.7.4z" class="S"/></g><use href="#o" class="N"/><g class="P"><use href="#o" class="U"/><path d="M413.55 769.729v12.4c-.4 0-.7.1-.9.2a11.32 11.32 0 0 1-1.9 1.2v-5.9c0-.133-.033-.267-.1-.4l-2-4c-.2-.4-.1-.9.2-1.1 1.4-.6 2.667-1.3 3.8-2.1.2-.2.6-.3.9-.3z" class="S"/></g><g class="N"><use href="#p"/><use href="#p"/></g><use href="#p" class="P U"/><path d="M375.15 743.129l8.6-2.1c.4-.1 1 .1 1.3.5l3.5 3.7c.4.4 1.1.7 1.5.7a48.05 48.05 0 0 1 5.4-.1c.4.1 1-.1 1.2-.4l4-4.1c.2-.2.8-.4 1.3-.2l8.2 1.9c.4.1.7.4.7.6 0 .067-.033.133-.1.2l-2.2 4.4c-.2.3.1.8.6 1a13.77 13.77 0 0 1 1.7.9c.533.267 1.067.6 1.6 1 .4.3 1.1.5 1.5.4l8.1-1.3c.4-.1 1 .2 1.3.6l3.1 4.3a.68.68 0 0 1 .2.5c0 .2-.133.333-.4.4l-7.4 2.4c-.3.1-.6.5-.5.9.133.867.133 1.767 0 2.7-.1.3.3.8.7.9l7 2.2c.267.133.467.267.6.4v.2.2l-3.4 4.8c-.3.3-.8.4-1.3.3l-7.8-1.3c-.5-.1-1.2 0-1.5.3-1.133.8-2.367 1.5-3.7 2.1-.4.2-.5.7-.3 1.1l2 4c.2.4.1.9-.3.9l-8.6 2.1c-.4.1-1-.1-1.3-.5l-3.6-3.7c-.3-.4-1-.7-1.4-.6h-5.4c-.4-.1-1 .1-1.2.4l-4 4.1c-.2.3-.8.4-1.3.3l-8.2-2c-.5-.1-.8-.5-.6-.8l2.2-4.4c.1-.3-.1-.7-.6-1-1.2-.533-2.3-1.167-3.3-1.9-.4-.3-1.1-.5-1.5-.4l-8.1 1.4c-.5 0-1-.2-1.3-.6l-3.1-4.4c-.133-.133-.2-.267-.2-.4 0-.3.1-.4.4-.5l7.4-2.4c.3-.1.6-.5.5-.9-.133-.867-.133-1.767 0-2.7.1-.3-.3-.7-.8-.9l-6.9-2.2c-.4-.1-.6-.3-.6-.6v-.2l3.4-4.8c.2-.2.8-.4 1.3-.3l7.8 1.3c.5.1 1.1 0 1.4-.2.6-.467 1.267-.9 2-1.3l1.8-.9c.4-.2.5-.6.3-1.1l-2-4c-.067-.133-.1-.233-.1-.3v-.1c0-.3.1-.5.4-.5zm23.3 9.5c-7.6-1.9-16.4.3-19.6 4.7-1.2 1.7-1.4 3.5-.8 5.2.067.067.1.133.1.2s.033.133.1.2c0 .067.033.133.1.2.5 1 1.4 2 2.6 2.9a9.31 9.31 0 0 0 1.2.8c1.333.733 2.933 1.333 4.8 1.8 5.8 1.4 12.2.6 16.4-1.8a14.21 14.21 0 0 0 1.2-.9c.867-.6 1.567-1.267 2.1-2 1.4-2 1.5-4.1.4-6l-.1-.1c-.067-.133-.133-.233-.2-.3-.067-.133-.167-.267-.3-.4-.067-.133-.167-.267-.3-.4-.067-.067-.1-.133-.1-.2l-.2-.2c-1.6-1.6-4.1-2.9-7.4-3.7z" class="N R"/><g class="Q"><path d="M474.05 728.029c-1.7.9-4.9.9-5.9 2.1v4.1l19.4-2.8 7.3 4.3-2.8 5.8-19.5-1.3v4.2l1.3.8c8.2 4.8 21.5 4.9 29.8.1 4.2-2.3 6.3-5.5 6.3-8.6v-4.2l-1.2.2c0-.067-.033-.133-.1-.2l73.3-42.3c7.4 1.5 16 .6 22-2.8 3.2-1.8 5.1-3.9 5.9-6.2v-4.2l-19.3 7-7.4-4.3 2.8-5.8 19.6-2.9v-4.2s-22.9-1.5-31.2 3.2c-2.4 1.4-4.1 3.1-5.2 4.8l-1.1-.4v4.2c0 1.4.4 2.9 1.3 4.3l-73.3 42.3c-7.4-1.6-16-.6-22 2.8z"/><path d="M581.95 690.229v-4.2l-73.3 42.3v4.2l73.3-42.3z"/></g><path d="M569.35 678.729l-73.2 42.3c-7.5-1.5-16.1-.6-22.1 2.8-3.1 1.8-5.1 4-5.9 6.3l19.4-2.9 7.3 4.3-2.8 5.8-19.5 2.9c.4.267.833.533 1.3.8 8.2 4.8 21.5 4.9 29.8.2 6.1-3.5 7.8-8.6 5-12.9l73.3-42.3c7.4 1.6 16 .7 22-2.8 3.2-1.7 5.1-3.9 5.9-6.2l-19.3 2.8-7.4-4.3 2.8-5.8 19.6-2.9c-.4-.267-.833-.533-1.3-.8-8.2-4.8-21.6-4.8-29.9-.1-6.1 3.4-7.7 8.5-5 12.8z" class="T"/><path d="M584.75 676.429l-1.6-.9 2.8-5.8 19.6-2.9v4.2l-19.6 2.9-1.2 2.5zm-91.5 58.4l1.6-3.3-7.3-4.3-19.4 2.9v4.1l19.4-2.8 5.7 3.4z" class="O"/><g class="N"><path d="M518.85 789.529l15.3 26.5 51.7-29.8c2.1-1 3.5-3.5 3.5-7.1 0-6.9-4.9-15.3-10.9-18.8-3-1.7-5.7-1.9-7.7-.8l-51.9 30z"/><use href="#q"/></g><g class="P"><use href="#q" class="S"/><path d="M512.45 799.129c-1.4.6-2.6.8-2.6.8l10.8 18.8s.8-1 2-1.8c-.3-6.6-4.7-14.3-10.2-17.8z" class="S"/></g><g class="N"><path d="M498.55 801.229l.9 1.6c-.267 1-.4 2.133-.4 3.4 0 6.9 4.8 15.3 10.8 18.7 1.067.667 2.1 1.1 3.1 1.3l.9 1.6 3.7-2.1c1.9-1.1 3.1-3.6 3.1-7 0-6.9-4.8-15.3-10.8-18.8-3-1.7-5.7-1.9-7.7-.7l-3.6 2z"/><use href="#r"/></g><g class="P"><use href="#r" class="S"/><path d="M502.05 823.629c.8.933 1.667 1.733 2.6 2.4l2.6-7.2-3.1-2.3-2.1 7.1z" class="S"/><path d="M580.45 771.629c.9 1.5.4 3.3-1.1 4.1l-36.9 21.3c-1.4.8-3.2.4-4-1.1-.9-1.4-.4-3.2 1.1-4.1l36.9-21.3c1.4-.8 3.2-.3 4 1.1zm-6.6-7.9c1.1 1 1.1 2.3-.2 3.1l-37.5 21.7c-1.3.7-3.2.5-4.4-.5s-1.1-2.4.1-3.1l37.6-21.7c1.3-.7 3.2-.5 4.4.5zm10.2 17.7c-.3-1.5-1.5-2.2-2.7-1.4l-37.6 21.7c-1.3.7-2.1 2.5-1.8 4s1.5 2.1 2.7 1.4l37.6-21.7c1.3-.7 2-2.5 1.8-4z" class="U"/></g><path d="M411.25 864.529v7.3l18-5.9s3.6-6.6 7.2-8.7l68.7-39.7 2.1-6-2.1-1.2-68.7 39.6c-3.6 2.1-7.2-.3-7.2-.3l-18 14.9z" class="T"/><path d="M413.35 865.829v7.2l18-5.9s3.7-6.6 7.3-8.7l68.6-39.6v-7.3l-68.6 39.7c-3.6 2.1-7.3-.4-7.3-.4l-18 15z" class="Q"/><path d="M413.35 873.029l-2.1-1.2v-7.3l2.1 1.3v7.2z" class="O"/><path d="M411.25 864.529l2.1 1.3 18-15-2.1-1.2-18 14.9z" class="T"/><path d="M715.45 403.629c11.7-12 32.8-39.3 32.8-39.3l12-41.4c.3.1-6.1.2-8 0-12.9.9-16.7 2-24.8 10.8-6.4 7-30.7 40.2-39.2 51.4l-22.4-28.6c-5.4-8.1-4.5-17.2-7.3-23.9-2.8-6.6-7.3-9.6-11-15.6-3.6-6-4.4-9.9-7.4-6.8-3 3 .5 11.3.9 13.2s5 7.5-2.6 4.6c-7.5-2.9-19.2-16.8-22.3-19.6-3-2.8-4.6 1.6-3.9 5 .7 3.5-2.5 11.3-1.4 17 1.3 6.1 2.2 8.9 8 14.8 5.5 5.5 18.8 12.2 24.1 19.4 5.2 7.2 16.3 29.6 23.1 43.1 8.7 17.2 16.1 22.8 25.8 17.1 9.7-5.8 19.3-16.7 23.6-21.2z" class="Z"/><path d="M756.45 322.529c-8.2-.5-15 .6-19.5 2.7-7 3.1-11.8 9.9-18.6 19.1s-24 31.3-24 31.3 15.7 9.5 20.8 29.3l41.8-46.2-.5-36.2z" fill="#e0e0e0"/><path d="M688.25 385.129c5.5 5.3 7.8 11.8 8.2 15.1 0 0 2.5-8.3-6.2-17.6l-2 2.5z" class="X"/><path d="M796.65 322.429c4.6 1.1 16.8 2.6 24.8 4.9 5.9 1.7 11.9 9.1 13.2 14.5 3.9 17.5.4 28.4-1.1 43.7-1.5 15.2-1.6 91.4-1.6 91.4-8.4 16.5-72.5 19.9-103.5-2.8l3.8-117.1c0-15.8 8.7-34.8 32.9-36.2l31.5 1.6z" fill="#f5f5f5"/><path d="M769.25 272.529a3.37 3.37 0 0 0 3.4 3.4c1.8 0 3.3-1.5 3.3-3.5 0-1.9-1.5-3.4-3.3-3.4-1.9 0-3.4 1.6-3.4 3.5zm3.4-11.4l6.9 3.9c1-2 .3-4.5-1.6-5.5-1.9-1.1-4.3-.3-5.3 1.6z" class="O"/><path d="M770.15 292.929l-7.8 2.9c.8 2.2 3.1 3.4 5.3 2.6 2.1-.8 3.2-3.3 2.5-5.5z" class="X"/><path d="M742.55 263.929l6.3-4.8c-1.3-1.8-3.7-2.2-5.5-.9-1.7 1.4-2.1 3.9-.8 5.7zm1.4 8.6a3.33 3.33 0 0 0 3.3 3.3c1.7 0 3.2-1.5 3.2-3.4 0-1.8-1.5-3.3-3.2-3.3-1.8 0-3.3 1.5-3.3 3.4z" class="O"/><path d="M761.55 266.929l-1.1 20.3-10.7-3.6 11.8-16.7z" class="X"/><use href="#s" class="N"/><use href="#s" class="P U"/><use href="#t" class="N"/><use href="#t" opacity=".4" class="P"/><use href="#u" class="N"/><use href="#u" class="P V"/><g class="O"><path d="M804.45 239.129s7.4 1.1 10.1 6.7c2.4 4.8 1.6 16.6-1.6 29.5-3.2 12.8-6.2 20.5-8 24.1-1.9 3.5-5.7 4.5-5.7 4.5l.4-15.2.5-10.6s-6.8-9.3-7.5-16.9c-1-9.9 1.1-13.9 1.1-13.9l10.7-8.2z"/><path d="M792.45 253.929c-.1 15.7-12.9 28.3-28.6 28.3-15.7-.1-27.4-12.9-27.4-28.6.1-15.7 11.9-28.3 27.6-28.3 15.7.1 28.4 12.9 28.4 28.6z"/></g><path d="M799.75 276.429c2.6 2.2 4.7-3.5 6.8-5.8 2.2-2.2 9.2-5.3 12.7 2.1 3.5 7.5-3.1 18.1-8.5 20.2-5.8 2.2-9.2-2.8-9.2-2.8v33.7c-8 14.6-22.3 14.1-30 13.3-7.6-.8-9.3-8.7-3.7-15.1l.1-10.5s-8.6 1.3-12.8.6c-7-1.1-10.7-6.3-12.8-13.9-3.3-12.2-4.7-32.6 0-56.2 7.8-6.1 35-5.1 51.4 5.3-1.2 21 3.5 26.9 6 29.1z" class="Z"/><path d="M745.25 231.629c3.3-3.4 7.2-6.1 11.6-7.9 3.4-1.4 7.3-2.4 11.1-2.4 4.9.1 9.9-.7 14.8-.5 8.6.2 19 3.7 22.9 12.1 1.8 3.8 2.1 7.9-1.4 10.5-3 2.3-6.9 3.3-10.5 3.9-6.4 1.1-12.7 2.5-19.1 3.4-6.9.9-14 1.3-20.7-.3-3.2-.8-6.3-2-9-3.8-1.467-1-2.767-2.1-3.9-3.3-.5-.4-1.7-1.4-1.8-2-.2-.7.6-1.9 1-2.6 1.3-2.6 3-4.9 5-7.1z" class="O"/><path d="M767.95 311.529s15.6-3.1 21.1-5.9c3.6-2 6.6-5.3 7.5-7.5 0 0-1 4.6-4.3 8.8-4 5.1-24.3 8.8-24.3 8.8v-4.2z" class="X"/><path d="M772.15 271.129c0 1.9 1.5 3.4 3.3 3.4s3.3-1.5 3.3-3.4-1.5-3.4-3.3-3.4-3.3 1.5-3.3 3.4z" class="O"/><path d="M764.65 296.429c0 1.9 1.4 3.5 3.3 3.5 1.8 0 3.3-1.6 3.3-3.5 0-1.8-1.5-3.4-3.3-3.4s-3.3 1.6-3.3 3.4z" class="X"/><path d="M776.65 258.429l6.3 4.9c1.4-1.8 1.1-4.4-.7-5.8-1.7-1.3-4.2-1-5.6.9zm-33.7 5l6.1-5.3c-1.4-1.7-3.9-2-5.6-.5s-1.9 4.1-.5 5.8zm2.1 6.7c0 1.9 1.5 3.5 3.3 3.5s3.3-1.6 3.3-3.5-1.5-3.4-3.3-3.4-3.3 1.5-3.3 3.4z" class="O"/><path d="M763.15 264.529l-1.3 23.4-11-3 12.3-20.4z" class="X"/><path d="M818.95 255.429c-.1 4.1-.8 8-2 11.8-.8-1.3-1.8-2.4-2.9-3.3-5.9-5.3-13.4-9.2-21.4-12.3h-.1c-18-6.9-39-8-55.7-2.1.3-3.6 1-6.9 2.2-10.1 6.1-15.9 18.5-24.3 38.3-22.2 23.1 2.4 42.2 15.2 41.6 38.2z" class="N"/><path d="M776.55 241.329c-5.4-1.9-19.1-2.9-23.1-1.7 0 0-2.9-2.3-4.8-5.3s-1.3-6.7.5-7.5c1.8-.7 1.9 1.6 8.7 5 0 0-1.7-4.2-.6-6.9 1.2-2.8 3.5 2.2 8.6 5.4 5 3.2 10.1 4.8 10.7 11z" class="O"/><path d="M846.75 309.029c4.5-3.6 31.6 28.5 20.3 37.8-11.4 9.3-25.3-14.1-23.4-25.5s3.1-12.3 3.1-12.3z" class="Q"/><path d="M868.55 291.029c-6.8-8.4-24.8-28.4-28.8-32-3.9-3.5-6.4-3.2-8.9-4-2.8-.9-5.6-2.8-7.4-4.6-1.3-1.3-2.4-2.8-3.6-4.2-3.9-4.8-8.5-9.1-13.6-12.6-5.3-3.7-11.2-6.4-16.7-9.9-3.3-2.1-6.8-5.7-3.1-9.3 1.1-1.1 2.5-1.7 4-2.1 9.3-2.5 17.7.4 26.9 2.4 4.1.8 8 2 11.9 3.4 1.9.8 3.7 1.6 5.3 2.8 2.4 1.9 6.7 6.4 8.7 8.8 6.4 7.8 11.8 10.2 18 15.7 7.4 6.3 40.3 29.6 47.2 36.5 5.8 5.7 3.9 10.5 3.2 12.1-4.1 9.4-8.9 12.9-14.7 18.9a238.62 238.62 0 0 0-5.7 5.9c-7.5 7.6-15 14.7-22.8 22-8.4 7.7-11.8 11.4-19.2 18.9-4.4 4.4-7.8 9.6-11.2 16.6-13.4 3-22.6-25.4-17.8-41.8 1.2-4.2 4.4-7.6 7.8-10.3 13.7-10.9 40.5-33.2 40.5-33.2z" class="Z"/><path d="M868.55 291.029s6.5 7.9 17.1 10.6c0 0-8.6 2.6-20.8-7.5l3.7-3.1z" class="X"/><path d="M821.45 327.329c3.1-2.4 10.5-7.5 25.3-18.3 0 0-2.1 5.2 2.4 17.4 4.5 12.3 12.9 19.8 17.9 20.4 0 0-8.2 7.3-15.7 15.5-7.5 8.1-13.7 14-17.8 23.2 0 0-11.5-2.3-15.2-21.3-2.6-13.4-2.5-29.3 3.1-36.9z" fill="#e0e0e0"/><path d="M795.55 815.229c-.7.7-.2 6.2.7 7.5.9 1.4 5.9 5.5 15.3 5.6 8.9.2 16.7-1.4 21.8-5 5-3.6 7.3-7.4 7.5-12.5s-.6-9.9 1.6-13.9c2-3.7 4.8-7.4 5.5-9.4 1.4-4.3 0-10.8 0-10.8l-52.4 38.5z" class="O"/><use href="#v" class="N"/><use href="#v" class="P U"/><path d="M810.75 790.929c2.5-2.1 8.3-2.4 11.4-2.2 4 .2 7.3 1.4 9.2 2.6.9.6 2 .4 2.7-.3.8-.9.6-2.3-.4-3-2-1.3-5.6-3.1-10.3-3.2-7.9-.1-10.1 1.4-10.1 1.4s-3.4 2.4-2.5 4.7zm-5.6 7.5c3.1-2.1 9.5-2.2 12.7-2 4 .2 7.1 1.6 9 2.8.8.6 2 .4 2.6-.3.8-.9.7-2.3-.3-3-2-1.3-5.9-3.4-10.6-3.5-7.8-.1-9.8 1.6-9.8 1.6s-3.2 1.5-3.6 4.4zm20.9-21.2c-5.4-.3-7.7.4-9.8 1.3-1.3.9-2.1 3.1-1.2 3.6 1.7-1 4.8-1.6 8.6-1.7 2.6 0 5.9.9 8.6 1.9l2.2 1c1 .5 2.1 0 2.5-.9s0-1.8-.8-2.2c-1.9-1.1-5.7-2.8-10.1-3z" class="T"/><path d="M687.75 787.229c-.6 1.6-.3 4.4.7 6.2.9 1.8 10.7 6.6 23.4 5 12.7-1.5 21.2-7.1 25.9-10.6s9.7-4.4 16-5.1 11.1-2.9 12.3-5.9-.6-8-.6-8l-77.7 18.4z" class="O"/><use href="#w" class="N"/><use href="#w" class="P U"/><path d="M722.05 761.029s.7-2.5 4.4-3.3c2.7-.7 7.8 1.1 11 3.5 1.4.9 1.3 2.9-.1 3.8-.8.5-1.9.4-2.6-.2-2.1-1.6-6.9-4.6-12.7-3.8zm-8.5 5.3s1.7-2.9 5.3-3.1c0 0 7.3-.2 12.1 3.8 1.2 1 1.2 2.9-.1 3.7-.8.5-1.8.5-2.6-.1-2.1-1.7-6.4-5.4-14.7-4.3zm-9.4 4.9s1.9-2.7 5.5-2.8c0 0 6.9-.1 11.6 3.9 1.3 1 1.3 2.8-.1 3.7-.8.5-1.8.4-2.5-.2-2.2-1.7-6.2-5.7-14.5-4.6zm20.5-300.5c-.3 29.2 1.6 127.8 2.2 142.5.6 12.9 2.8 139.6 2.8 139.6 14.8 4.6 35-.1 35-.1l10.9-93.2c.9-18.2-2-38.5-2-38.5l7.5-80.7 12.3 86.8 21.6 146.4c13.6 5.3 32.6-2.2 32.6-2.2l-2.3-121c-1-21.2-6.9-31.5-7.5-37.4l-3.3-137.8c-.2-18.7-2.2-39.2-2.2-39.2s-20.4 1.6-22.2-4.3c-1.8-6-.1-63.1.7-74.2 0 0-42.8-9.5-79.9-2.5l-6.2 115.8z" class="T"/><path d="M810.95 447.629c-.2 19.4 3.2 31.5 8.4 35.7 5.1 4.2 15.3 3.9 15.3 3.9v-2.9s-9.6 1.4-13.9-3.1-8.2-11-9.8-33.6zm-66-72s22.3-.1 43.3 1.4c0 0 .2 16.3-1.6 22.2-1.9 5.9-15.9 14.8-21.7 14.7-5 0-19.1-10-20.2-15.2-1-5.2.2-23.1.2-23.1zm36.1 164.7l-1.9-12.5c-6.1-.9-21.5-10.5-30.6-18.9 0 0 8.2 14 25.6 23.6l.6 79.6 6.3-71.8zm40.4-213c-4-1-6.3-.1-8.3 4.9-2 5.1-4.3 21.5-5.1 36.9 0 0-9.3 1.7-15.7-1 0 0 .8-20.2 3-30.7.7-3.6 1.8-6.6 3-8.8 1.8-3.8 5.9-5.9 10-5.1l14.6 2.7-1.5 1.1z" class="Q"/><path d="M803.95 362.329c0 2-1.7 3.6-3.7 3.6s-3.6-1.6-3.6-3.6 1.6-3.6 3.6-3.6 3.7 1.6 3.7 3.6z" class="N"/><path d="M767.85 322.029c-4.5-.2-12 3.1-14.9 10.2-3 7.7-3 24.7-3.2 33.2 0 0-6.6 3-14.4 0 0 0 .1-26.8 4.6-35.7 4.6-8.9 13.4-9.4 18.1-9.8 4.6-.3 9.8 0 9.8 0v2.1z" class="Q"/><g class="N"><path d="M746.65 359.529c0 2-1.7 3.6-3.7 3.6s-3.6-1.6-3.6-3.6 1.6-3.7 3.6-3.7a3.76 3.76 0 0 1 3.7 3.7zm-305.2-129.7c.533.8 1.133 1.6 1.8 2.4a6.9 6.9 0 0 0 2.4 2c1 .467 2.167.667 3.5.6 1.267 0 2.833-.533 4.7-1.6 1.6-.933 3.133-2.167 4.6-3.7 1.533-1.533 2.867-3.3 4-5.3 1.2-2 2.133-4.167 2.8-6.5.667-2.267 1-4.733 1-7.4 0-4.067-1.033-6.8-3.1-8.2s-4.9-1.067-8.5 1c-1.133.6-2.167 1.433-3.1 2.5l-2.7 3.1-2.3 2.9c-.733.867-1.333 1.433-1.8 1.7l-18.3 10.6c-.933.533-1.733.5-2.4-.1-.6-.6-.867-1.6-.8-3l3.5-66.5a13.56 13.56 0 0 1 1-4c.6-1.333 1.333-2.233 2.2-2.7l50.3-29.1c.867-.467 1.6-.4 2.2.2s.9 1.567.9 2.9v19.2c0 1.267-.3 2.567-.9 3.9s-1.333 2.267-2.2 2.8l-34.2 19.7-.8 16.6a36.42 36.42 0 0 1 4.9-5.8c1.8-1.867 3.8-3.433 6-4.7 4.533-2.6 8.733-4.067 12.6-4.4s7.233.5 10.1 2.5c2.867 1.933 5.1 5.1 6.7 9.5s2.4 10.033 2.4 16.9c0 7.2-.867 14.067-2.6 20.6-1.8 6.6-4.233 12.7-7.3 18.3-3.067 5.533-6.7 10.467-10.9 14.8-4.133 4.333-8.567 7.867-13.3 10.6-5.333 3.067-10.1 4.767-14.3 5.1s-7.733-.467-10.6-2.4c-2.933-1.867-5.167-4.667-6.7-8.4-1.6-3.733-2.433-8.033-2.5-12.9 0-1.133.267-2.233.8-3.3.467-1.067 1.067-1.8 1.8-2.2l14.9-8.6c1.267-.733 2.233-.933 2.9-.6s1.1.667 1.3 1z"/><path d="M532.85 86.429c5.867-3.4 10.9-5 15.1-4.8s7.7 1.733 10.5 4.6 4.867 6.867 6.2 12c1.4 5.2 2.2 11 2.4 17.4.2 5.067.3 10.433.3 16.1a401.42 401.42 0 0 1-.3 16c-.2 6.667-1 13.367-2.4 20.1-1.333 6.8-3.4 13.233-6.2 19.3s-6.3 11.633-10.5 16.7-9.233 9.3-15.1 12.7-10.933 5-15.2 4.8c-4.2-.2-7.7-1.733-10.5-4.6s-4.867-6.9-6.2-12.1c-1.4-5.133-2.2-10.9-2.4-17.3-.2-4.8-.3-10.033-.3-15.7s.1-11.167.3-16.5c.2-6.6 1-13.267 2.4-20 1.333-6.8 3.4-13.233 6.2-19.3s6.3-11.633 10.5-16.7c4.267-5.067 9.333-9.3 15.2-12.7zm12.5 73c.333-10.467.333-20.6 0-30.4-.133-2.933-.433-5.533-.9-7.8-.4-2.267-1.067-4.067-2-5.4s-2.2-2.1-3.8-2.3c-1.533-.133-3.467.467-5.8 1.8-2.4 1.333-4.367 3-5.9 5-1.6 2-2.867 4.2-3.8 6.6s-1.633 5-2.1 7.8-.733 5.733-.8 8.8a385.2 385.2 0 0 0 0 30.4c.067 2.933.333 5.567.8 7.9.4 2.267 1.1 4.033 2.1 5.3.933 1.333 2.2 2.1 3.8 2.3 1.533.133 3.5-.467 5.9-1.8 2.333-1.333 4.267-3 5.8-5 1.6-2 2.9-4.233 3.9-6.7.933-2.4 1.633-5 2.1-7.8.4-2.733.633-5.633.7-8.7zm68.2-119.7c5.867-3.4 10.933-4.967 15.2-4.7 4.2.2 7.7 1.733 10.5 4.6 2.8 2.8 4.867 6.8 6.2 12 1.4 5.2 2.2 10.967 2.4 17.3.2 5.133.3 10.533.3 16.2a401.42 401.42 0 0 1-.3 16c-.2 6.667-1 13.367-2.4 20.1-1.333 6.733-3.4 13.133-6.2 19.2s-6.3 11.667-10.5 16.8c-4.267 5.067-9.333 9.3-15.2 12.7s-10.9 5-15.1 4.8c-4.2-.267-7.7-1.8-10.5-4.6-2.8-2.867-4.867-6.9-6.2-12.1-1.4-5.2-2.2-10.967-2.4-17.3-.2-4.867-.3-10.133-.3-15.8a432.56 432.56 0 0 1 .3-16.4c.2-6.6 1-13.3 2.4-20.1 1.333-6.733 3.4-13.133 6.2-19.2s6.3-11.633 10.5-16.7c4.2-5.133 9.233-9.4 15.1-12.8zm12.6 73c.333-10.4.333-20.5 0-30.3-.133-2.933-.433-5.533-.9-7.8-.4-2.333-1.067-4.133-2-5.4-.933-1.333-2.2-2.1-3.8-2.3-1.533-.2-3.5.4-5.9 1.8-2.333 1.333-4.267 3-5.8 5-1.6 2-2.867 4.2-3.8 6.6s-1.633 5-2.1 7.8-.733 5.733-.8 8.8c-.4 10.2-.4 20.3 0 30.3.067 3 .3 5.633.7 7.9.467 2.267 1.2 4.067 2.2 5.4.933 1.333 2.2 2.067 3.8 2.2 1.533.2 3.467-.367 5.8-1.7 2.4-1.4 4.367-3.1 5.9-5.1 1.6-1.933 2.867-4.133 3.8-6.6 1-2.4 1.7-5 2.1-7.8.467-2.8.733-5.733.8-8.8z" class="R"/></g><g class="T"><path d="M486.85 342.229c.333-.133.6-.1.8.1s.3.533.3 1v6.8a3.53 3.53 0 0 1-.3 1.4c-.2.467-.467.8-.8 1l-19.7 11.4c-.333.133-.6.1-.8-.1s-.3-.533-.3-1v-41.4a3.53 3.53 0 0 1 .3-1.4c.2-.467.467-.8.8-1l19.4-11.2c.267-.133.533-.1.8.1.2.2.3.533.3 1v6.8a3.53 3.53 0 0 1-.3 1.4c-.267.467-.533.8-.8 1l-12.8 7.4v6.9l11.9-6.9c.267-.133.533-.1.8.1.2.2.3.533.3 1v6.8a3.53 3.53 0 0 1-.3 1.4c-.267.467-.533.8-.8 1l-11.9 6.9v7.1l13.1-7.6z"/><path d="M505.15 297.129c1.867-1.067 3.5-1.733 4.9-2 1.467-.2 2.7 0 3.7.6s1.8 1.667 2.4 3.2c.533 1.533.8 3.567.8 6.1 0 3.2-.433 6.1-1.3 8.7s-2.1 4.9-3.7 6.9l5.2 12.3a1.88 1.88 0 0 1 .1.6c0 .4-.1.8-.3 1.2-.133.4-.333.667-.6.8l-5.7 3.2c-.533.333-.933.4-1.2.2-.2-.267-.367-.567-.5-.9l-4.6-11-3.9 2.2v13.7a3.53 3.53 0 0 1-.3 1.4c-.2.467-.467.8-.8 1l-5.5 3.1c-.267.2-.5.2-.7 0-.267-.2-.4-.567-.4-1.1v-41.3c0-.467.133-.967.4-1.5.2-.467.433-.767.7-.9l11.3-6.5zm-4.7 22.1l4.7-2.7a8.06 8.06 0 0 0 2.9-2.7c.8-1.133 1.2-2.6 1.2-4.4s-.4-2.8-1.2-3c-.733-.267-1.7-.067-2.9.6l-4.7 2.7v9.5zm33.7-38.8c1.8-1.067 3.433-1.733 4.9-2 1.4-.2 2.6 0 3.6.6 1.067.6 1.867 1.667 2.4 3.2s.8 3.567.8 6.1c0 3.2-.433 6.1-1.3 8.7s-2.1 4.9-3.7 6.9l5.2 12.3a1.88 1.88 0 0 1 .1.6c0 .4-.067.8-.2 1.2-.2.4-.433.667-.7.8l-5.7 3.2c-.533.333-.9.4-1.1.2a2.66 2.66 0 0 1-.6-.9l-4.6-11-3.9 2.2v13.7a3.53 3.53 0 0 1-.3 1.4c-.2.467-.467.8-.8 1l-5.4 3.1c-.333.2-.6.2-.8 0-.267-.2-.4-.567-.4-1.1v-41.3c0-.467.133-.967.4-1.5.2-.467.467-.767.8-.9l11.3-6.5zm-4.7 22.1l4.7-2.7c1.133-.667 2.1-1.567 2.9-2.7.733-1.133 1.1-2.6 1.1-4.4s-.367-2.8-1.1-3c-.8-.267-1.767-.067-2.9.6l-4.7 2.7v9.5zm20.2-14.4a33.79 33.79 0 0 1 1-7.3c.6-2.467 1.467-4.8 2.6-7 1.067-2.2 2.4-4.2 4-6a19.8 19.8 0 0 1 5.4-4.6c2-1.133 3.8-1.7 5.4-1.7s2.933.467 4 1.4c1.133.933 2 2.267 2.6 4 .6 1.8.933 3.867 1 6.2l.1 5.7-.1 5.7c-.067 2.467-.4 4.933-1 7.4s-1.467 4.8-2.6 7c-1.067 2.2-2.4 4.2-4 6s-3.4 3.3-5.4 4.5c-2.067 1.2-3.867 1.8-5.4 1.8-1.6 0-2.933-.467-4-1.4-1.133-1-2-2.367-2.6-4.1-.6-1.8-.933-3.867-1-6.2l-.1-5.6.1-5.8zm18.3.5l.1-2.6v-2.9-2.8l-.1-2.4c-.067-1.067-.233-1.967-.5-2.7-.2-.8-.5-1.4-.9-1.8a2.39 2.39 0 0 0-1.6-.6c-.667-.067-1.433.167-2.3.7-.867.467-1.6 1.1-2.2 1.9a8.89 8.89 0 0 0-1.6 2.5c-.467.867-.8 1.833-1 2.9-.267 1-.433 2.067-.5 3.2-.067.733-.1 1.567-.1 2.5v2.9 2.8l.1 2.5c.133 2.067.633 3.567 1.5 4.5.8.933 2.067.9 3.8-.1s3-2.433 3.8-4.3c.867-1.867 1.367-3.933 1.5-6.2zm25-42.2c1.8-1.067 3.433-1.7 4.9-1.9 1.4-.267 2.633-.1 3.7.5 1 .667 1.767 1.767 2.3 3.3s.8 3.533.8 6c0 3.2-.433 6.1-1.3 8.7s-2.1 4.933-3.7 7l5.2 12.3a1.88 1.88 0 0 1 .1.6c0 .4-.067.767-.2 1.1-.2.4-.433.667-.7.8l-5.6 3.3c-.6.333-1 .367-1.2.1-.267-.267-.467-.533-.6-.8l-4.6-11.1-3.8 2.2v13.7c0 .533-.133 1.033-.4 1.5-.2.467-.467.767-.8.9l-5.4 3.2c-.333.133-.6.1-.8-.1s-.3-.533-.3-1v-41.4a3.53 3.53 0 0 1 .3-1.4c.2-.467.467-.8.8-1l11.3-6.5zm-4.7 22.1l4.7-2.7c1.133-.667 2.1-1.567 2.9-2.7.733-1.067 1.1-2.5 1.1-4.3s-.367-2.833-1.1-3.1c-.8-.267-1.767-.033-2.9.7l-4.7 2.7v9.4z" class="R"/><path d="M421.65 327.629c-.2.133-.367.133-.5 0s-.2-.333-.2-.6v-23.9a1.78 1.78 0 0 1 .2-.8c.133-.333.3-.533.5-.6l3.1-1.8c.2-.133.367-.133.5 0s.2.333.2.6v23.9a1.78 1.78 0 0 1-.2.8c-.133.267-.3.467-.5.6l-3.1 1.8zm18.7-10.8c-.267.133-.5.167-.7.1-.133-.133-.233-.267-.3-.4l-5.5-9.5v12.5a1.99 1.99 0 0 1-.2.9c-.133.267-.3.433-.5.5l-3.1 1.8c-.2.133-.367.133-.5 0s-.2-.333-.2-.6v-23.9a1.78 1.78 0 0 1 .2-.8c.133-.267.3-.467.5-.6l2.5-1.4c.267-.133.467-.167.6-.1.2.133.333.267.4.4l5.5 9.5v-12.6a1.78 1.78 0 0 1 .2-.8c.133-.267.267-.433.4-.5l3.2-1.9c.133-.067.267-.033.4.1s.2.333.2.6v23.9a1.78 1.78 0 0 1-.2.8c-.133.267-.267.467-.4.6l-2.5 1.4zm19.4-37.2c.2-.067.367-.033.5.1s.2.334.2.6v3.9a1.78 1.78 0 0 1-.2.8c-.133.267-.3.467-.5.6l-4.2 2.4v19c0 .267-.067.534-.2.8s-.267.467-.4.6l-3.2 1.8c-.2.067-.367.067-.5 0-.067-.133-.1-.333-.1-.6v-19l-4.3 2.4c-.133.133-.267.133-.4 0s-.2-.333-.2-.6v-3.9a1.78 1.78 0 0 1 .2-.8c.133-.267.267-.467.4-.6l12.9-7.5zm15.5 11.1c.2-.067.367-.067.5 0 .067.133.1.333.1.6v4a3.27 3.27 0 0 1-.1.8c-.133.267-.3.433-.5.5l-11.4 6.6c-.2.133-.367.133-.5 0-.067-.133-.1-.333-.1-.6v-23.9a3.27 3.27 0 0 1 .1-.8c.133-.267.3-.467.5-.6l11.2-6.5c.2-.067.367-.033.5.1s.2.333.2.6v3.9a1.78 1.78 0 0 1-.2.8c-.133.267-.3.467-.5.6l-7.4 4.2v4l6.9-3.9c.133-.133.267-.133.4 0s.2.333.2.6v3.9a1.78 1.78 0 0 1-.2.8c-.133.267-.267.467-.4.6l-6.9 4v4.1l7.6-4.4z"/><path d="M486.45 264.329c1.067-.6 2-.967 2.8-1.1.867-.2 1.567-.1 2.1.3.6.333 1.067.933 1.4 1.8.333.933.5 2.1.5 3.5 0 1.867-.267 3.567-.8 5.1-.467 1.467-1.167 2.8-2.1 4l3 7.1v.3c0 .267-.033.5-.1.7a3.26 3.26 0 0 1-.4.5l-3.3 1.8c-.267.2-.467.233-.6.1a3.26 3.26 0 0 1-.4-.5l-2.6-6.3-2.2 1.2v7.9a1.99 1.99 0 0 1-.2.9c-.133.267-.3.433-.5.5l-3.1 1.8c-.2.133-.367.133-.5 0s-.2-.333-.2-.6v-23.9a1.78 1.78 0 0 1 .2-.8c.133-.267.3-.467.5-.6l6.5-3.7zm-2.8 12.8l2.8-1.6a3.84 3.84 0 0 0 1.6-1.5c.467-.667.7-1.5.7-2.5 0-1.067-.233-1.667-.7-1.8-.4-.133-.933 0-1.6.4l-2.8 1.5v5.5z" class="R"/><path d="M507.55 278.029c-.333.133-.567.167-.7.1-.2-.133-.3-.267-.3-.4l-5.5-9.5v12.6a1.78 1.78 0 0 1-.2.8c-.133.267-.3.433-.5.5l-3.1 1.8c-.2.133-.367.133-.5 0s-.2-.333-.2-.6v-23.9a1.78 1.78 0 0 1 .2-.8c.133-.267.3-.467.5-.6l2.5-1.4c.267-.133.467-.167.6-.1.2.133.333.267.4.4l5.5 9.5v-12.6a1.78 1.78 0 0 1 .2-.8c.067-.267.2-.433.4-.5l3.2-1.8c.133-.133.267-.133.4 0s.2.333.2.6v23.9a1.78 1.78 0 0 1-.2.8c-.133.267-.267.467-.4.6l-2.5 1.4z"/><path d="M523.55 242.929c.267-.2.5-.233.7-.1.2.2.333.433.4.7l5.2 20.2.1.5c0 .267-.067.5-.2.7a1.26 1.26 0 0 1-.3.5l-3.1 1.7c-.333.2-.567.233-.7.1a.68.68 0 0 1-.2-.5l-.7-2.7-6.4 3.7-.6 3.5-.3.8c-.133.267-.367.5-.7.7l-3 1.7c-.133.067-.267.067-.4 0-.067-.133-.1-.3-.1-.5 0-.133.033-.333.1-.6l5.2-26.4.3-1c.2-.333.467-.6.8-.8l3.9-2.2zm-3.9 18.4l3.9-2.2-2-7.8-1.9 10z" class="R"/><path d="M544.25 250.929c.2-.133.367-.133.5 0s.2.333.2.6v3.9a1.78 1.78 0 0 1-.2.8c-.133.267-.3.467-.5.6l-11.1 6.4c-.2.133-.367.133-.5 0s-.2-.333-.2-.6v-23.9a1.78 1.78 0 0 1 .2-.8c.133-.267.3-.467.5-.6l3.1-1.8c.2-.133.367-.133.5 0s.2.333.2.6v19l7.3-4.2zm14.7-28.9c1-.6 1.933-.9 2.8-.9.867-.067 1.6.1 2.2.5.667.333 1.167.833 1.5 1.5s.533 1.367.6 2.1c0 .267-.067.5-.2.7-.067.2-.167.333-.3.4l-3.2 1.9c-.2.133-.367.167-.5.1-.133 0-.267-.067-.4-.2-.067 0-.167-.067-.3-.2-.067-.133-.2-.233-.4-.3s-.433-.1-.7-.1c-.333.067-.7.2-1.1.4l-.9.6c-.267.267-.5.533-.7.8s-.367.567-.5.9c-.2.267-.3.6-.3 1s.1.667.3.8c.133.133.367.2.7.2.4 0 .9-.067 1.5-.2l2.2-.6c.867-.2 1.633-.3 2.3-.3.667.067 1.2.3 1.6.7.467.333.8.867 1 1.6s.3 1.667.3 2.8a9.94 9.94 0 0 1-.5 3.7c-.4 1.2-.933 2.367-1.6 3.5-.667 1.067-1.433 2.033-2.3 2.9-.933.933-1.933 1.7-3 2.3-1.067.667-2.067 1.033-3 1.1-.867.067-1.633-.1-2.3-.5-.6-.333-1.1-.833-1.5-1.5-.4-.733-.6-1.567-.6-2.5 0-.2.067-.4.2-.6.067-.267.167-.433.3-.5l3.2-1.8c.2-.133.367-.2.5-.2s.267.067.4.2l.3.3a3.26 3.26 0 0 0 .5.4c.2.133.467.167.8.1.333 0 .733-.133 1.2-.4.867-.533 1.6-1.1 2.2-1.7.533-.6.8-1.267.8-2 0-.4-.1-.633-.3-.7-.2-.133-.5-.2-.9-.2l-1.6.3-2.3.6c-1.667.4-2.9.2-3.7-.6-.733-.867-1.1-2.367-1.1-4.5 0-1 .167-2.1.5-3.3.267-1.133.7-2.233 1.3-3.3s1.333-2.067 2.2-3c.8-.933 1.733-1.7 2.8-2.3zm22.6 7.3c.2-.067.367-.033.5.1.067.133.1.333.1.6v3.9a3.27 3.27 0 0 1-.1.8c-.133.267-.3.467-.5.6l-11.4 6.5c-.2.133-.367.133-.5 0-.067-.133-.1-.333-.1-.6v-23.9a3.27 3.27 0 0 1 .1-.8c.133-.267.3-.467.5-.6l11.2-6.4c.2-.133.367-.133.5 0s.2.333.2.6v3.9a1.78 1.78 0 0 1-.2.8c-.133.267-.3.467-.5.6l-7.4 4.3v4l6.9-4c.133-.133.267-.133.4 0s.2.333.2.6v3.9a1.78 1.78 0 0 1-.2.8c-.133.333-.267.533-.4.6l-6.9 4v4.1l7.6-4.4z"/><path d="M592.75 202.929c1.067-.6 2-.967 2.8-1.1.867-.133 1.567-.033 2.1.3.6.333 1.067.967 1.4 1.9.333.867.5 2.033.5 3.5 0 1.8-.267 3.467-.8 5-.467 1.533-1.167 2.867-2.1 4l3 7.1v.4a1.88 1.88 0 0 1-.1.6c-.133.267-.267.433-.4.5l-3.2 1.9c-.333.2-.567.2-.7 0l-.4-.4-2.6-6.4-2.2 1.3v7.9a1.78 1.78 0 0 1-.2.8c-.133.267-.3.433-.5.5l-3.1 1.9c-.2.067-.367.033-.5-.1-.133-.067-.2-.267-.2-.6v-23.9a1.78 1.78 0 0 1 .2-.8c.133-.267.3-.433.5-.5l6.5-3.8zm-2.8 12.7l2.8-1.5a4.59 4.59 0 0 0 1.6-1.6c.467-.667.7-1.5.7-2.5 0-1.067-.233-1.667-.7-1.8-.4-.133-.933 0-1.6.4l-2.8 1.6v5.4z" class="R"/><path d="M607.45 220.329c-.667.4-1.1.167-1.3-.7l-4.9-20.3-.1-.3v-.2c0-.2.067-.4.2-.6.067-.267.167-.433.3-.5l3.1-1.7c.333-.2.567-.233.7-.1a.68.68 0 0 1 .2.5l3.4 14.3 3.3-18.2c0-.2.067-.467.2-.8.2-.267.433-.5.7-.7l3.1-1.7c.133-.067.233-.067.3 0a.68.68 0 0 1 .2.5v.1c0 .067-.033.2-.1.4l-4.9 26c-.2 1.067-.633 1.8-1.3 2.2l-3.1 1.8zm24.2-19.9c.2-.133.367-.133.5 0s.2.333.2.6v3.9a1.78 1.78 0 0 1-.2.8c-.133.333-.3.533-.5.6l-11.3 6.6c-.2.067-.367.067-.5 0-.133-.133-.2-.333-.2-.6v-24a1.78 1.78 0 0 1 .2-.8c.133-.267.3-.433.5-.5l11.2-6.5c.133-.067.267-.067.4 0 .133.133.2.333.2.6v4a1.78 1.78 0 0 1-.2.8c-.133.267-.267.433-.4.5l-7.4 4.3v4l6.8-4c.2-.067.367-.033.5.1s.2.333.2.6v3.9a1.78 1.78 0 0 1-.2.8c-.133.267-.3.467-.5.6l-6.8 3.9v4.2l7.5-4.4z"/><path d="M642.85 173.929c1.067-.6 2.033-.967 2.9-1.1.8-.133 1.5-.033 2.1.3.6.4 1.033 1.033 1.3 1.9.333.933.5 2.1.5 3.5 0 1.867-.233 3.533-.7 5-.533 1.533-1.267 2.9-2.2 4.1l3 7c.067.133.1.267.1.4 0 .2-.067.433-.2.7-.067.2-.167.333-.3.4l-3.3 1.9c-.333.2-.567.233-.7.1a1.26 1.26 0 0 1-.3-.5l-2.7-6.4-2.2 1.3v7.9a1.78 1.78 0 0 1-.2.8c-.133.267-.267.467-.4.6l-3.2 1.8c-.2.133-.333.133-.4 0-.133-.133-.2-.333-.2-.6v-23.9a1.78 1.78 0 0 1 .2-.8.97.97 0 0 1 .4-.6l6.5-3.8zm-2.7 12.8l2.7-1.6a6.12 6.12 0 0 0 1.7-1.5c.4-.667.6-1.533.6-2.6 0-1-.2-1.567-.6-1.7-.467-.133-1.033-.033-1.7.3l-2.7 1.6v5.5z" class="R"/><path d="M504.55 366.429c-1.1-1.2-3.2-.9-4.4.5-1.3 1.7-1.5 6.8-2 10.3-.7 3.7-1.8 7.3-3.4 10.7-2.8 5.8-6.8 11.1-11.4 15.7-6.3 6.2-13.8 11-21.9 14.6-2.8 1.2-5.6 2.1-8.5 2.9-2.8.8-6.7.9-9.1 2.5-.4.2-.3 1.1 0 1.2 3 1.3 6.7.7 9.8.3 4-.5 7.9-1.7 11.6-3.2 7.7-2.9 14.7-7.3 20.9-12.7 6-5.2 11.3-11.4 14.9-18.5 1.9-3.9 3.4-7.9 4.1-12.2.4-2.1.9-4.5.9-6.6 0-2.5.1-3.7-1.5-5.5z"/></g><defs><path id="A" d="M293.05 617.429l117.5 67.8 108-62.4-117.5-67.8-108 62.4z"/><path id="B" d="M102.25 304.729v397.7c0 2.7 2 6.1 4.4 7.5l130.9 75.6c1.2.7 2.8 1.1 4.4 1.1v-407.8c-1.6 0-3.1-.3-4.4-1l-130.9-75.6-1.2-1-1.5-1.3c-1 1.5-1.7 3.2-1.7 4.8z"/><path id="C" d="M106.65 297.129l141.6-81.7c2.4-1.4 6.4-1.4 8.8 0l130.9 75.6c2.4 1.4 2.4 3.6 0 5l-141.6 81.8c-2.4 1.4-6.3 1.4-8.8 0l-130.9-75.6c-2.4-1.4-2.4-3.7 0-5.1z"/><path id="D" d="M277.75 677.429c-.2 0-.5-.2-.5-.5v-11.4c0-.3.3-.5.5-.5a.47.47 0 0 1 .5.5v11.4a.47.47 0 0 1-.5.5z"/><path id="E" d="M328.55 608.329c-1.6.9-2.9 3.1-2.9 4.9s1.3 2.5 2.9 1.6c1.5-.9 2.8-3.1 2.8-4.9s-1.3-2.5-2.8-1.6z"/><path id="F" d="M328.55 682.129c-1.6.9-2.9 3.1-2.9 4.9s1.3 2.5 2.9 1.6c1.5-.9 2.8-3 2.8-4.8s-1.3-2.6-2.8-1.7z"/><path id="G" d="M370.15 655.229c.8.7-.1 1.7-.9 1.1-3.9-2.8-9.5-2.1-13.2.8-1.7 1.3-3 3.1-3.3 5.2-.3 1.4-.1 2.8.4 4.1 2.2-.5 4.5-.6 6.8-.4 3.3.3 11 3.8 6.2 7.6-4.9 3.8-11.3-.3-14.2-4.8-3.6 1.4-6.6 4.1-7 8.3-.2 1.7.1 3.5.8 5.2 2.1-2.2 5-3.6 8.3-3.5 3 0 6.2 1.4 8.1 3.7 1.8 2.1 2.1 5.2.2 7.4-3.1 3.7-9.9 2-13.4-.3-1.3-.9-2.4-1.9-3.4-3.2-1.3 2.9-1.4 6.3-.3 9.2 1.7 4 5.4 7 9.4 8.6l-1.7 1-.6-.2c-5.7-2.2-10.2-7.5-10.2-13.8 0-2.5.7-4.9 2-6.9-1.8-3.5-2.3-7.8-.4-11.3 1.7-3 4.3-4.9 7.3-6-4.1-10.1 11.4-18.9 19.1-11.8zm-23.3 29.1c1.3 2 3.1 3.6 5.2 4.5 2.7 1.2 8.6 2.4 9.2-2 .3-2.5-2-4.4-4.1-5.3-2.4-1.1-5.1-.9-7.4.3-1.1.7-2.1 1.5-2.9 2.5zm7.3-16c.133.2.3.4.5.6 1.4 1.8 3.3 3.4 5.5 4 1.1.3 2.2.3 3.2-.1.7-.3 1.9-.9 2-1.8.2-1.3-2.5-2.2-3.5-2.5-2-.7-4-.7-6.1-.5a13.63 13.63 0 0 0-1.6.3z"/><path id="H" d="M419.85 682.029c-.2 1-1.5.9-1.5-.1.1-4.9-3.6-9-8.1-10.4-2-.7-4.2-.7-6.2.2-1.3.6-2.3 1.5-3.1 2.6 1.7 1.6 3.1 3.4 4.2 5.4 1.6 2.9 3.2 11.2-2.7 9.4-6-1.9-6.2-9.4-4.2-14.3-3.1-2.3-7.1-3.2-10.8-1.1-1.5.8-2.8 2.1-3.7 3.6 3 .5 5.7 2.1 7.6 4.8 1.6 2.5 2.2 5.9 1.4 8.8-.7 2.6-3 4.7-5.9 4.4-4.8-.5-7.3-7.1-7.3-11.3-.1-1.5.1-3 .6-4.5-1.2.2-2.4.6-3.6 1.2-1.6.9-3.1 2.2-4.1 3.7-1.9 3-2.5 6.7-2.2 10.3.067.133.1.267.1.4l-1.5.9-.2-.4a17.06 17.06 0 0 1-.3-1.8c-.6-5.5 1.3-11.3 5.9-14.4.733-.533 1.5-.967 2.3-1.3 1.5-.6 3-1 4.6-1 1.8-3.5 5.1-6.3 9.1-6.7 3.4-.4 6.4.7 9 2.5 6-9.1 22-1.3 20.6 9.1zm-37.2-2.7c-.9 2.2-1.2 4.6-.8 6.8.6 3 3 8.5 6.9 6.5 2.3-1.2 2.5-4.2 2.1-6.4-.5-2.5-2.2-4.7-4.5-5.9-1.2-.6-2.433-.933-3.7-1zm17.3-3.1l-.2.8c-.7 2.2-1 4.7-.2 6.8.4 1.1 1 2 2 2.6.6.4 1.8 1 2.5.6 1.3-.6.5-3.4.2-4.3-.6-2-1.8-3.7-3.2-5.3-.333-.4-.7-.8-1.1-1.2z"/><path id="I" d="M221.45 385.729c-4.6-2.6-8.2-.2-8.2 5.4v200.8c0 5.6 3.6 12.2 8.2 14.8 4.5 2.7 8.2.3 8.2-5.3v-200.8c0-5.6-3.7-12.2-8.2-14.9z"/><path id="J" d="M196.75 371.529c-4.5-2.6-8.2-.2-8.2 5.4v200.7c0 5.6 3.7 12.3 8.2 14.9 4.6 2.6 8.2.2 8.2-5.3v-200.8c0-5.6-3.6-12.3-8.2-14.9z"/><path id="K" d="M172.15 357.329c-4.6-2.6-8.2-.3-8.2 5.3v200.8c0 5.6 3.6 12.3 8.2 14.9 4.5 2.6 8.2.2 8.2-5.4v-200.7c0-5.6-3.7-12.3-8.2-14.9z"/><path id="L" d="M147.45 343.129c-4.5-2.7-8.2-.3-8.2 5.3v200.8c0 5.6 3.7 12.2 8.2 14.9 4.6 2.6 8.2.2 8.2-5.4v-200.8c0-5.6-3.6-12.2-8.2-14.8z"/><path id="M" d="M122.85 328.829c-4.6-2.6-8.2-.2-8.2 5.4v200.7c0 5.6 3.6 12.3 8.2 14.9 4.5 2.7 8.2.3 8.2-5.3v-200.8c0-5.6-3.7-12.2-8.2-14.9z"/><path id="N" d="M118.25 626.129l2.1-1.3h.1c.7-.4 1.7-.3 2.8.3 2.2 1.3 4 4.4 4 7 0 1.3-.4 2.2-1.1 2.6l-2 1.2-.4-.6c-.333-.067-.7-.233-1.1-.5-2.3-1.3-4.1-4.4-4.1-7 0-.4.033-.733.1-1l-.4-.7z"/><path id="O" d="M121.15 626.329c2.3 1.3 4.1 4.4 4.1 7s-1.8 3.6-4.1 2.3c-2.2-1.3-4-4.4-4-7s1.8-3.6 4-2.3z"/><path id="P" d="M113.85 570.129l16.4 9.4c2.6 1.5 4.6 5.1 4.6 8.1v9.4c0 3-2 4.2-4.6 2.7l-16.4-9.4c-2.6-1.5-4.7-5.1-4.7-8.1v-9.4c0-3 2.1-4.2 4.7-2.7z"/><path id="Q" d="M118.25 580.729l2.1-1.2h.1c.7-.4 1.7-.4 2.8.3 2.2 1.3 4 4.4 4 7 0 1.3-.4 2.2-1.1 2.6l-2 1.1-.4-.6c-.333-.067-.7-.2-1.1-.4-2.3-1.3-4.1-4.4-4.1-7a5.59 5.59 0 0 1 .1-1.1l-.4-.7z"/><path id="R" d="M121.15 581.029c2.3 1.2 4.1 4.4 4.1 7 0 2.5-1.8 3.6-4.1 2.3-2.2-1.3-4-4.4-4-7s1.8-3.6 4-2.3z"/><path id="S" d="M279.75 596.429c-2.3 1.3-4.1 4.5-4.1 7.1 0 2.5 1.8 3.6 4.1 2.3 2.2-1.3 4-4.4 4-7s-1.8-3.6-4-2.4z"/><path id="T" d="M262.15 606.629c-2.2 1.3-4 4.4-4 7s1.8 3.6 4 2.3 4.1-4.4 4.1-7-1.9-3.6-4.1-2.3z"/><path id="U" d="M148.05 586.229l79.6 45.9c1.4.8 2.6 2.8 2.6 4.5v22c0 1.6-1.2 2.3-2.6 1.4l-79.6-45.9c-1.4-.8-2.5-2.8-2.5-4.4v-22c0-1.7 1.1-2.3 2.5-1.5z"/><path id="V" d="M150.35 595.929c0 1.5 1.1 3.4 2.6 4.3l69.9 40.3c1.4.8 2.6.2 2.6-1.3 0-1.6-1.2-3.5-2.6-4.3l-69.9-40.3c-1.5-.8-2.6-.3-2.6 1.3z"/><path id="W" d="M150.35 607.129c0 1.5 1.1 3.4 2.6 4.2l69.9 40.4c1.4.8 2.6.2 2.6-1.3 0-1.6-1.2-3.5-2.6-4.3l-69.9-40.3c-1.5-.9-2.6-.3-2.6 1.3z"/><path id="X" d="M152.95 605.829l38.6 22.2v5.6l-38.6-22.3c-1.5-.8-2.6-2.7-2.6-4.2 0-1.6 1.1-2.2 2.6-1.3z"/><path id="Y" d="M150.35 652.529c0 1.6 1.1 3.5 2.6 4.3l69.9 40.3c1.4.8 2.6.3 2.6-1.3 0-1.5-1.2-3.4-2.6-4.3l-69.9-40.3c-1.5-.8-2.6-.2-2.6 1.3z"/><path id="Z" d="M113.85 661.029l16.4 9.5c2.6 1.4 4.6 5.1 4.6 8v9.4c0 3-2 4.2-4.6 2.7l-16.4-9.4c-2.6-1.5-4.7-5.1-4.7-8.1v-9.4c0-2.9 2.1-4.2 4.7-2.7z"/><path id="a" d="M118.25 671.729l2.1-1.3h.1c.7-.4 1.7-.3 2.8.3 2.2 1.3 4 4.4 4 7 0 1.3-.4 2.2-1.1 2.6l-2 1.2-.4-.6-1.1-.5c-2.3-1.3-4.1-4.4-4.1-7 0-.4.033-.733.1-1l-.4-.7z"/><path id="b" d="M248.65 358.329l101.6-58.6c1.4-.8 2.6-2.9 2.6-4.5v-3.5c0-1.6-1.2-3.7-2.6-4.5l-101.6-58.7c-1.4-.8-3.8-.8-5.2 0l-101.6 58.7c-1.4.8-2.6 2.9-2.6 4.5v3.5c0 1.6 1.2 3.7 2.6 4.5l101.6 58.6c1.4.9 3.8.9 5.2 0z"/><path id="c" d="M350.25 290.229l-101.6 58.6c-1.4.9-3.8.9-5.2 0l-101.6-58.6c-1.4-.8-1.4-2.2 0-3l101.6-56.6c1.4-.9 3.8-.9 5.2 0l101.6 56.6c1.4.8 1.4 2.2 0 3z"/><path id="d" d="M246.05 349.529v9.5c.9 0 1.9-.2 2.6-.7l101.6-58.6c1.4-.8 2.6-2.9 2.6-4.6v-3.4c0-1.5-.9-3.2-2.1-4.2.9.8.8 2-.5 2.7l-101.6 58.6c-.7.5-1.7.7-2.6.7z"/><path id="e" d="M300.75 278.429c-1.7-1-4.5-1-6.2 0s-1.7 2.6 0 3.5c1.7 1 4.5 1 6.2 0 1.7-.9 1.7-2.5 0-3.5z"/><path id="f" d="M288.35 285.529c-1.7-1-4.4-1-6.1 0s-1.7 2.6 0 3.6c1.7.9 4.4.9 6.1 0 1.7-1 1.7-2.6 0-3.6z"/><path id="g" d="M276.05 292.629c-1.7-1-4.5-1-6.2 0s-1.7 2.6 0 3.6 4.5 1 6.2 0 1.7-2.6 0-3.6z"/><path id="h" d="M263.75 299.729c-1.7-.9-4.5-.9-6.2 0-1.7 1-1.7 2.6 0 3.6s4.5 1 6.2 0 1.7-2.6 0-3.6z"/><path id="i" d="M279.15 280.229c-1.7-1-4.5-1-6.2 0-1.7.9-1.7 2.5 0 3.5s4.5 1 6.2 0 1.7-2.6 0-3.5z"/><path id="j" d="M251.35 306.729c-1.7-1-4.5-1-6.2 0s-1.7 2.6 0 3.6c1.7.9 4.5.9 6.2 0 1.7-1 1.7-2.6 0-3.6z"/><path id="k" d="M347.85 822.729c0-.2-.1-.4-.3-.6l-3.3-2.3v-7.9c.133-.067.3-.1.5-.1l11-.7c.6 0 1-.5 1-1.1v14.1c0 .6-.4 1.1-1 1.1h-.1l-6.3.4-1.5.1v-3z"/><path id="l" d="M328.35 824.129c.267 0 .467.033.6.1l8.4 3.9c.3.2.7.2 1.1.2v14c-.2.067-.367.067-.5 0-.2 0-.4 0-.6-.1l-8.4-3.9c-.1-.1-.4-.1-.6-.1v-14.1z"/><path id="m" d="M318.15 832.829a.88.88 0 0 0 .1-.4l1.1-5.5a.68.68 0 0 1 .2-.5v14.1c-.133.134-.2.267-.2.4l-1.1 5.5c0 .2-.1.2-.1.3v-13.9z"/><path id="n" d="M426.65 765.729v12.4c0 .067-.033.133-.1.2l-3.4 4.7c-.2.3-.7.5-1.2.4l-7.9-1.3c-.4-.1-1.1 0-1.4.2a11.32 11.32 0 0 1-1.9 1.2v6.5c0 .3-.2.4-.4.5l-8.6 2.1c-.4 0-1-.2-1.3-.6l-3.6-3.7c-.3-.3-1-.6-1.4-.6a36.59 36.59 0 0 1-5.4 0 2.84 2.84 0 0 0-1.3.4l-3.9 4.2c-.2.2-.8.3-1.3.2l-8.3-2c-.4-.1-.6-.3-.6-.6v-6.4l-1.6-1c-.4-.3-1.1-.5-1.6-.5l-8.1 1.4c-.4.1-.9-.2-1.2-.6l-3.1-4.3c-.133-.2-.2-.367-.2-.5v-9.9c-.067-.067-.1-.133-.1-.2l.1-12.4v-.2l3.4-4.8c.2-.2.8-.4 1.3-.3l7.8 1.3c.5.1 1.1 0 1.4-.2.6-.467 1.267-.9 2-1.3v-6.3-.1c0-.3.1-.5.4-.5l8.6-2.1c.4-.1 1 .1 1.3.5l3.5 3.7c.4.4 1.1.7 1.5.7a48.05 48.05 0 0 1 5.4-.1c.4.1 1-.1 1.2-.4l4-4.1c.2-.2.8-.4 1.3-.2l8.2 1.9c.4.1.7.4.7.6v6.5c.533.267 1.067.6 1.6 1 .4.3 1.1.5 1.5.4l8.1-1.3c.4-.1 1 .2 1.3.6l3.1 4.3a.68.68 0 0 1 .2.5v9.9.2zm-44.5 1.1c1.333.733 2.933 1.333 4.8 1.8 5.8 1.4 12.2.6 16.4-1.8a14.21 14.21 0 0 0 1.2-.9c-.333-.2-.7-.433-1.1-.7-5.9-3.4-15.4-3.4-21.3 0a9.31 9.31 0 0 0-1.2.8 9.31 9.31 0 0 0 1.2.8z"/><path id="o" d="M410.75 777.729v5.8 2.3 1.1 3.1c0 .3-.2.4-.4.5l-8.6 2c-.133.067-.333.067-.6 0v-12.4c.267.133.467.167.6.1l8.6-2.1c.2 0 .4-.2.4-.4z"/><path id="p" d="M426.65 765.729v12.4c0 .067-.033.133-.1.2l-3.4 4.7c-.1.2-.3.3-.5.4v-12.4l.6-.3 3.4-4.8v-.2z"/><path id="q" d="M515.75 795.029c-.2 4.1-5.9 4.9-5.9 4.9l10.8 18.8s3.6-4.5 7.3-2.7h-.1c5.4 2.3 9.5-.6 9.5-6.9 0-7-4.8-15.4-10.8-18.8-5.5-3.2-10.1-1.1-10.8 4.7z"/><path id="r" d="M517.05 820.829c0-6.9-4.8-15.3-10.8-18.8s-10.9-.6-10.9 6.3 4.9 15.3 10.9 18.7c6 3.5 10.8.7 10.8-6.2z"/><path id="s" d="M769.35 267.829l47.6-3.5c9.2 6.9 26.3 21.6 26.3 25.7v2.8c0 .133-.033.267-.1.4-1.7 3.2-7.8 5.1-17.2 5.3-11.2.2-28.7-.8-33.2-4.8-6.9-5.9-23.4-23.2-23.4-23.2l2.4-.2-2.4-2.5z"/><path id="t" d="M816.95 266.929c9.6 7.3 27.9 23 26.2 26.3-1.7 3.2-7.8 5.1-17.2 5.3-11.2.2-28.7-.8-33.2-4.8-6.9-5.9-23.4-23.2-23.4-23.2l47.6-3.6z"/><path id="u" d="M816.95 266.929c.1 1.4-4.7 4.3-4.7 4.3l1.3-8.4 3.4 4.1z"/><path id="v" d="M817.15 772.329c0 1.9-.2 3.8-.7 5.7-1.1 4-2.9 7.8-4.9 11.4-1 1.9-2.1 3.7-3.4 5.4-2.5 3.4-5.7 6.2-8.4 9.4-2.6 3.2-4.9 7-4.9 11.1 0 7 7.7 9 13.6 9.7 6.3.8 12.9.1 18.8-2 6.7-2.2 11.2-7.7 12-14.5.2-2 0-3.9.1-5.9.3-4.4 2.4-8.6 4.8-12.4 1.4-2.3 2.9-4.4 3.8-6.9 1.5-4.4-.2-9.2-1.6-13.4-1.2-3.6-2.1-8-3.4-7.6v2.4c-.4.8-1.3 1.4-1.5 2.3-.2 1-.5 2-.9 3-.6 1.4-1.6 2.7-2.9 3.5l-.7-7.8c-.1-.8-.2-1.7-.7-2.3-.6-.6-1.5-.7-2.3-.8-5-.7-10-1.3-14.9-.5-.8.1-1.6.4-2 1-.3.5-.3 1.2-.2 1.8.2 2.5.4 5 .3 7.4z"/><path id="w" d="M737.25 746.829c-1.1-.2-2.1-.6-3.3-1-.7-.1-1.4-.3-1.9-.1-.8.4-1.1 1.4-1.3 2.2-.3 1.8-.4 4-1.1 5.6-.6 1.5-2.2 2.9-3.4 4-2.9 2.8-6.4 5-9.8 7.1-4.1 2.5-8.1 4.4-12.3 6.6s-10 3.7-13.3 6.2c-4.8 3.7-5 12.2.8 15.2 5.1 2.7 18.2 5.1 31.6.5 7.3-2.5 15.1-10.8 24.8-12.1 6.1-.8 14.3-1.8 18.1-6.7 1.3-2.1.1-8.2-1-15.3-1-6.4-1.9-16.4-3.9-15.7l-.9 2.6c-.5.8-1.1 1.5-1.7 2.3-.5.6-1.2 1-1.7 1.6-.8.7-1.4 1.6-2.2 2.2-1 .9-2.3 1.5-3.6 1.5-.6 0-1.2-.1-1.8-.4-1-.6-1.2-1.9-2-2.8-1-1-2.2-1.7-3.4-2.2-1.8-.7-3.7-1-5.6-1.2a5.59 5.59 0 0 1-1.1-.1z"/></defs></svg>