<svg xmlns="http://www.w3.org/2000/svg" width="24" height="24" fill="none" stroke="#720e9e" stroke-width="1.5"><path d="M20.358 13.357c-1.189 1.189-3.428 1.143-6.859 1.143-2.208 0-3.998-1.793-3.999-4.001 0-3.429-.046-5.669 1.143-6.858S12.358 2.5 17.627 2.5a.57.57 0 0 1 .406.974L15.32 6.187c-.689.689-.691 1.805-.002 2.494s1.805.689 2.494 0l2.714-2.713a.57.57 0 0 1 .974.405c0 5.268.048 5.794-1.141 6.983z"/><g stroke-linecap="round"><path d="M13.5 14.5l-6.172 6.172a2.83 2.83 0 0 1-4 0 2.83 2.83 0 0 1 0-4L9.5 10.5"/><path d="M5.509 18.5H5.5" stroke-linejoin="round"/></g></svg>