<svg xmlns="http://www.w3.org/2000/svg" width="256" height="256" fill="none"><rect width="256" height="256" rx="24" fill="#404040"/><circle cx="128" cy="128" r="96" fill="#fff"/><path d="M94.867 174.407l54.266-92.946h11.2l-54.266 92.946h-11.2zM155.8 176c-4 0-7.6-.885-10.8-2.656-3.2-1.859-5.778-4.47-7.733-7.834-1.867-3.363-2.8-7.303-2.8-11.817 0-4.603.933-8.542 2.8-11.817 1.955-3.364 4.533-5.931 7.733-7.702 3.2-1.859 6.8-2.788 10.8-2.788 4.089 0 7.689.929 10.8 2.788 3.2 1.771 5.733 4.338 7.6 7.702 1.867 3.275 2.8 7.214 2.8 11.817 0 4.514-.933 8.454-2.8 11.817s-4.4 5.975-7.6 7.834c-3.2 1.771-6.8 2.656-10.8 2.656zm-.133-8.631c2.133 0 4.089-.487 5.866-1.46 1.778-1.063 3.2-2.612 4.267-4.648 1.156-2.036 1.733-4.558 1.733-7.568 0-3.098-.533-5.665-1.6-7.701s-2.489-3.541-4.266-4.515c-1.778-1.062-3.734-1.593-5.867-1.593-2.044 0-4 .531-5.867 1.593-1.777.974-3.244 2.479-4.4 4.515-1.066 2.036-1.6 4.603-1.6 7.701 0 3.01.534 5.532 1.6 7.568 1.156 2.036 2.623 3.585 4.4 4.648 1.778.973 3.689 1.46 5.734 1.46zm-55.334-42.755c-4 0-7.6-.885-10.8-2.655-3.2-1.859-5.778-4.471-7.733-7.835-1.867-3.363-2.8-7.302-2.8-11.817 0-4.603.933-8.542 2.8-11.817 1.956-3.364 4.533-5.931 7.733-7.701C92.822 80.93 96.467 80 100.467 80s7.6.93 10.8 2.788c3.2 1.77 5.733 4.338 7.6 7.701 1.866 3.275 2.8 7.214 2.8 11.817 0 4.515-.934 8.454-2.8 11.817s-4.445 5.976-7.734 7.835c-3.2 1.77-6.8 2.655-10.8 2.655zm0-8.631c2.134 0 4.089-.486 5.867-1.46 1.778-1.062 3.2-2.612 4.267-4.647s1.6-4.559 1.6-7.569c0-3.098-.534-5.665-1.6-7.701-1.067-2.124-2.489-3.674-4.267-4.647-1.778-1.062-3.689-1.593-5.733-1.593s-4 .531-5.867 1.593c-1.867.974-3.378 2.523-4.533 4.647-1.067 2.036-1.6 4.603-1.6 7.701 0 3.01.533 5.533 1.6 7.569 1.156 2.035 2.622 3.585 4.4 4.647 1.867.974 3.822 1.46 5.866 1.46z" fill="#404040"/></svg>