<svg width="256" height="256" viewBox="0 0 256 256" fill="none" xmlns="http://www.w3.org/2000/svg">
<rect width="256" height="256" rx="24" fill="#5C84FC"/>
<path d="M70.56 148.224C70.56 150.528 69.984 152.64 68.832 154.56C67.68 156.48 66.144 158.016 64.224 159.168C62.304 160.32 60.192 160.896 57.888 160.896H40.608C38.304 160.896 36.16 160.32 34.176 159.168C32.256 158.016 30.72 156.48 29.568 154.56C28.416 152.64 27.84 150.528 27.84 148.224V141.312C27.84 140.096 28.256 139.072 29.088 138.24C29.984 137.344 31.04 136.896 32.256 136.896H34.944C36.16 136.896 37.184 137.344 38.016 138.24C38.912 139.072 39.36 140.096 39.36 141.312V148.224C39.36 148.544 39.488 148.864 39.744 149.184C40 149.44 40.288 149.568 40.608 149.568H57.888C58.208 149.568 58.496 149.44 58.752 149.184C59.008 148.864 59.136 148.544 59.136 148.224V100.416C59.136 99.136 59.552 98.08 60.384 97.248C61.28 96.416 62.336 96 63.552 96H66.144C67.424 96 68.48 96.416 69.312 97.248C70.144 98.08 70.56 99.136 70.56 100.416V148.224Z" fill="white"/>
<path d="M123.299 148.224C123.299 150.528 122.723 152.64 121.571 154.56C120.419 156.48 118.883 158.016 116.963 159.168C115.043 160.32 112.931 160.896 110.627 160.896H92.1952C89.8912 160.896 87.7472 160.32 85.7632 159.168C83.8432 158.016 82.3072 156.48 81.1552 154.56C80.0032 152.64 79.4272 150.528 79.4272 148.224V145.344C79.4272 144.128 79.8432 143.104 80.6752 142.272C81.5712 141.376 82.6272 140.928 83.8432 140.928H86.5312C87.6832 140.928 88.6752 141.376 89.5072 142.272C90.4032 143.104 90.8512 144.128 90.8512 145.344V148.224C90.8512 148.544 90.9792 148.864 91.2352 149.184C91.5552 149.44 91.8752 149.568 92.1952 149.568H110.627C110.947 149.568 111.235 149.44 111.491 149.184C111.747 148.864 111.875 148.544 111.875 148.224V139.488C111.875 138.784 111.555 138.336 110.915 138.144L87.8752 129.504C85.3152 128.608 83.2672 127.04 81.7312 124.8C80.1952 122.56 79.4272 120.096 79.4272 117.408V108.768C79.4272 106.4 80.0032 104.256 81.1552 102.336C82.3072 100.416 83.8432 98.88 85.7632 97.728C87.7472 96.576 89.8912 96 92.1952 96H110.627C112.931 96 115.043 96.576 116.963 97.728C118.883 98.88 120.419 100.416 121.571 102.336C122.723 104.256 123.299 106.4 123.299 108.768V111.36C123.299 112.576 122.851 113.6 121.955 114.432C121.123 115.264 120.099 115.68 118.883 115.68H116.291C115.075 115.68 114.019 115.264 113.123 114.432C112.291 113.6 111.875 112.576 111.875 111.36V108.768C111.875 107.872 111.459 107.424 110.627 107.424H92.1952C91.8752 107.424 91.5552 107.552 91.2352 107.808C90.9792 108.064 90.8512 108.384 90.8512 108.768V117.408C90.8512 118.176 91.1712 118.656 91.8112 118.848L114.947 127.488C117.443 128.384 119.459 129.952 120.995 132.192C122.531 134.432 123.299 136.864 123.299 139.488V148.224Z" fill="white"/>
<path d="M176.009 148.224C176.009 150.528 175.433 152.64 174.281 154.56C173.129 156.48 171.593 158.016 169.673 159.168C167.753 160.32 165.641 160.896 163.337 160.896H144.905C142.601 160.896 140.457 160.32 138.473 159.168C136.553 158.016 135.017 156.48 133.865 154.56C132.713 152.64 132.137 150.528 132.137 148.224V108.768C132.137 106.4 132.713 104.256 133.865 102.336C135.017 100.416 136.553 98.88 138.473 97.728C140.457 96.576 142.601 96 144.905 96H163.337C165.641 96 167.753 96.576 169.673 97.728C171.593 98.88 173.129 100.416 174.281 102.336C175.433 104.256 176.009 106.4 176.009 108.768V148.224ZM164.585 148.224V108.768C164.585 107.872 164.169 107.424 163.337 107.424H144.905C144.585 107.424 144.265 107.552 143.945 107.808C143.689 108.064 143.561 108.384 143.561 108.768V148.224C143.561 148.544 143.689 148.864 143.945 149.184C144.265 149.44 144.585 149.568 144.905 149.568H163.337C163.657 149.568 163.945 149.44 164.201 149.184C164.457 148.864 164.585 148.544 164.585 148.224Z" fill="white"/>
<path d="M228.719 156.48C228.719 157.696 228.271 158.752 227.375 159.648C226.543 160.48 225.519 160.896 224.303 160.896H221.519C219.791 160.896 218.511 160.16 217.679 158.688L197.231 123.264C197.103 123.008 196.911 122.944 196.655 123.072C196.399 123.136 196.271 123.264 196.271 123.456V156.48C196.271 157.696 195.823 158.752 194.927 159.648C194.095 160.48 193.103 160.896 191.951 160.896H189.263C188.047 160.896 186.991 160.48 186.095 159.648C185.263 158.752 184.847 157.696 184.847 156.48V100.416C184.847 99.136 185.263 98.08 186.095 97.248C186.991 96.416 188.047 96 189.263 96H192.047C193.775 96 195.055 96.736 195.887 98.208L216.335 133.632C216.527 133.888 216.719 133.984 216.911 133.92C217.167 133.856 217.295 133.696 217.295 133.44V100.416C217.295 99.136 217.711 98.08 218.543 97.248C219.439 96.416 220.495 96 221.711 96H224.303C225.519 96 226.543 96.416 227.375 97.248C228.271 98.08 228.719 99.136 228.719 100.416V156.48Z" fill="white"/>
</svg>
