<svg xmlns="http://www.w3.org/2000/svg" width="256" height="256" fill="none"><rect width="256" height="256" rx="24" fill="#64c264"/><path d="M93.72 148.224c0 2.304-.576 4.416-1.728 6.336s-2.688 3.456-4.608 4.608-4.032 1.728-6.336 1.728h-17.28a12.59 12.59 0 0 1-6.432-1.728c-1.92-1.152-3.456-2.688-4.608-4.608S51 150.528 51 148.224v-39.456c0-2.368.576-4.512 1.728-6.432s2.688-3.456 4.608-4.608A12.59 12.59 0 0 1 63.768 96h17.28c2.304 0 4.416.576 6.336 1.728s3.456 2.688 4.608 4.608 1.728 4.064 1.728 6.432v2.592c0 1.216-.416 2.24-1.248 3.072s-1.888 1.248-3.168 1.248h-2.592a4.5 4.5 0 0 1-3.168-1.248c-.832-.832-1.248-1.856-1.248-3.072v-2.592c0-.896-.416-1.344-1.248-1.344h-17.28c-.832 0-1.248.448-1.248 1.344v39.456c0 .32.128.64.384.96.256.256.544.384.864.384h17.28c.32 0 .608-.128.864-.384.256-.32.384-.64.384-.96v-2.88c0-1.216.416-2.24 1.248-3.072.896-.896 1.952-1.344 3.168-1.344h2.592c1.28 0 2.336.448 3.168 1.344.832.832 1.248 1.856 1.248 3.072v2.88zm52.739 0c0 2.304-.576 4.416-1.728 6.336s-2.688 3.456-4.608 4.608-4.032 1.728-6.336 1.728h-18.432a12.59 12.59 0 0 1-6.432-1.728c-1.92-1.152-3.456-2.688-4.608-4.608s-1.728-4.032-1.728-6.336v-2.88c0-1.216.416-2.24 1.248-3.072.896-.896 1.952-1.344 3.168-1.344h2.688c1.152 0 2.144.448 2.976 1.344.896.832 1.344 1.856 1.344 3.072v2.88c0 .32.128.64.384.96.32.256.64.384.96.384h18.432c.32 0 .608-.128.864-.384.256-.32.384-.64.384-.96v-8.736c0-.704-.32-1.152-.96-1.344l-23.04-8.64c-2.56-.896-4.608-2.464-6.144-4.704a12.79 12.79 0 0 1-2.304-7.392v-8.64c0-2.368.576-4.512 1.728-6.432s2.688-3.456 4.608-4.608A12.59 12.59 0 0 1 115.355 96h18.432c2.304 0 4.416.576 6.336 1.728s3.456 2.688 4.608 4.608 1.728 4.064 1.728 6.432v2.592c0 1.216-.448 2.24-1.344 3.072-.832.832-1.856 1.248-3.072 1.248h-2.592a4.5 4.5 0 0 1-3.168-1.248c-.832-.832-1.248-1.856-1.248-3.072v-2.592c0-.896-.416-1.344-1.248-1.344h-18.432c-.32 0-.64.128-.96.384-.256.256-.384.576-.384.96v8.64c0 .768.32 1.248.96 1.44l23.136 8.64c2.496.896 4.512 2.464 6.048 4.704s2.304 4.672 2.304 7.296v8.736zm58.374-46.464l-18.624 56.16c-.256.832-.8 1.536-1.632 2.112-.768.576-1.6.864-2.496.864h-3.936c-.896 0-1.728-.288-2.496-.864-.704-.576-1.216-1.28-1.536-2.112l-18.624-56.16c-.512-1.408-.32-2.72.576-3.936.832-1.216 2.016-1.824 3.552-1.824h2.784c2.112 0 3.52.992 4.224 2.976l12.96 39.552c.384.448.736.448 1.056 0l4.128-12.768 4.128-12.384 3.168-9.696 1.536-4.704c.32-.896.864-1.6 1.632-2.112.832-.576 1.696-.864 2.592-.864h2.784c1.536 0 2.72.608 3.552 1.824.896 1.152 1.12 2.464.672 3.936z" fill="#fff"/></svg>