<svg xmlns="http://www.w3.org/2000/svg" width="256" height="256" fill="none"><rect width="256" height="256" rx="24" fill="#fb2444"/><g fill="#fff"><path fill-rule="evenodd" d="M75.294 32a5.65 5.65 0 0 1 5.647 5.647v16.941h94.118V37.647A5.65 5.65 0 0 1 180.706 32a5.65 5.65 0 0 1 5.647 5.647v16.941h9.412c7.488 0 14.67 2.975 19.965 8.27S224 75.335 224 82.824v112.941c0 7.488-2.975 14.67-8.27 19.965S203.253 224 195.765 224H60.235c-7.489 0-14.67-2.975-19.965-8.27S32 203.253 32 195.765V82.824c0-7.488 2.975-14.67 8.27-19.965s12.477-8.27 19.965-8.27h9.412V37.647A5.65 5.65 0 0 1 75.294 32zM60.235 65.882a16.94 16.94 0 0 0-16.941 16.941v15.059a28.24 28.24 0 0 1 16.941-5.647h135.53a28.24 28.24 0 0 1 16.941 5.647V82.824a16.94 16.94 0 0 0-16.941-16.941H60.235zm152.471 54.589c0-4.493-1.785-8.803-4.962-11.98a16.94 16.94 0 0 0-11.979-4.962H60.235a16.94 16.94 0 0 0-11.979 4.962c-3.177 3.177-4.962 7.487-4.962 11.98v75.294a16.94 16.94 0 0 0 16.941 16.941h135.53a16.94 16.94 0 0 0 16.941-16.941v-75.294z"/><path d="M123.872 184.48c0 1.216-.448 2.272-1.344 3.168-.832.832-1.856 1.248-3.072 1.248H92.768a12.59 12.59 0 0 1-6.432-1.728c-1.92-1.152-3.456-2.688-4.608-4.608S80 178.528 80 176.224v-8.736c0-2.624.768-5.056 2.304-7.296s3.584-3.808 6.144-4.704l23.04-8.64c.64-.192.96-.672.96-1.44v-8.64c0-.896-.416-1.344-1.248-1.344H92.768c-.32 0-.64.128-.96.384-.256.256-.384.576-.384.96v2.592c0 1.216-.448 2.24-1.344 3.072-.832.832-1.856 1.248-3.072 1.248h-2.592a4.5 4.5 0 0 1-3.168-1.248C80.416 141.6 80 140.576 80 139.36v-2.592c0-2.368.576-4.512 1.728-6.432s2.688-3.456 4.608-4.608A12.59 12.59 0 0 1 92.768 124H111.2c2.304 0 4.416.576 6.336 1.728s3.456 2.688 4.608 4.608 1.728 4.064 1.728 6.432v8.64a12.79 12.79 0 0 1-2.304 7.392c-1.536 2.24-3.552 3.808-6.048 4.704l-23.136 8.64c-.64.192-.96.64-.96 1.344v8.736c0 .32.128.64.384.96.32.256.64.384.96.384h26.688c1.216 0 2.24.416 3.072 1.248.896.832 1.344 1.888 1.344 3.168v2.496zm52.71-53.472c0 1.344-.448 2.4-1.344 3.168-.832.832-1.856 1.248-3.072 1.248h-26.784c-.832 0-1.248.416-1.248 1.248v10.176c0 .896.416 1.344 1.248 1.344h18.528c2.368 0 4.48.576 6.336 1.728 1.92 1.152 3.456 2.688 4.608 4.608 1.152 1.856 1.728 3.968 1.728 6.336v15.36c0 2.304-.576 4.416-1.728 6.336s-2.688 3.456-4.608 4.608-4.032 1.728-6.336 1.728h-18.432a12.59 12.59 0 0 1-6.432-1.728c-1.92-1.152-3.456-2.688-4.608-4.608s-1.728-4.032-1.728-6.336v-6.912c0-1.216.416-2.24 1.248-3.072.896-.896 1.952-1.344 3.168-1.344h2.688c1.152 0 2.144.448 2.976 1.344.896.832 1.344 1.856 1.344 3.072v6.912c0 .32.128.64.384.96.32.256.64.384.96.384h18.432c.32 0 .608-.128.864-.384.256-.32.384-.64.384-.96v-15.36c0-.32-.128-.608-.384-.864-.256-.32-.544-.48-.864-.48h-26.784c-1.28 0-2.304-.448-3.072-1.344-.896-.768-1.344-1.792-1.344-3.072v-26.688c0-1.28.416-2.336 1.248-3.168a4.5 4.5 0 0 1 3.168-1.248h35.04c1.216 0 2.24.416 3.072 1.248.896.832 1.344 1.888 1.344 3.168v2.592z"/></g></svg>