<svg width="256" height="256" viewBox="0 0 256 256" fill="none" xmlns="http://www.w3.org/2000/svg">
<rect width="256" height="256" rx="24" fill="#64C264"/>
<path d="M93.72 148.224C93.72 150.528 93.144 152.64 91.992 154.56C90.84 156.48 89.304 158.016 87.384 159.168C85.464 160.32 83.352 160.896 81.048 160.896H63.768C61.464 160.896 59.32 160.32 57.336 159.168C55.416 158.016 53.88 156.48 52.728 154.56C51.576 152.64 51 150.528 51 148.224V108.768C51 106.4 51.576 104.256 52.728 102.336C53.88 100.416 55.416 98.88 57.336 97.728C59.32 96.576 61.464 96 63.768 96H81.048C83.352 96 85.464 96.576 87.384 97.728C89.304 98.88 90.84 100.416 91.992 102.336C93.144 104.256 93.72 106.4 93.72 108.768V111.36C93.72 112.576 93.304 113.6 92.472 114.432C91.64 115.264 90.584 115.68 89.304 115.68H86.712C85.496 115.68 84.44 115.264 83.544 114.432C82.712 113.6 82.296 112.576 82.296 111.36V108.768C82.296 107.872 81.88 107.424 81.048 107.424H63.768C62.936 107.424 62.52 107.872 62.52 108.768V148.224C62.52 148.544 62.648 148.864 62.904 149.184C63.16 149.44 63.448 149.568 63.768 149.568H81.048C81.368 149.568 81.656 149.44 81.912 149.184C82.168 148.864 82.296 148.544 82.296 148.224V145.344C82.296 144.128 82.712 143.104 83.544 142.272C84.44 141.376 85.496 140.928 86.712 140.928H89.304C90.584 140.928 91.64 141.376 92.472 142.272C93.304 143.104 93.72 144.128 93.72 145.344V148.224Z" fill="white"/>
<path d="M146.459 148.224C146.459 150.528 145.883 152.64 144.731 154.56C143.579 156.48 142.043 158.016 140.123 159.168C138.203 160.32 136.091 160.896 133.787 160.896H115.355C113.051 160.896 110.907 160.32 108.923 159.168C107.003 158.016 105.467 156.48 104.315 154.56C103.163 152.64 102.587 150.528 102.587 148.224V145.344C102.587 144.128 103.003 143.104 103.835 142.272C104.731 141.376 105.787 140.928 107.003 140.928H109.691C110.843 140.928 111.835 141.376 112.667 142.272C113.563 143.104 114.011 144.128 114.011 145.344V148.224C114.011 148.544 114.139 148.864 114.395 149.184C114.715 149.44 115.035 149.568 115.355 149.568H133.787C134.107 149.568 134.395 149.44 134.651 149.184C134.907 148.864 135.035 148.544 135.035 148.224V139.488C135.035 138.784 134.715 138.336 134.075 138.144L111.035 129.504C108.475 128.608 106.427 127.04 104.891 124.8C103.355 122.56 102.587 120.096 102.587 117.408V108.768C102.587 106.4 103.163 104.256 104.315 102.336C105.467 100.416 107.003 98.88 108.923 97.728C110.907 96.576 113.051 96 115.355 96H133.787C136.091 96 138.203 96.576 140.123 97.728C142.043 98.88 143.579 100.416 144.731 102.336C145.883 104.256 146.459 106.4 146.459 108.768V111.36C146.459 112.576 146.011 113.6 145.115 114.432C144.283 115.264 143.259 115.68 142.043 115.68H139.451C138.235 115.68 137.179 115.264 136.283 114.432C135.451 113.6 135.035 112.576 135.035 111.36V108.768C135.035 107.872 134.619 107.424 133.787 107.424H115.355C115.035 107.424 114.715 107.552 114.395 107.808C114.139 108.064 114.011 108.384 114.011 108.768V117.408C114.011 118.176 114.331 118.656 114.971 118.848L138.107 127.488C140.603 128.384 142.619 129.952 144.155 132.192C145.691 134.432 146.459 136.864 146.459 139.488V148.224Z" fill="white"/>
<path d="M204.833 101.76L186.209 157.92C185.953 158.752 185.409 159.456 184.577 160.032C183.809 160.608 182.977 160.896 182.081 160.896H178.145C177.249 160.896 176.417 160.608 175.649 160.032C174.945 159.456 174.433 158.752 174.113 157.92L155.489 101.76C154.977 100.352 155.169 99.04 156.065 97.824C156.897 96.608 158.081 96 159.617 96H162.401C164.513 96 165.921 96.992 166.625 98.976L179.585 138.528C179.969 138.976 180.321 138.976 180.641 138.528C181.985 134.368 183.361 130.112 184.769 125.76C186.241 121.344 187.617 117.216 188.897 113.376C190.177 109.472 191.233 106.24 192.065 103.68L193.601 98.976C193.921 98.08 194.465 97.376 195.233 96.864C196.065 96.288 196.929 96 197.825 96H200.609C202.145 96 203.329 96.608 204.161 97.824C205.057 98.976 205.281 100.288 204.833 101.76Z" fill="white"/>
</svg>
