<svg xmlns="http://www.w3.org/2000/svg" width="256" height="256" fill="none"><rect width="256" height="256" rx="24" fill="#fcdc34"/><g fill-rule="evenodd" fill="#fff"><path d="M40.945 37.647A5.65 5.65 0 0 1 46.592 32h162.635a5.65 5.65 0 0 1 5.647 5.647v109.326c0 9.528-2.517 17.732-8.317 23.532s-14.005 8.318-23.532 8.318H72.885c-9.53 0-17.73-2.519-23.538-8.313s-8.352-13.985-8.402-23.507v-.03V37.647zm11.294 5.647v103.664c.043 7.637 2.059 12.54 5.084 15.556s7.925 5.015 15.562 5.015h110.14c7.64 0 12.536-2 15.546-5.01s5.009-7.906 5.009-15.546V43.294H52.239z"/><path d="M32 37.647A5.65 5.65 0 0 1 37.647 32h180.706A5.65 5.65 0 0 1 224 37.647a5.65 5.65 0 0 1-5.647 5.647H37.647A5.65 5.65 0 0 1 32 37.647zm96 129.882a5.65 5.65 0 0 1 5.647 5.647v27.105c0 2.139-1.209 4.095-3.122 5.051l-36.141 18.071a5.65 5.65 0 0 1-7.576-2.526 5.65 5.65 0 0 1 2.525-7.576l33.02-16.51v-23.615a5.65 5.65 0 0 1 5.647-5.647z"/><path d="M122.949 197.756a5.65 5.65 0 0 1 7.576-2.526l36.142 18.071a5.65 5.65 0 0 1 2.525 7.576 5.65 5.65 0 0 1-7.576 2.526l-36.141-18.071a5.65 5.65 0 0 1-2.526-7.576zm50.045-109.517a5.65 5.65 0 0 1-.716 7.954l-28.461 23.763-.092.075c-2.279 1.824-5.187 2.687-8.115 2.199-2.95-.491-5.453-2.279-7.016-4.853l-.015-.025-10.178-16.963-27.441 22.91a5.65 5.65 0 0 1-7.954-.716 5.65 5.65 0 0 1 .716-7.954l28.448-23.752c2.321-1.946 5.292-2.834 8.27-2.311 2.964.521 5.432 2.352 6.966 4.879l.015.025 10.178 16.963 27.441-22.91a5.65 5.65 0 0 1 7.954.716z"/></g></svg>