<svg xmlns="http://www.w3.org/2000/svg" width="256" height="256" fill="none"><rect width="256" height="256" rx="24" fill="#e3ebf3"/><path d="M192.499 216.58c0 1.216-.448 2.272-1.344 3.168-.832.832-1.856 1.248-3.072 1.248h-2.592a4.5 4.5 0 0 1-4.416-4.416v-56.064c0-1.28.416-2.336 1.248-3.168a4.5 4.5 0 0 1 3.168-1.248h2.592c1.216 0 2.24.416 3.072 1.248.896.832 1.344 1.888 1.344 3.168v56.064zm-20.288 0a4.5 4.5 0 0 1-1.248 3.168c-.832.832-1.888 1.248-3.168 1.248h-2.592a4.5 4.5 0 0 1-4.416-4.416v-28.896a.45.45 0 0 0-.384-.48c-.192-.064-.352 0-.48.192l-9.216 19.008c-.192.512-.608.96-1.248 1.344s-1.248.704-1.824.96l-.768.288c-1.984 0-3.296-.864-3.936-2.592l-9.216-19.008c-.064-.192-.224-.256-.48-.192a.45.45 0 0 0-.384.48v28.896c0 1.216-.448 2.272-1.344 3.168-.832.832-1.856 1.248-3.072 1.248h-2.688a4.5 4.5 0 0 1-3.168-1.248 4.5 4.5 0 0 1-1.248-3.168v-56.064c0-1.28.416-2.336 1.248-3.168a4.5 4.5 0 0 1 3.168-1.248h2.784c1.792 0 3.104.832 3.936 2.496l1.92 4.128 3.552 7.104 4.128 8.736 4.224 8.64c.128.256.288.384.48.384.256 0 .448-.128.576-.384l13.728-28.608c.832-1.664 2.176-2.496 4.032-2.496h2.688c1.28 0 2.336.416 3.168 1.248s1.248 1.888 1.248 3.168v56.064zm-59.651-8.256c0 2.304-.576 4.416-1.728 6.336s-2.688 3.456-4.608 4.608-4.032 1.728-6.336 1.728H74.256a4.5 4.5 0 0 1-3.168-1.248 4.5 4.5 0 0 1-1.248-3.168v-56.064c0-1.28.416-2.336 1.248-3.168a4.5 4.5 0 0 1 3.168-1.248h24.288c2.368 0 4.48.576 6.336 1.728 1.92 1.152 3.456 2.688 4.608 4.608s1.728 4.064 1.728 6.432v11.424c0 1.728-.32 3.328-.96 4.8-.32.704-.256 1.408.192 2.112 1.408 2.112 2.112 4.48 2.112 7.104v14.016zm-12.672-28.032v-11.424c0-.384-.16-.704-.48-.96-.256-.256-.544-.384-.864-.384H82.608c-.832 0-1.248.416-1.248 1.248v11.52c0 .832.416 1.248 1.248 1.248h15.936c.32 0 .608-.128.864-.384.32-.256.48-.544.48-.864zm1.248 28.032v-14.016c0-.896-.416-1.344-1.248-1.344h-17.28c-.832 0-1.248.416-1.248 1.248v14.208c0 .832.416 1.248 1.248 1.248h17.28c.32 0 .608-.128.864-.384.256-.32.384-.64.384-.96z" fill="#343c54"/><g fill-rule="evenodd"><path d="M48.863 77C57.297 62.441 69.441 50.297 84 41.863l15.007 25.985c-10.012 5.795-18.364 14.147-24.159 24.159L48.863 77z" fill="#01b3fb"/><path d="M84 41.863C98.123 33.688 114.52 29 132 29v30.001c-12.015 0-23.288 3.216-32.994 8.846L84 41.863z" fill="#008620"/><path d="M66.001 125H36c0-17.481 4.688-33.877 12.863-48l25.985 15.007c-5.619 9.706-8.846 20.979-8.846 32.994z" fill="#0167d3"/><path d="M179.999 41.863C194.57 50.297 206.714 62.441 215.148 77l-25.985 15.007a66.36 66.36 0 0 0-24.158-24.159l14.994-25.985z" fill="#ff4e25"/><path d="M215.148 77c8.175 14.123 12.851 30.519 12.851 48H198.01c0-12.015-3.228-23.288-8.847-32.994L215.148 77z" fill="#fb2324"/><path d="M132 29c17.48 0 33.876 4.688 47.999 12.863l-14.994 25.985c-9.706-5.63-20.979-8.846-33.005-8.846V29z" fill="#ff8e26"/><path d="M108.834 43.155l15.876 86.299a7.08 7.08 0 0 0 3.173 4.691 7.07 7.07 0 0 0 5.591.851 7.01 7.01 0 0 0 4.78-9.092l-29.42-82.749z" fill="#343c54"/></g></svg>