<svg xmlns="http://www.w3.org/2000/svg" width="256" height="256" fill="none"><rect width="256" height="256" rx="24" fill="#5c84fc"/><path d="M70.56 148.224c0 2.304-.576 4.416-1.728 6.336s-2.688 3.456-4.608 4.608-4.032 1.728-6.336 1.728h-17.28a12.59 12.59 0 0 1-6.432-1.728c-1.92-1.152-3.456-2.688-4.608-4.608s-1.728-4.032-1.728-6.336v-6.912c0-1.216.416-2.24 1.248-3.072.896-.896 1.952-1.344 3.168-1.344h2.688c1.216 0 2.24.448 3.072 1.344.896.832 1.344 1.856 1.344 3.072v6.912c0 .32.128.64.384.96.256.256.544.384.864.384h17.28c.32 0 .608-.128.864-.384.256-.32.384-.64.384-.96v-47.808c0-1.28.416-2.336 1.248-3.168A4.5 4.5 0 0 1 63.552 96h2.592c1.28 0 2.336.416 3.168 1.248s1.248 1.888 1.248 3.168v47.808zm52.739 0c0 2.304-.576 4.416-1.728 6.336s-2.688 3.456-4.608 4.608-4.032 1.728-6.336 1.728H92.195a12.59 12.59 0 0 1-6.432-1.728c-1.92-1.152-3.456-2.688-4.608-4.608s-1.728-4.032-1.728-6.336v-2.88c0-1.216.416-2.24 1.248-3.072.896-.896 1.952-1.344 3.168-1.344h2.688c1.152 0 2.144.448 2.976 1.344.896.832 1.344 1.856 1.344 3.072v2.88c0 .32.128.64.384.96.32.256.64.384.96.384h18.432c.32 0 .608-.128.864-.384.256-.32.384-.64.384-.96v-8.736c0-.704-.32-1.152-.96-1.344l-23.04-8.64c-2.56-.896-4.608-2.464-6.144-4.704a12.79 12.79 0 0 1-2.304-7.392v-8.64c0-2.368.576-4.512 1.728-6.432s2.688-3.456 4.608-4.608A12.59 12.59 0 0 1 92.195 96h18.432c2.304 0 4.416.576 6.336 1.728s3.456 2.688 4.608 4.608 1.728 4.064 1.728 6.432v2.592c0 1.216-.448 2.24-1.344 3.072-.832.832-1.856 1.248-3.072 1.248h-2.592a4.5 4.5 0 0 1-3.168-1.248c-.832-.832-1.248-1.856-1.248-3.072v-2.592c0-.896-.416-1.344-1.248-1.344H92.195c-.32 0-.64.128-.96.384-.256.256-.384.576-.384.96v8.64c0 .768.32 1.248.96 1.44l23.136 8.64c2.496.896 4.512 2.464 6.048 4.704s2.304 4.672 2.304 7.296v8.736zm52.71 0c0 2.304-.576 4.416-1.728 6.336s-2.688 3.456-4.608 4.608-4.032 1.728-6.336 1.728h-18.432a12.59 12.59 0 0 1-6.432-1.728c-1.92-1.152-3.456-2.688-4.608-4.608s-1.728-4.032-1.728-6.336v-39.456c0-2.368.576-4.512 1.728-6.432s2.688-3.456 4.608-4.608A12.59 12.59 0 0 1 144.905 96h18.432c2.304 0 4.416.576 6.336 1.728s3.456 2.688 4.608 4.608 1.728 4.064 1.728 6.432v39.456zm-11.424 0v-39.456c0-.896-.416-1.344-1.248-1.344h-18.432c-.32 0-.64.128-.96.384-.256.256-.384.576-.384.96v39.456c0 .32.128.64.384.96.32.256.64.384.96.384h18.432c.32 0 .608-.128.864-.384.256-.32.384-.64.384-.96zm64.134 8.256c0 1.216-.448 2.272-1.344 3.168-.832.832-1.856 1.248-3.072 1.248h-2.784c-1.728 0-3.008-.736-3.84-2.208l-20.448-35.424c-.128-.256-.32-.32-.576-.192-.256.064-.384.192-.384.384v33.024c0 1.216-.448 2.272-1.344 3.168a4.06 4.06 0 0 1-2.976 1.248h-2.688a4.5 4.5 0 0 1-4.416-4.416v-56.064c0-1.28.416-2.336 1.248-3.168A4.5 4.5 0 0 1 189.263 96h2.784c1.728 0 3.008.736 3.84 2.208l20.448 35.424c.192.256.384.352.576.288a.45.45 0 0 0 .384-.48v-33.024c0-1.28.416-2.336 1.248-3.168A4.5 4.5 0 0 1 221.711 96h2.592c1.216 0 2.24.416 3.072 1.248.896.832 1.344 1.888 1.344 3.168v56.064z" fill="#fff"/></svg>